<svg width="580" height="467" viewBox="0 0 580 467" fill="none" xmlns="http://www.w3.org/2000/svg">
<path d="M573.898 380.255C573.886 380.194 573.88 380.134 573.868 380.074C573.784 379.58 573.676 379.087 573.55 378.599C573.412 378.07 573.249 377.552 573.063 377.041C573.015 376.902 572.967 376.752 572.913 376.607C572.907 376.589 572.895 376.565 572.877 376.529C572.817 376.397 572.757 376.258 572.697 376.126C572.246 375.151 571.717 374.206 571.122 373.303C570.936 373.014 570.701 372.533 570.437 372.226C570.425 372.244 570.359 372.208 570.269 372.1C570.197 372.015 570.125 371.925 570.058 371.841C569.89 371.642 569.722 371.444 569.548 371.245C568.833 370.439 568.063 369.68 567.24 368.988C567.102 368.868 566.958 368.754 566.813 368.633C566.801 368.627 566.777 368.603 566.753 368.585C566.717 368.555 566.687 368.531 566.675 368.525C566.537 368.423 566.405 368.326 566.267 368.224C565.792 367.881 565.305 367.544 564.806 367.225C563.815 366.587 562.793 366.003 561.754 365.462C560.666 364.896 559.554 364.396 558.437 363.897C558.419 363.891 558.413 363.885 558.401 363.879C558.377 363.873 558.365 363.867 558.335 363.855C558.214 363.807 558.1 363.758 557.98 363.71C557.704 363.596 557.427 363.488 557.157 363.379C556.604 363.163 556.051 362.946 555.492 362.741C551.057 361.086 546.538 359.684 542.158 357.885C537.957 356.157 533.847 354.219 529.869 352.017C522.087 347.708 514.804 342.472 508.182 336.538C501.548 330.598 495.61 323.893 490.449 316.635C485.275 309.359 481.026 301.511 477.649 293.248C477.529 292.953 477.481 292.658 477.487 292.364C474.049 291.569 470.606 290.775 467.169 289.98C463.395 289.108 465.006 283.306 468.767 284.179C481.387 287.091 494 290.01 506.619 292.923C519.599 295.92 532.573 298.93 545.553 301.915C551.274 303.233 557.421 304.737 563.202 302.908C568.574 301.204 571.945 296.679 571.044 290.937C570.143 285.22 565.762 280.857 561.405 277.438C556.916 273.917 551.977 270.932 546.917 268.333C536.864 263.169 526.047 259.684 515.122 256.892C490.755 250.657 465.769 246.516 441.113 241.581C427.941 238.945 414.769 236.309 401.59 233.673C400.022 233.36 397.907 233.264 396.483 232.494C395.245 231.82 394.073 230.357 393.039 229.4C390.744 227.276 388.448 225.157 386.147 223.039C381.279 218.555 376.4 214.072 371.52 209.606C332.454 173.846 292.938 138.578 252.971 103.829C233.699 87.0739 214.524 70.1264 194.687 54.0456C175.861 38.7832 155.67 24.4898 133.015 15.5226C111.4 6.97059 87.2189 2.90825 64.3358 8.52331C44.908 13.2898 26.5379 24.6583 15.8776 41.9248C4.16562 60.8884 3.76904 84.4078 10.0847 105.291C16.6408 126.969 30.528 145.313 46.7048 160.792C63.6087 176.963 82.9403 190.534 102.236 203.66C122.841 217.677 144.03 230.827 165.579 243.339C208.623 268.327 253.085 290.745 297.745 312.675C308.946 318.176 320.166 323.647 331.385 329.123C334.179 330.483 335.369 333.216 337.021 335.755C338.518 338.06 340.02 340.359 341.522 342.658C344.713 347.533 347.94 352.384 351.215 357.198C364.207 376.258 378.215 394.783 394.974 410.707C424.293 438.566 465.841 458.823 506.679 450.723C500.033 449.952 493.423 448.58 487.023 446.799C478.208 444.349 469.633 440.967 461.49 436.79C453.372 432.626 445.746 427.6 438.637 421.877C437.327 420.824 437.634 418.717 438.637 417.622C439.815 416.334 441.666 416.635 442.886 417.622C443.318 417.971 443.751 418.314 444.184 418.657C444.286 418.735 444.382 418.814 444.484 418.892C444.496 418.904 444.544 418.94 444.592 418.976C444.634 419.006 444.676 419.042 444.682 419.048C444.785 419.127 444.887 419.205 444.989 419.283C451.791 424.477 459.117 428.985 466.802 432.74C468.713 433.673 470.648 434.563 472.607 435.406C472.739 435.46 472.866 435.514 472.998 435.575C473.22 435.665 473.436 435.755 473.659 435.851C474.134 436.044 474.602 436.237 475.077 436.429C476.105 436.838 477.138 437.236 478.178 437.621C482.168 439.101 486.23 440.383 490.346 441.472C494.505 442.568 498.711 443.458 502.96 444.132C503.507 444.217 504.053 444.301 504.6 444.385C504.853 444.421 505.105 444.458 505.357 444.494C505.435 444.506 505.52 444.518 505.598 444.53C506.643 444.662 507.689 444.795 508.741 444.903C510.814 445.126 512.899 445.288 514.984 445.348C517.069 445.402 519.161 445.36 521.234 445.15C521.522 445.12 521.811 445.083 522.099 445.053C522.129 445.053 522.141 445.047 522.159 445.047C522.201 445.041 522.243 445.029 522.279 445.029C522.766 444.957 523.253 444.873 523.734 444.776C524.773 444.572 525.807 444.319 526.816 444C527.321 443.844 527.82 443.675 528.313 443.489C528.469 443.428 528.625 443.368 528.775 443.308C528.751 443.314 529.01 443.206 529.166 443.14C530.091 442.712 530.993 442.225 531.852 441.677C532.044 441.557 532.952 441.111 533.006 440.883C533.012 440.865 532.531 441.274 532.783 441.051C532.855 440.985 532.94 440.925 533.012 440.865C533.162 440.738 533.312 440.606 533.462 440.473C534.075 439.92 534.652 439.318 535.181 438.686C535.265 438.584 535.343 438.475 535.433 438.379C535.656 438.126 535.259 438.602 535.271 438.596C535.397 438.53 535.542 438.229 535.626 438.108C535.854 437.783 536.076 437.446 536.287 437.103C536.713 436.405 537.056 435.677 537.417 434.943C537.441 434.888 537.459 434.84 537.477 434.786C537.549 434.6 537.615 434.413 537.681 434.226C537.807 433.853 537.927 433.48 538.029 433.095C538.144 432.686 538.234 432.277 538.318 431.855C538.342 431.747 538.36 431.633 538.378 431.524C538.384 431.422 538.42 431.277 538.42 431.223C538.498 430.435 538.516 429.641 538.462 428.846C538.45 428.684 538.372 428.407 538.402 428.232C538.336 427.871 538.258 427.51 538.162 427.155C538.059 426.776 537.915 426.415 537.801 426.048C537.801 426.042 537.795 426.042 537.795 426.036C537.711 425.867 537.633 425.699 537.543 425.53C537.35 425.169 537.14 424.814 536.906 424.477C536.852 424.399 536.792 424.32 536.737 424.242C536.725 424.23 536.725 424.224 536.719 424.212C536.635 424.122 536.557 424.037 536.539 424.019C536.13 423.544 535.866 423.014 535.752 422.461C533.631 422.364 531.509 422.226 529.4 422.039C520.176 421.233 511.018 419.626 502.082 417.201C493.195 414.787 484.529 411.556 476.201 407.632C467.986 403.756 460.132 399.14 452.747 393.85C451.377 392.869 450.848 391.286 451.671 389.733C452.38 388.385 454.501 387.735 455.781 388.656C456.659 389.288 457.542 389.908 458.437 390.522C465.643 395.463 473.286 399.754 481.236 403.365C482.222 403.81 483.207 404.249 484.205 404.677C484.331 404.731 484.457 404.785 484.578 404.839C484.812 404.935 485.046 405.032 485.281 405.134C485.761 405.333 486.242 405.531 486.723 405.724C488.766 406.548 490.833 407.325 492.912 408.059C497.029 409.509 501.211 410.785 505.441 411.881C509.666 412.976 513.945 413.891 518.247 414.619C519.311 414.799 520.38 414.968 521.45 415.124C521.955 415.197 522.46 415.269 522.964 415.341C523.066 415.353 523.241 415.377 523.349 415.389C523.607 415.419 523.866 415.455 524.118 415.486C526.263 415.75 528.415 415.967 530.566 416.141C534.887 416.484 539.237 416.677 543.576 416.593C544.67 416.569 545.769 416.527 546.857 416.442C547.404 416.4 547.945 416.352 548.491 416.286C548.588 416.274 548.72 416.268 548.816 416.262C548.78 416.262 548.744 416.268 548.69 416.268C548.936 416.256 549.189 416.196 549.435 416.154C550.456 415.985 551.478 415.768 552.476 415.492C552.992 415.347 553.503 415.191 554.008 415.016C554.242 414.932 554.471 414.848 554.699 414.763C554.819 414.715 554.999 414.637 555.066 414.601C555.937 414.18 556.79 413.746 557.601 413.217C557.788 413.09 557.968 412.964 558.154 412.831C558.208 412.771 558.317 412.711 558.365 412.669C558.677 412.404 558.984 412.121 559.272 411.826C559.59 411.507 559.885 411.164 560.173 410.821C560.185 410.809 560.185 410.803 560.197 410.791C560.203 410.785 560.203 410.779 560.209 410.773C560.33 410.605 560.45 410.436 560.564 410.262C560.816 409.888 561.045 409.503 561.261 409.106C561.363 408.926 561.453 408.739 561.549 408.552C561.604 408.444 561.922 407.872 561.7 408.252C561.489 408.613 561.802 407.987 561.85 407.848C561.922 407.656 561.982 407.463 562.048 407.264C562.168 406.879 562.271 406.482 562.355 406.085C562.391 405.91 562.421 405.736 562.451 405.567C562.457 405.495 562.469 405.411 562.469 405.399C562.493 404.972 562.517 404.544 562.505 404.111C562.499 403.9 562.469 403.684 562.463 403.473C562.463 403.467 562.463 403.455 562.463 403.449C562.385 403.064 562.301 402.685 562.186 402.311C562.174 402.281 562.126 402.101 562.072 401.944C562.066 401.938 562.066 401.938 562.066 401.932C562.018 401.848 561.982 401.752 561.934 401.662C561.754 401.3 561.543 400.957 561.315 400.626C561.093 400.295 560.967 399.934 560.912 399.567C560.552 399.609 560.185 399.657 559.825 399.694C555.618 400.103 551.436 399.766 547.266 399.2C542.542 398.562 537.855 397.689 533.216 396.588C523.764 394.343 514.563 391.13 505.712 387.127C497.023 383.203 488.706 378.449 480.918 372.942C472.986 367.333 465.576 361.002 458.87 353.967C457.71 352.751 457.746 350.933 458.87 349.712C459.952 348.532 462.031 348.568 463.119 349.712C464.693 351.367 466.31 352.98 467.956 354.556C471.345 357.794 474.897 360.864 478.58 363.758C478.743 363.885 478.899 364.011 479.061 364.138C479.067 364.144 479.085 364.156 479.103 364.174C479.175 364.234 479.289 364.318 479.319 364.342C479.416 364.414 479.512 364.493 479.608 364.565C480.059 364.908 480.515 365.257 480.972 365.594C481.921 366.298 482.877 366.996 483.838 367.676C485.731 369.018 487.66 370.318 489.619 371.57C493.567 374.098 497.63 376.439 501.8 378.587C503.903 379.671 506.03 380.7 508.176 381.687C509.215 382.162 510.255 382.626 511.306 383.071C511.469 383.137 511.631 383.21 511.787 383.276C511.799 383.282 511.811 383.282 511.823 383.294C512.052 383.39 512.274 383.48 512.502 383.577C513.031 383.793 513.56 384.01 514.089 384.221C522.79 387.699 531.816 390.359 541.016 392.123C543.336 392.568 545.667 392.953 548.005 393.284C548.191 393.308 549.146 393.477 548.419 393.344C548.66 393.386 548.906 393.41 549.146 393.441C549.603 393.501 550.054 393.549 550.511 393.597C551.472 393.693 552.44 393.772 553.407 393.814C555.342 393.904 557.277 393.892 559.206 393.735C559.723 393.693 560.245 393.597 560.768 393.573C560.786 393.573 560.798 393.567 560.816 393.567C561.045 393.531 561.279 393.495 561.507 393.453C562.445 393.29 563.376 393.085 564.296 392.833C564.758 392.706 565.221 392.562 565.678 392.405C565.888 392.333 566.098 392.255 566.303 392.177C566.423 392.135 567.09 391.816 566.645 392.05C566.213 392.279 566.958 391.906 567.06 391.858C567.258 391.768 567.45 391.671 567.643 391.569C568.027 391.37 568.4 391.16 568.766 390.937C569.133 390.714 569.482 390.468 569.83 390.227C569.842 390.221 569.842 390.221 569.854 390.209C569.86 390.203 569.86 390.203 569.872 390.197C570.034 390.058 570.197 389.926 570.353 389.788C570.689 389.487 571.014 389.168 571.326 388.831C571.471 388.674 571.609 388.512 571.747 388.349C571.771 388.319 571.807 388.271 571.843 388.223C572.288 387.495 572.751 386.802 573.135 386.038C573.141 385.972 573.201 385.851 573.231 385.803C573.255 385.743 573.279 385.689 573.291 385.665C573.376 385.43 573.454 385.19 573.526 384.949C573.658 384.503 573.766 384.058 573.844 383.601C573.85 383.577 573.874 383.408 573.892 383.288C573.892 383.27 573.898 383.258 573.898 383.246C573.922 382.999 573.94 382.752 573.946 382.505C573.964 382.048 573.958 381.585 573.934 381.127C573.946 380.802 573.916 380.525 573.898 380.255Z" fill="#F5B997"/>
<path d="M573.818 428.452C573.908 428.271 573.902 428.253 573.872 428.301C573.836 428.379 573.806 428.458 573.788 428.518C573.8 428.494 573.812 428.476 573.818 428.452Z" fill="#00FFFF"/>
<path d="M573.776 428.572C573.776 428.566 573.782 428.542 573.788 428.519C573.782 428.525 573.782 428.536 573.776 428.542C573.776 428.554 573.776 428.566 573.776 428.572Z" fill="#00FFFF"/>
<path d="M562.58 444.172C562.562 444.172 562.628 444.304 562.676 444.401C562.64 444.28 562.598 444.172 562.58 444.172Z" fill="#00FFFF"/>
<path d="M537.535 466.999C537.547 466.981 537.456 466.879 537.366 466.777C537.432 466.873 537.529 467.011 537.535 466.999Z" fill="#00FFFF"/>
<path d="M573.788 428.518C573.806 428.464 573.842 428.379 573.873 428.301C573.842 428.349 573.782 428.47 573.776 428.536C573.782 428.53 573.782 428.524 573.788 428.518Z" fill="#231815"/>
<path d="M573.506 419.135C573.512 419.147 573.512 419.159 573.518 419.171C573.542 419.219 573.53 419.189 573.506 419.135Z" fill="#231815"/>
<path d="M567.727 361.965C563.406 359.208 558.533 357.415 553.72 355.736C551.382 354.917 549.032 354.129 546.713 353.256C545.685 352.865 544.664 352.462 543.648 352.047C543.576 352.017 543.366 351.926 543.216 351.866C543.095 351.818 542.777 351.68 542.687 351.643C542.164 351.421 541.647 351.186 541.124 350.957C537.08 349.134 533.15 347.07 529.352 344.789C527.435 343.633 525.555 342.423 523.71 341.166C522.802 340.546 521.907 339.914 521.018 339.264C520.591 338.951 520.158 338.638 519.738 338.319C519.527 338.163 519.311 338 519.101 337.838C519.01 337.771 518.92 337.699 518.83 337.633C518.824 337.627 518.734 337.561 518.65 337.494C518.56 337.422 518.241 337.176 518.181 337.127C517.971 336.965 517.767 336.796 517.556 336.634C517.112 336.279 516.667 335.924 516.228 335.563C515.351 334.84 514.48 334.106 513.62 333.36C511.962 331.916 510.345 330.423 508.771 328.888C505.592 325.789 502.593 322.509 499.787 319.073C499.45 318.663 499.12 318.248 498.79 317.833C498.627 317.622 498.459 317.417 498.297 317.207C498.255 317.153 498.213 317.105 498.171 317.05C498.159 317.032 498.128 316.99 498.074 316.918C497.383 316.015 496.704 315.1 496.037 314.18C494.751 312.398 493.519 310.575 492.336 308.721C489.956 304.978 487.787 301.096 485.864 297.1C485.401 296.143 484.956 295.18 484.524 294.211C484.494 294.145 484.464 294.073 484.434 294.006C492.197 295.8 499.955 297.593 507.719 299.387C521.12 302.486 534.496 305.905 547.975 308.649C558.022 310.695 571.489 310.274 576.032 299.086C580.713 287.555 571.399 277.33 562.806 271.059C543.636 257.06 519.942 251.373 497.083 246.709C470.198 241.214 443.264 235.93 416.361 230.544C413.068 229.882 409.775 229.226 406.482 228.564C405.016 228.269 403.556 227.98 402.089 227.685C399.722 227.209 399.079 226.83 397.288 225.175C392.294 220.559 387.289 215.949 382.277 211.345C372.115 202.017 361.93 192.725 351.708 183.463C331.403 165.065 310.972 146.805 290.426 128.678C270.013 110.677 249.486 92.8031 228.844 75.0733C209.398 58.3725 190.031 41.2927 168.446 27.3724C147.684 13.9817 124.566 3.78074 99.8865 0.795671C77.8688 -1.87043 55.1239 2.08357 36.1409 13.8674C17.8969 25.1878 4.73072 43.2125 1.15525 64.5834C-2.57647 86.9173 2.99408 110.202 14.0931 129.713C25.787 150.266 43.1236 166.972 61.5057 181.531C80.9936 196.962 101.683 210.954 122.631 224.309C166.18 252.083 211.784 276.445 257.893 299.633C280.98 311.243 304.205 322.563 327.425 333.896C328.957 334.642 329.354 334.991 330.261 336.387C331.055 337.603 331.842 338.824 332.635 340.04C334.312 342.616 335.988 345.186 337.677 347.75C341.054 352.889 344.473 357.999 347.965 363.066C354.701 372.846 361.726 382.445 369.243 391.635C398.147 426.968 437.94 457.078 485.293 458.516C496.049 458.841 506.842 457.463 517.142 454.345C518.692 453.876 519.311 452.582 519.239 451.324C526.36 450.957 533.667 449.055 538.661 443.831C543.871 438.385 546.473 429.556 542.801 422.599C542.855 422.599 542.909 422.599 542.963 422.599C547.44 422.551 552.109 422.178 556.322 420.541C560.516 418.916 564.146 416.28 566.381 412.296C568.358 408.781 569.277 404.309 567.919 400.41C567.667 399.675 567.355 398.959 566.976 398.279C568.647 397.749 570.263 397.063 571.771 396.155C575.455 393.928 578.321 390.407 579.451 386.212C580.701 381.554 579.709 376.655 577.558 372.431C575.329 368.049 571.807 364.571 567.727 361.965ZM573.977 382.451C573.965 382.698 573.953 382.944 573.929 383.191C573.929 383.203 573.929 383.215 573.923 383.233C573.905 383.348 573.881 383.522 573.875 383.546C573.79 383.998 573.682 384.449 573.556 384.894C573.484 385.135 573.406 385.376 573.322 385.611C573.316 385.635 573.292 385.689 573.262 385.749C573.292 385.707 573.298 385.719 573.207 385.899C573.195 385.924 573.183 385.942 573.177 385.96C573.171 385.984 573.165 386.008 573.165 386.014C573.165 386.008 573.165 385.996 573.165 385.984C572.781 386.754 572.324 387.44 571.873 388.168C571.837 388.217 571.801 388.271 571.777 388.295C571.639 388.457 571.501 388.62 571.357 388.776C571.05 389.113 570.726 389.432 570.383 389.733C570.227 389.872 570.065 390.01 569.902 390.142C569.896 390.148 569.896 390.148 569.884 390.154C569.872 390.16 569.872 390.16 569.86 390.172C569.506 390.413 569.163 390.66 568.797 390.883C568.43 391.105 568.052 391.316 567.673 391.515C567.481 391.617 567.282 391.707 567.09 391.803C566.988 391.852 566.243 392.219 566.675 391.996C567.114 391.767 566.447 392.08 566.333 392.122C566.123 392.201 565.918 392.279 565.708 392.351C565.251 392.508 564.789 392.652 564.326 392.778C563.406 393.031 562.475 393.236 561.538 393.398C561.309 393.44 561.075 393.477 560.847 393.513C560.829 393.513 560.817 393.519 560.798 393.519C560.282 393.543 559.753 393.639 559.236 393.681C557.307 393.838 555.366 393.85 553.437 393.759C552.47 393.711 551.502 393.639 550.541 393.543C550.084 393.495 549.627 393.44 549.177 393.386C548.936 393.356 548.69 393.332 548.45 393.29C549.183 393.422 548.221 393.26 548.035 393.23C545.697 392.899 543.366 392.514 541.046 392.068C531.846 390.305 522.82 387.645 514.119 384.166C513.59 383.956 513.061 383.739 512.533 383.522C512.304 383.426 512.082 383.336 511.854 383.239C511.836 383.233 511.829 383.227 511.817 383.221C511.655 383.155 511.493 383.083 511.337 383.017C510.291 382.565 509.245 382.102 508.206 381.633C506.055 380.652 503.927 379.616 501.83 378.533C497.666 376.385 493.598 374.044 489.649 371.516C487.69 370.264 485.768 368.964 483.869 367.622C482.907 366.936 481.946 366.244 481.002 365.54C480.546 365.197 480.089 364.854 479.638 364.511C479.542 364.438 479.446 364.36 479.35 364.288C479.314 364.264 479.205 364.18 479.133 364.119C479.115 364.101 479.097 364.089 479.091 364.083C478.929 363.957 478.773 363.83 478.611 363.704C474.927 360.809 471.376 357.74 467.986 354.502C466.334 352.925 464.723 351.306 463.149 349.657C462.061 348.514 459.982 348.478 458.9 349.657C457.777 350.879 457.741 352.697 458.9 353.912C465.607 360.942 473.022 367.279 480.948 372.888C488.736 378.395 497.053 383.149 505.742 387.073C514.594 391.075 523.794 394.283 533.246 396.534C537.885 397.635 542.573 398.508 547.296 399.146C551.466 399.711 555.649 400.048 559.855 399.639C560.216 399.603 560.582 399.561 560.943 399.513C560.991 399.88 561.117 400.241 561.345 400.572C561.574 400.909 561.778 401.252 561.964 401.607C562.006 401.698 562.042 401.794 562.096 401.878C562.102 401.884 562.102 401.884 562.102 401.89C562.157 402.053 562.205 402.227 562.217 402.257C562.331 402.63 562.415 403.009 562.493 403.395C562.493 403.401 562.493 403.413 562.493 403.419C562.499 403.629 562.529 403.846 562.535 404.057C562.547 404.484 562.523 404.911 562.499 405.345C562.499 405.357 562.487 405.435 562.481 405.513C562.451 405.688 562.421 405.862 562.385 406.031C562.301 406.428 562.199 406.819 562.078 407.21C562.018 407.403 561.952 407.601 561.88 407.794C561.832 407.932 561.52 408.558 561.73 408.197C561.952 407.818 561.634 408.39 561.58 408.498C561.49 408.685 561.393 408.871 561.291 409.052C561.075 409.449 560.841 409.834 560.594 410.207C560.48 410.382 560.354 410.55 560.24 410.719C560.234 410.731 560.234 410.731 560.228 410.737C560.216 410.749 560.216 410.749 560.204 410.767C559.915 411.11 559.621 411.447 559.302 411.772C559.014 412.067 558.707 412.35 558.395 412.615C558.347 412.657 558.239 412.717 558.184 412.777C558.004 412.91 557.818 413.036 557.632 413.162C556.82 413.698 555.967 414.125 555.096 414.547C555.024 414.577 554.849 414.661 554.729 414.709C554.501 414.799 554.266 414.884 554.038 414.962C553.533 415.136 553.023 415.299 552.506 415.437C551.502 415.714 550.487 415.931 549.465 416.099C549.225 416.141 548.966 416.202 548.72 416.214C548.774 416.214 548.81 416.208 548.846 416.208C548.75 416.214 548.618 416.22 548.522 416.232C547.981 416.292 547.434 416.346 546.887 416.388C545.793 416.472 544.7 416.515 543.606 416.539C539.274 416.623 534.917 416.43 530.596 416.087C528.445 415.919 526.294 415.696 524.148 415.431C523.89 415.401 523.632 415.365 523.379 415.335C523.271 415.323 523.097 415.299 522.995 415.287C522.49 415.221 521.985 415.148 521.48 415.07C520.411 414.914 519.341 414.745 518.277 414.565C513.975 413.836 509.696 412.922 505.472 411.826C501.247 410.731 497.065 409.455 492.943 408.005C490.863 407.27 488.796 406.494 486.753 405.67C486.272 405.477 485.792 405.278 485.311 405.08C485.076 404.984 484.842 404.887 484.608 404.785C484.482 404.731 484.355 404.677 484.235 404.622C483.244 404.195 482.252 403.762 481.267 403.31C473.316 399.699 465.673 395.402 458.468 390.467C457.578 389.854 456.689 389.234 455.812 388.602C454.532 387.681 452.41 388.337 451.701 389.679C450.884 391.232 451.413 392.815 452.777 393.796C460.156 399.086 468.016 403.702 476.231 407.577C484.56 411.507 493.225 414.733 502.113 417.146C511.048 419.572 520.206 421.179 529.43 421.985C531.546 422.172 533.661 422.31 535.782 422.406C535.896 422.954 536.161 423.49 536.569 423.965C536.587 423.983 536.665 424.067 536.75 424.158C536.756 424.17 536.756 424.17 536.768 424.188C536.816 424.266 536.882 424.344 536.936 424.422C537.17 424.76 537.381 425.115 537.573 425.476C537.663 425.644 537.741 425.813 537.825 425.981C537.825 425.981 537.825 425.987 537.831 425.993C537.945 426.366 538.09 426.728 538.192 427.101C538.288 427.456 538.366 427.817 538.432 428.178C538.408 428.352 538.486 428.629 538.492 428.792C538.546 429.586 538.528 430.381 538.45 431.169C538.444 431.223 538.414 431.368 538.408 431.47C538.39 431.584 538.372 431.693 538.348 431.801C538.27 432.216 538.174 432.631 538.06 433.041C537.958 433.42 537.837 433.799 537.711 434.172C537.645 434.359 537.579 434.545 537.507 434.732C537.489 434.786 537.465 434.834 537.447 434.888C537.086 435.623 536.744 436.351 536.317 437.049C536.107 437.392 535.89 437.723 535.656 438.054C535.572 438.174 535.428 438.475 535.301 438.541C535.289 438.547 535.686 438.072 535.464 438.325C535.374 438.427 535.295 438.529 535.211 438.632C534.682 439.27 534.106 439.865 533.493 440.419C533.348 440.552 533.198 440.678 533.042 440.81C532.964 440.87 532.886 440.931 532.814 440.997C532.561 441.22 533.036 440.81 533.036 440.828C532.982 441.063 532.074 441.502 531.882 441.623C531.023 442.17 530.122 442.658 529.196 443.085C529.04 443.157 528.781 443.266 528.805 443.254C528.649 443.314 528.499 443.38 528.343 443.434C527.85 443.621 527.351 443.789 526.846 443.946C525.831 444.259 524.803 444.518 523.764 444.722C523.277 444.818 522.796 444.903 522.31 444.975C522.267 444.981 522.231 444.987 522.189 444.993C522.171 444.993 522.159 444.999 522.129 444.999C521.841 445.029 521.552 445.065 521.264 445.095C519.185 445.306 517.1 445.354 515.014 445.294C512.929 445.234 510.844 445.071 508.771 444.849C507.719 444.734 506.674 444.608 505.628 444.475C505.55 444.463 505.466 444.451 505.388 444.439C505.135 444.403 504.883 444.367 504.63 444.331C504.084 444.253 503.537 444.169 502.99 444.078C498.747 443.404 494.535 442.513 490.377 441.418C486.26 440.335 482.198 439.047 478.208 437.566C477.168 437.181 476.135 436.784 475.107 436.375C474.633 436.188 474.158 435.996 473.689 435.797C473.467 435.707 473.25 435.617 473.028 435.52C472.896 435.466 472.77 435.412 472.637 435.352C470.684 434.509 468.749 433.624 466.833 432.686C459.147 428.93 451.822 424.423 445.019 419.229C444.917 419.151 444.815 419.072 444.713 418.994C444.701 418.988 444.665 418.952 444.623 418.922C444.574 418.886 444.526 418.85 444.514 418.838C444.412 418.759 444.316 418.681 444.214 418.603C443.781 418.26 443.349 417.917 442.916 417.568C441.696 416.581 439.845 416.28 438.667 417.568C437.664 418.663 437.357 420.769 438.667 421.823C445.77 427.546 453.402 432.571 461.52 436.736C469.663 440.913 478.238 444.289 487.054 446.744C493.453 448.526 500.063 449.904 506.71 450.668C465.871 458.769 424.323 438.505 395.005 410.653C378.245 394.728 364.237 376.204 351.246 357.144C347.964 352.329 344.744 347.479 341.553 342.604C340.044 340.305 338.548 338.006 337.052 335.701C335.399 333.161 334.203 330.429 331.415 329.069C320.196 323.592 308.983 318.122 297.776 312.621C253.121 290.696 208.653 268.272 165.609 243.284C144.06 230.772 122.872 217.622 102.266 203.606C82.9706 190.48 63.639 176.909 46.7351 160.738C30.5583 145.259 16.671 126.915 10.115 105.237C3.79932 84.3535 4.19593 60.8341 15.9079 41.8704C26.5682 24.61 44.9383 13.2355 64.3661 8.46898C87.2431 2.85392 111.424 6.91627 133.045 15.4682C155.706 24.4295 175.891 38.7289 194.718 53.9913C214.554 70.0721 233.73 87.0196 253.001 103.774C292.968 138.524 332.485 173.785 371.551 209.552C376.436 214.023 381.31 218.501 386.177 222.985C388.479 225.103 390.774 227.222 393.07 229.346C394.103 230.303 395.275 231.765 396.513 232.439C397.937 233.21 400.058 233.306 401.621 233.619C414.793 236.255 427.965 238.891 441.143 241.527C465.799 246.462 490.779 250.602 515.153 256.837C526.071 259.63 536.894 263.115 546.947 268.278C552.013 270.878 556.953 273.869 561.435 277.384C565.792 280.802 570.173 285.166 571.074 290.883C571.976 296.624 568.604 301.15 563.232 302.853C557.451 304.683 551.304 303.178 545.583 301.86C532.603 298.875 519.629 295.866 506.65 292.869C494.03 289.956 481.417 287.037 468.798 284.124C465.036 283.258 463.425 289.053 467.199 289.926C470.636 290.72 474.08 291.515 477.517 292.309C477.511 292.604 477.559 292.899 477.679 293.194C481.056 301.457 485.305 309.305 490.479 316.581C495.641 323.839 501.578 330.543 508.212 336.483C514.84 342.417 522.123 347.653 529.899 351.962C533.877 354.165 537.982 356.103 542.188 357.83C546.569 359.63 551.088 361.032 555.522 362.687C556.081 362.898 556.634 363.108 557.187 363.325C557.463 363.433 557.74 363.542 558.01 363.656C558.13 363.704 558.245 363.752 558.365 363.8C558.395 363.812 558.407 363.818 558.431 363.824C558.443 363.83 558.449 363.83 558.467 363.843C559.585 364.342 560.696 364.842 561.784 365.407C562.83 365.949 563.851 366.533 564.837 367.171C565.329 367.49 565.816 367.821 566.297 368.17C566.435 368.266 566.567 368.368 566.706 368.471C566.718 368.477 566.748 368.507 566.784 368.531C566.808 368.549 566.832 368.573 566.844 368.579C566.988 368.693 567.126 368.814 567.27 368.934C568.088 369.632 568.863 370.39 569.578 371.191C569.752 371.389 569.92 371.588 570.089 371.787C570.161 371.871 570.233 371.961 570.299 372.045C570.389 372.154 570.455 372.184 570.467 372.172C570.732 372.479 570.966 372.96 571.152 373.249C571.747 374.152 572.276 375.091 572.727 376.072C572.787 376.204 572.847 376.342 572.907 376.475C572.925 376.511 572.937 376.535 572.943 376.553C572.937 376.541 572.937 376.529 572.931 376.517C572.955 376.571 572.967 376.595 572.943 376.553C572.997 376.697 573.045 376.848 573.093 376.986C573.28 377.498 573.442 378.022 573.58 378.545C573.706 379.033 573.814 379.52 573.899 380.02C573.911 380.08 573.917 380.14 573.929 380.2C573.953 380.471 573.983 380.748 573.995 381.019C573.989 381.53 573.995 381.994 573.977 382.451ZM562.072 401.842C562.018 401.74 561.958 401.613 561.976 401.613C561.988 401.607 562.03 401.715 562.072 401.842ZM536.924 424.435C536.918 424.447 536.822 424.308 536.756 424.212C536.846 424.314 536.936 424.416 536.924 424.435Z" fill="#231815"/>
</svg>
