<svg width="461" height="407" viewBox="0 0 461 407" fill="none" xmlns="http://www.w3.org/2000/svg">
<path d="M453.378 43.7592C452.73 35.301 452.502 26.5364 450.288 18.3064C448.524 11.7585 443.622 1.63626 435.803 8.20221C429.947 13.1162 428.423 21.9348 427.877 29.1375C427.235 37.6378 427.379 46.2282 427.217 54.7465C426.875 73.321 426.533 91.8895 426.191 110.464C426.167 111.798 425.435 112.675 424.493 113.083C427.019 122.965 428.975 133.003 430.325 143.144C430.835 146.97 424.829 146.922 424.325 143.144C422.351 128.288 418.979 113.612 414.347 99.3626C410.254 86.7833 405.148 74.5525 399.082 62.8023C393.508 52.0133 387.382 40.9959 379.251 31.9009C372.537 24.3918 362.012 15.8855 351.164 17.3753C348.662 17.7177 346.226 18.7629 345.35 21.292C344.384 24.1034 344.978 27.8039 345.458 30.6634C346.562 37.2233 349.22 43.2787 353.078 48.6672C353.48 49.2259 353.642 49.7845 353.63 50.3011C360.92 59.264 367.797 68.6354 374.145 78.253C381.759 89.787 388.503 101.892 393.826 114.663C396.532 121.163 398.848 127.825 400.648 134.631C401.59 138.2 402.394 141.804 403.042 145.438C403.336 147.096 403.6 148.76 403.834 150.43C403.918 151.031 403.996 151.632 404.074 152.233C404.086 152.323 404.098 152.413 404.11 152.503C404.284 152.605 404.446 152.725 404.602 152.851C406.678 154.581 405.964 158.252 403.288 158.913C400.228 159.664 398.674 156.744 398.32 154.251C397.216 146.496 395.758 138.908 393.49 131.399C385.581 105.22 370.491 81.7192 353.846 60.2912C349.814 55.095 345.776 49.8206 341.258 45.0328C336.931 40.4492 331.837 35.9858 325.543 34.5441C323.341 34.0395 318.631 33.4027 316.999 35.6014C315.385 37.776 316.939 43.3448 317.407 45.7477C318.805 52.8843 321.595 59.5343 325.567 65.6077C326.233 66.6289 326.179 67.6261 325.723 68.4131C336.475 81.7372 343.196 98.2512 350.306 113.684C357.902 130.156 364.857 147 369.027 164.704C369.915 168.47 364.124 170.062 363.242 166.302C358.934 147.997 351.638 130.654 343.718 113.666C337.123 99.5307 330.991 84.2062 321.007 72.0595C316.525 66.6049 311.178 61.8411 304.902 58.5551C300.924 56.4706 288.779 50.986 286.349 57.2516C284.333 62.4539 287.249 69.3562 289.637 73.9638C292.386 79.2682 296.01 84.062 299.652 88.7657C306.804 98.0109 314.508 107.514 316.465 119.391C316.705 120.851 315.991 121.986 314.995 122.611C314.953 123.47 314.514 124.299 313.506 124.839C298.518 132.853 287.183 146.652 281.231 162.511C274.169 181.332 274.535 202.039 279.575 221.298C280.553 225.047 274.769 226.633 273.791 222.896C270.713 211.134 269.273 198.759 270.065 186.576C270.041 186.588 270.011 186.606 269.987 186.618C243.046 200.501 216.098 214.39 189.157 228.273C174.793 235.674 160.428 243.081 146.064 250.481C141.617 252.776 137.165 255.065 132.719 257.36C130.949 258.273 128.783 259.889 126.773 260.207C125.339 260.436 123.701 260.093 122.261 260.027C118.522 259.853 114.784 259.769 111.046 259.739C98.5596 259.649 86.0552 260.219 73.6406 261.553C58.526 263.175 43.4354 265.986 28.9749 270.756C19.3805 273.922 9.87609 278.043 1.38574 283.636C5.74792 293.013 9.46207 302.679 12.3302 312.621C20.1545 339.684 22.0325 368.446 18.2884 396.416C37.6572 401.781 58.544 401.817 78.4168 400.129C96.3336 398.609 115.204 395.743 131.873 388.667C135.113 387.291 138.095 385.585 141.053 383.687C148.266 379.049 155.502 374.442 162.738 369.84C176.587 361.039 190.459 352.269 204.254 343.372C230.391 326.522 256.27 309.203 280.925 290.226C293.472 280.572 305.682 270.468 317.437 259.865C323.245 254.62 328.945 249.256 334.519 243.765C337.465 240.864 340.412 237.95 343.25 234.947C345.938 232.105 348.116 228.795 350.648 225.816C355.724 219.838 361.706 215.285 368.757 211.849C375.699 208.461 382.431 205.283 388.761 200.783C394.852 196.452 400.522 191.562 406.438 187.003C411.862 182.822 417.629 179.109 423.053 174.922C425.831 172.777 428.549 170.489 430.913 167.881C432.413 166.229 433.439 164.313 434.795 162.565C438.534 157.723 441.156 152.365 443.508 146.694C449.784 131.58 453.036 115.282 454.308 99.0081C455.724 80.6078 454.788 62.1295 453.378 43.7592Z" fill="#F5B997"/>
<path d="M460.957 74.3297C460.807 65.1085 460.273 55.8933 459.595 46.6962C458.959 38.0998 458.599 29.3412 457.003 20.8529C455.701 13.9205 453.132 5.16798 446.52 1.44947C439.896 -2.27503 432.66 1.72575 428.598 7.24643C423.959 13.5481 422.447 21.4957 421.871 29.137C421.199 38.0277 421.355 47.0206 421.193 55.9354C420.929 70.2267 420.665 84.518 420.401 98.8093C415.907 84.7162 410.195 71.0197 403.27 57.8878C396.874 45.7591 389.698 33.2399 379.671 23.7124C371.685 16.1312 358.731 8.32174 347.282 12.1303C339.458 14.7375 338.366 22.1145 339.254 29.4313C339.53 31.684 339.962 33.9008 340.538 36.0694C333.944 30.4346 325.873 26.2475 317.401 28.6864C309.313 31.0172 310.195 39.0369 311.329 45.7951C312.007 49.844 313.135 53.8089 314.653 57.6235C312.517 56.0255 310.267 54.5897 307.915 53.3522C302.046 50.2705 293.034 46.6962 286.404 49.1532C279.689 51.6402 279.149 59.9182 280.367 65.9014C281.633 72.131 284.634 77.916 288.138 83.1604C295.986 94.9166 307.494 105.351 310.423 119.661C294.3 128.293 282.341 143.095 275.759 160.035C273.323 166.313 271.691 172.825 270.767 179.439C249.448 190.426 228.123 201.413 206.804 212.401C180.313 226.049 153.822 239.704 127.337 253.352C126.875 253.587 126.131 253.839 125.561 254.157C123.347 253.749 120.827 253.929 118.601 253.857C107.416 253.503 96.2079 253.737 85.0475 254.518C68.4928 255.677 51.086 257.858 34.5493 262.489C23.0348 268.563 11.5145 274.636 0 280.716C0.462019 281.677 0.918055 282.65 1.36807 283.617C9.85842 278.024 19.3628 273.897 28.9572 270.737C43.4178 265.968 58.5024 263.162 73.623 261.534C86.0375 260.201 98.542 259.624 111.029 259.72C114.767 259.75 118.505 259.834 122.243 260.008C123.683 260.074 125.321 260.417 126.755 260.189C128.765 259.87 130.931 258.254 132.701 257.341C137.148 255.046 141.6 252.758 146.046 250.463C160.41 243.062 174.775 235.655 189.14 228.254C216.081 214.371 243.028 200.482 269.969 186.6C269.993 186.588 270.023 186.57 270.047 186.558C269.255 198.74 270.695 211.115 273.773 222.877C274.751 226.614 280.541 225.028 279.557 221.28C274.517 202.02 274.157 181.313 281.213 162.492C287.166 146.627 298.5 132.835 313.489 124.821C314.497 124.28 314.935 123.451 314.977 122.592C315.979 121.961 316.693 120.832 316.447 119.372C314.491 107.49 306.786 97.9923 299.634 88.7471C295.992 84.0374 292.368 79.2436 289.62 73.9452C287.232 69.3436 284.316 62.4353 286.332 57.233C288.762 50.9674 300.906 56.452 304.884 58.5365C311.161 61.8225 316.507 66.5863 320.989 72.0409C330.973 84.1936 337.106 99.5182 343.7 113.647C351.626 130.642 358.923 147.979 363.225 166.283C364.107 170.044 369.897 168.452 369.009 164.685C364.845 146.982 357.885 130.137 350.288 113.665C343.178 98.2386 336.452 81.7246 325.705 68.3945C326.161 67.6075 326.215 66.6104 325.549 65.5891C321.577 59.5098 318.793 52.8597 317.389 45.729C316.915 43.3261 315.367 37.7574 316.981 35.5828C318.613 33.3841 323.323 34.0209 325.525 34.5255C331.82 35.9672 336.914 40.4307 341.24 45.0142C345.758 49.802 349.796 55.0763 353.828 60.2726C370.473 81.7066 385.564 105.207 393.472 131.381C395.74 138.89 397.198 146.483 398.302 154.232C398.656 156.731 400.21 159.645 403.27 158.894C405.946 158.239 406.667 154.563 404.585 152.833C404.429 152.701 404.26 152.586 404.092 152.484C404.08 152.394 404.068 152.304 404.056 152.214C403.978 151.613 403.9 151.012 403.816 150.412C403.582 148.742 403.318 147.078 403.024 145.42C402.376 141.785 401.572 138.181 400.63 134.613C398.83 127.806 396.52 121.144 393.808 114.644C388.486 101.873 381.742 89.7684 374.127 78.2344C367.779 68.6167 360.903 59.2454 353.612 50.2825C353.624 49.7659 353.462 49.2133 353.06 48.6486C349.208 43.254 346.544 37.2047 345.44 30.6448C344.96 27.7853 344.36 24.0849 345.332 21.2735C346.202 18.7444 348.638 17.6991 351.146 17.3567C362.001 15.8669 372.525 24.3792 379.233 31.8823C387.364 40.9773 393.496 51.9946 399.064 62.7837C405.136 74.5339 410.237 86.7647 414.329 99.3439C418.967 113.593 422.339 128.269 424.307 143.125C424.811 146.904 430.818 146.952 430.307 143.125C428.963 132.985 427.007 122.946 424.475 113.065C425.417 112.65 426.149 111.779 426.173 110.445C426.515 91.8709 426.857 73.3024 427.199 54.7279C427.355 46.2096 427.217 37.6192 427.859 29.1189C428.405 21.9162 429.924 13.0976 435.786 8.1836C443.604 1.62366 448.506 11.7459 450.27 18.2878C452.484 26.5178 452.712 35.2824 453.36 43.7406C454.77 62.1048 455.706 80.5893 454.266 98.9835C452.994 115.257 449.742 131.549 443.466 146.669C441.108 152.34 438.492 157.705 434.754 162.54C433.404 164.295 432.372 166.205 430.871 167.857C428.507 170.464 425.789 172.753 423.011 174.897C417.593 179.084 411.827 182.791 406.397 186.978C400.48 191.538 394.81 196.427 388.72 200.759C382.389 205.258 375.663 208.436 368.715 211.824C361.671 215.26 355.688 219.814 350.606 225.791C348.074 228.777 345.896 232.081 343.208 234.922C340.37 237.926 337.418 240.839 334.478 243.741C328.903 249.231 323.203 254.602 317.395 259.84C305.64 270.443 293.43 280.547 280.883 290.201C256.222 309.178 230.343 326.491 204.212 343.347C190.418 352.238 176.545 361.009 162.697 369.815C155.46 374.417 148.224 379.024 141.012 383.662C138.06 385.56 135.071 387.266 131.831 388.642C115.163 395.719 96.2918 398.584 78.3751 400.104C58.5023 401.792 37.6095 401.762 18.2467 396.391C17.9707 398.458 17.6586 400.525 17.3166 402.585C30.0311 406.063 43.7537 406.91 56.4502 406.994C77.3191 407.132 98.596 404.748 118.769 399.311C126.143 397.323 133.661 394.926 140.34 391.147C146.682 387.555 152.706 383.284 158.856 379.367C166.123 374.735 173.395 370.128 180.667 365.508C234.981 331.002 289.392 295.86 335.786 250.859C338.744 247.988 341.672 245.086 344.558 242.143C347.6 239.043 350.18 235.841 352.88 232.447C358.191 225.773 364.059 220.763 371.745 217.008C378.981 213.482 385.942 210.142 392.5 205.402C398.728 200.903 404.554 195.875 410.657 191.213C420.623 183.608 432.048 177.306 438.99 166.788C440.028 165.214 441.408 163.862 442.458 162.294C444.768 158.858 446.478 154.713 448.116 150.928C451.452 143.227 454.068 135.249 455.995 127.08C460.093 109.845 461.251 92.0211 460.957 74.3297Z" fill="#231815"/>
</svg>
