<svg width="580" height="467" viewBox="0 0 580 467" fill="none" xmlns="http://www.w3.org/2000/svg">
<path d="M560.166 312.343C556.499 309.359 553.106 306.048 549.809 302.657C541.914 294.534 534.578 285.888 526.684 277.765C519.509 270.373 511.82 262.988 502.613 258.219C497.673 255.66 492.441 254.733 487.039 253.642C479.748 252.171 472.463 250.693 465.171 249.222C449.868 246.126 434.559 243.03 419.256 239.934C415.61 239.198 411.965 238.456 408.325 237.721C405.013 237.052 401.106 236.938 398.522 234.632C392.738 229.459 387.142 224.056 381.443 218.792C370.311 208.502 359.142 198.255 347.937 188.045C325.249 167.38 302.415 146.886 279.429 126.555C256.752 106.505 233.978 86.5652 210.967 66.8987C189.518 48.5681 167.214 30.6201 141.418 18.8311C116.906 7.62237 88.5163 2.12147 62.1504 9.62052C39.687 16.0041 19.1015 31.5625 10.8822 54.0989C2.10973 78.1511 7.26501 105.523 19.4117 127.434C32.338 150.76 52.6489 168.986 73.5989 184.904C119.075 219.449 168.617 248.506 218.895 275.328C244.283 288.871 269.973 301.829 295.749 314.605C308.686 321.017 321.932 326.985 334.667 333.781C337.561 335.325 339.149 339.152 340.896 341.859C342.571 344.444 344.245 347.028 345.926 349.607C349.565 355.172 353.253 360.713 357.019 366.194C372.207 388.262 389.031 409.51 409.834 426.518C422.184 436.62 438.478 441.191 453.873 444.007C470.073 446.977 487.414 448.127 503.718 445.237C509.583 444.197 515.685 442.67 520.717 439.339C522.839 437.935 524.41 436.305 525.315 434.382C523.369 435.165 521.388 435.863 519.388 436.475C510.747 439.131 501.641 440.41 492.621 440.715C483.34 441.032 473.928 440.264 464.887 438.084C456.724 436.112 448.769 432.867 442.185 427.541C440.866 426.474 441.178 424.342 442.191 423.235C443.38 421.934 445.239 422.247 446.474 423.241C446.552 423.302 446.631 423.369 446.71 423.43C446.825 423.516 446.94 423.607 447.055 423.692C447.393 423.949 447.738 424.193 448.089 424.437C449.602 425.486 451.182 426.427 452.81 427.281C453.67 427.727 454.542 428.149 455.42 428.552C455.644 428.656 455.868 428.753 456.092 428.851C456.2 428.9 456.322 428.943 456.431 428.998C456.4 428.979 456.376 428.973 456.352 428.961C456.309 428.943 456.267 428.924 456.225 428.906C456.061 428.839 455.771 428.674 456.352 428.961C456.739 429.12 457.133 429.279 457.52 429.431C461.347 430.923 465.319 432.024 469.334 432.846C470.4 433.06 471.466 433.263 472.538 433.441C473.077 433.533 473.622 433.619 474.161 433.699C474.409 433.736 474.657 433.772 474.899 433.803C474.966 433.809 475.027 433.822 475.093 433.828C477.304 434.117 479.521 434.327 481.75 434.47C486.171 434.756 490.617 434.768 495.04 434.518C497.196 434.399 499.353 434.219 501.504 433.972C502.067 433.906 502.63 433.834 503.194 433.768C503.248 433.762 503.309 433.75 503.364 433.744C503.636 433.707 503.909 433.665 504.175 433.629C505.248 433.472 506.32 433.297 507.393 433.103C511.422 432.378 515.409 431.409 519.293 430.122C520.196 429.825 521.093 429.51 521.978 429.176C522.457 428.994 522.93 428.812 523.402 428.617C523.596 428.539 523.784 428.46 523.978 428.381C523.978 428.381 523.978 428.381 523.99 428.381C525.827 427.573 527.615 426.686 529.373 425.72C531.537 424.529 533.653 423.241 535.665 421.8C535.987 421.569 536.308 421.332 536.624 421.095C536.63 421.095 536.642 421.083 536.654 421.071C536.727 421.016 536.824 420.937 536.854 420.912C537.315 420.542 537.776 420.165 538.218 419.775C539.164 418.948 540.062 418.079 540.911 417.154C541.33 416.692 541.724 416.217 542.125 415.736C542.137 415.718 542.155 415.7 542.173 415.682C542.234 415.596 542.295 415.511 542.355 415.432C542.513 415.213 542.671 414.994 542.823 414.769C543.527 413.741 544.146 412.657 544.674 411.531C544.705 411.464 544.759 411.379 544.808 411.288C544.82 411.251 544.844 411.178 544.899 411.044C545.002 410.764 545.112 410.49 545.203 410.21C545.385 409.668 545.538 409.114 545.647 408.554C545.654 408.518 545.69 408.268 545.702 408.183C545.715 407.994 545.733 407.811 545.739 407.622C545.74 407.391 545.74 407.16 545.728 406.928C545.728 406.91 545.728 406.892 545.728 406.873C545.68 406.751 545.656 406.66 545.644 406.587C545.584 406.331 545.548 406.045 545.475 405.813C545.475 405.801 545.463 405.783 545.457 405.765C545.421 405.691 545.385 405.612 545.349 405.539C545.27 405.387 545.179 405.246 545.089 405.1C545.016 405.021 544.956 404.954 544.913 404.905C542.252 406.187 539.507 407.304 536.677 408.268C527.768 411.308 518.311 412.806 508.921 413.104C499.441 413.408 489.835 412.433 480.637 410.07C472.074 407.872 463.647 404.389 456.433 399.19C455.054 398.196 454.523 396.593 455.355 395.023C456.071 393.66 458.21 393.005 459.499 393.938C460.316 394.524 461.145 395.092 461.993 395.635C463.718 396.746 465.503 397.759 467.331 398.693C468.264 399.17 469.208 399.622 470.165 400.049C470.407 400.159 470.649 400.263 470.885 400.373C471.006 400.428 471.127 400.477 471.248 400.532C471.751 400.752 471.103 400.489 471.073 400.458C471.357 400.757 472.174 400.911 472.55 401.063C476.582 402.664 480.748 403.906 484.981 404.856C487.173 405.346 489.383 405.757 491.6 406.083C491.909 406.126 492.23 406.205 492.545 406.218C491.666 406.174 492.593 406.218 492.793 406.249C493.32 406.317 493.847 406.378 494.38 406.44C495.512 406.569 496.645 406.674 497.778 406.761C502.338 407.114 506.924 407.163 511.492 406.901C513.763 406.77 516.035 406.566 518.295 406.277C518.416 406.265 518.531 406.246 518.652 406.228C518.931 406.186 519.21 406.15 519.488 406.108C520.01 406.029 520.537 405.951 521.058 405.86C522.166 405.679 523.275 405.473 524.372 405.255C528.65 404.39 532.873 403.226 536.97 401.709C537.94 401.351 539.061 401.042 539.958 400.525C539.2 400.957 540.109 400.459 540.334 400.355C540.546 400.264 540.758 400.167 540.97 400.07C541.419 399.863 541.867 399.657 542.316 399.444C544.189 398.545 546.019 397.561 547.795 396.486C548.668 395.957 549.523 395.404 550.366 394.832C551.1 394.328 551.803 393.72 552.555 393.227C552.415 393.306 552.361 393.331 552.791 393.069C552.913 392.972 553.04 392.875 553.161 392.777C553.416 392.577 553.671 392.37 553.925 392.163C554.398 391.774 554.871 391.385 555.338 390.984C556.333 390.132 557.303 389.244 558.225 388.314C559.092 387.438 559.923 386.513 560.688 385.54C560.773 385.418 561.052 385.047 561.119 384.949C561.301 384.688 561.483 384.42 561.653 384.152C561.975 383.647 562.284 383.13 562.564 382.6C562.734 382.284 562.892 381.961 563.043 381.633C563.062 381.596 563.11 381.493 563.147 381.414C563.153 381.395 563.165 381.377 563.165 381.365C563.396 380.774 563.615 380.178 563.773 379.563C563.822 379.38 563.858 379.198 563.895 379.015C563.895 379.015 563.895 378.997 563.895 378.99C563.871 379.039 563.956 378.497 563.962 378.388C564 377.803 563.988 377.212 563.94 376.621C563.929 376.487 563.917 376.347 563.899 376.213C563.85 375.976 563.82 375.738 563.766 375.5C563.652 374.952 563.513 374.41 563.357 373.874C563.206 373.368 563.037 372.868 562.85 372.375C562.777 372.186 562.693 371.991 562.62 371.802C562.644 371.875 562.662 371.93 562.675 371.973C562.723 372.107 562.741 372.18 562.675 371.973C562.656 371.924 562.638 371.863 562.614 371.808C559.838 373.601 556.898 375.108 553.837 376.413C549.346 378.326 544.746 379.921 540.002 381.072C530.973 383.259 521.547 384.002 512.298 383.064C502.929 382.113 493.852 379.592 485.359 375.494C476.871 371.39 469.15 365.654 462.653 358.806C461.485 357.574 461.524 355.735 462.659 354.5C463.75 353.308 465.846 353.353 466.941 354.506C467.728 355.335 468.526 356.146 469.349 356.939C470.964 358.506 472.652 360.001 474.401 361.416C474.637 361.611 474.879 361.801 475.121 361.996C475.151 362.02 475.242 362.087 475.309 362.142C475.315 362.142 475.321 362.154 475.327 362.154C475.75 362.478 476.18 362.801 476.61 363.118C477.499 363.771 478.401 364.406 479.321 365.022C482.976 367.469 486.844 369.594 490.87 371.366C490.973 371.408 491.076 371.457 491.179 371.5C491.252 371.476 491.379 371.531 491.433 371.574C491.621 371.653 491.839 371.781 491.899 371.799C492.347 371.983 492.795 372.16 493.25 372.337C494.291 372.741 495.338 373.12 496.398 373.474C498.438 374.159 500.509 374.765 502.598 375.273C504.688 375.781 506.801 376.211 508.927 376.542C509.217 376.585 509.514 376.634 509.805 376.677C509.884 376.69 509.962 376.702 510.041 376.708C510.544 376.77 511.04 376.837 511.543 376.893C512.615 377.01 513.687 377.109 514.765 377.183C519.096 377.488 523.451 377.426 527.771 377.012C528.371 376.958 528.97 376.892 529.57 376.819C529.794 376.795 530.019 376.765 530.243 376.735C530.328 376.723 530.406 376.711 530.491 376.705C530.515 376.705 530.533 376.705 530.564 376.693C531.612 376.542 532.66 376.379 533.708 376.185C535.926 375.786 538.125 375.29 540.301 374.708C542.464 374.132 544.603 373.465 546.718 372.713C547.785 372.336 548.839 371.936 549.888 371.511C550.179 371.396 550.47 371.274 550.761 371.159C550.839 371.129 550.918 371.092 550.997 371.062C551.003 371.062 551.003 371.062 551.015 371.056C551.518 370.831 552.027 370.618 552.53 370.388C554.5 369.501 556.422 368.511 558.271 367.399C559.21 366.834 560.126 366.238 561.023 365.612C561.272 365.435 561.514 365.259 561.757 365.083C561.805 365.046 562.108 364.815 562.212 364.736C562.339 364.633 562.515 364.493 562.557 364.457C562.757 364.292 562.957 364.122 563.158 363.958C563.964 363.265 564.74 362.541 565.468 361.768C565.863 361.349 566.239 360.923 566.603 360.479C566.639 360.43 566.682 360.381 566.718 360.333C566.827 360.162 566.973 359.998 567.088 359.834C567.665 359.018 568.181 358.16 568.618 357.266C568.685 357.132 568.746 356.992 568.806 356.858C568.873 356.675 568.946 356.493 569.013 356.31C569.171 355.866 569.305 355.415 569.415 354.952C569.476 354.69 569.536 354.429 569.585 354.161C569.597 354.1 569.61 354.033 569.616 353.972C569.653 353.521 569.69 353.077 569.696 352.626C569.697 352.346 569.697 352.066 569.679 351.785C569.673 351.645 569.565 351.195 569.614 351.061C569.602 350.969 569.584 350.878 569.565 350.787C569.511 350.506 569.451 350.232 569.379 349.958C569.3 349.647 569.204 349.343 569.101 349.038C569.071 348.953 568.914 348.544 568.878 348.447C568.805 348.307 568.745 348.16 568.673 348.02C568.546 347.77 568.413 347.533 568.274 347.289C568.117 347.015 567.947 346.746 567.766 346.484C567.76 346.472 567.748 346.454 567.736 346.442C562.027 348.413 555.922 347.808 550.054 346.595C545.07 345.565 540.517 343.896 536.219 341.716C536.195 341.722 536.17 341.734 536.146 341.746C530.989 343.512 525.591 344.248 520.183 343.492C511.189 342.237 503.843 336.234 498.425 329.217C491.356 320.072 486.524 309.401 482.17 298.73C478.684 296.716 475.009 295.085 471.091 294.129C467.3 293.205 468.919 287.336 472.71 288.26C481.878 290.495 489.8 296.048 497.025 301.935C505.539 308.872 513.264 316.714 521.535 323.936C528.814 330.293 536.91 336.893 546.386 339.494C552.514 341.177 559.599 342.837 565.805 340.702C572.235 338.487 574.89 332.388 572.615 325.99C570.454 319.902 564.91 316.21 560.142 312.33L560.166 312.343Z" fill="#F5B997"/>
<path d="M559.343 303.544C551.109 295.798 543.773 287.133 536.084 278.858C528.523 270.717 520.628 262.618 511.387 256.387C507.344 253.659 502.955 251.326 498.287 249.895C491.65 247.852 484.528 246.947 477.733 245.573C462.061 242.403 446.394 239.233 430.721 236.063C422.703 234.438 414.685 232.82 406.667 231.195C404.899 230.839 403.415 230.715 402.005 229.58C400.577 228.434 399.283 227.049 397.946 225.805C394.969 223.036 391.986 220.273 388.997 217.51C365.662 195.911 342.162 174.49 318.499 153.25C294.835 132.011 271.014 110.954 247.035 90.0796C224.575 70.5289 202.401 50.193 177.987 33.1064C154.257 16.4897 127.367 3.43165 98.2643 0.614968C72.9594 -1.83114 46.916 4.71751 27.1656 21.2023C7.28188 37.7904 -1.66116 63.0481 0.910567 88.6563C3.60196 115.416 16.9039 139.108 34.8331 158.604C53.839 179.27 77.2239 195.71 100.246 211.485C124.945 228.408 150.475 244.083 176.467 258.906C202.513 273.759 229.026 287.755 255.74 301.343C268.955 308.06 282.219 314.68 295.5 321.258C302.22 324.58 308.939 327.896 315.665 331.206C318.788 332.745 321.918 334.285 325.042 335.818C326.604 336.587 328.165 337.357 329.733 338.12C330.399 338.45 331.417 338.744 331.985 339.225C332.633 339.768 333.092 340.938 333.563 341.67C348.592 364.974 363.899 388.316 382.59 408.866C390.974 418.087 400.097 427.418 410.367 434.527C416.91 439.055 424.392 442.22 431.9 444.733C449.09 450.488 467.671 453.071 485.765 452.858C493.737 452.765 501.812 452.094 509.592 450.259C515.561 448.848 521.682 446.676 526.424 442.644C529.874 439.713 532.109 435.611 532.26 431.099C536.479 428.79 540.559 426.109 543.998 422.734C547.91 418.902 551.327 413.772 551.8 408.176C551.985 405.99 551.443 403.827 550.312 402.022C554.016 399.823 557.514 397.263 560.765 394.326C562.888 392.41 564.817 390.293 566.455 387.938C568.003 385.705 569.381 383.027 569.839 380.324C570.547 376.153 569.486 371.9 567.638 368.133C570.694 365.464 573.236 362.252 574.725 358.423C576.549 353.723 576.004 348.204 573.369 343.925C573.302 343.815 573.23 343.712 573.157 343.602C576.862 340.769 579.284 336.6 579.545 331.673C580.265 318.202 567.801 311.492 559.337 303.538L559.343 303.544ZM544.891 411.193C544.909 411.145 544.927 411.096 544.94 411.06C544.927 411.096 544.909 411.145 544.891 411.193ZM565.838 340.724C559.632 342.859 552.547 341.199 546.419 339.516C536.948 336.914 528.846 330.313 521.567 323.957C513.296 316.735 505.571 308.898 497.057 301.955C489.832 296.068 481.916 290.515 472.741 288.28C468.957 287.355 467.332 293.224 471.123 294.149C475.047 295.104 478.721 296.729 482.202 298.75C486.555 309.414 491.388 320.091 498.457 329.237C503.882 336.248 511.222 342.258 520.215 343.512C525.624 344.263 531.022 343.527 536.179 341.768C536.203 341.761 536.227 341.749 536.252 341.737C540.55 343.917 545.103 345.586 550.087 346.616C555.955 347.824 562.06 348.429 567.769 346.463C567.781 346.476 567.793 346.494 567.799 346.506C567.974 346.768 568.143 347.036 568.307 347.311C568.446 347.548 568.579 347.792 568.705 348.042C568.778 348.182 568.844 348.329 568.911 348.469C568.947 348.572 569.104 348.975 569.134 349.06C569.237 349.365 569.327 349.669 569.412 349.98C569.484 350.254 569.544 350.528 569.598 350.808C569.616 350.9 569.628 350.991 569.646 351.083C569.598 351.217 569.706 351.667 569.712 351.807C569.73 352.088 569.736 352.368 569.729 352.648C569.729 353.099 569.686 353.549 569.649 353.994C569.637 354.055 569.63 354.122 569.618 354.183C569.569 354.451 569.515 354.712 569.448 354.974C569.338 355.431 569.198 355.887 569.046 356.332C568.979 356.514 568.906 356.697 568.839 356.88C568.773 357.014 568.712 357.154 568.651 357.288C568.214 358.188 567.698 359.046 567.121 359.856C567.006 360.02 566.86 360.184 566.751 360.355C566.715 360.403 566.672 360.452 566.636 360.501C566.272 360.945 565.89 361.371 565.502 361.79C564.774 362.563 563.997 363.293 563.191 363.98C562.991 364.15 562.791 364.314 562.59 364.478C562.548 364.515 562.372 364.655 562.245 364.758C562.136 364.837 561.839 365.068 561.79 365.105C561.548 365.281 561.305 365.457 561.056 365.634C560.159 366.266 559.244 366.861 558.304 367.42C556.449 368.533 554.528 369.517 552.564 370.409C552.061 370.634 551.558 370.852 551.049 371.077C551.043 371.077 551.036 371.077 551.03 371.083C550.952 371.114 550.873 371.15 550.794 371.18C550.503 371.302 550.212 371.417 549.921 371.532C548.873 371.951 547.812 372.352 546.752 372.734C544.643 373.486 542.498 374.153 540.334 374.729C538.159 375.311 535.959 375.801 533.742 376.206C532.7 376.394 531.646 376.557 530.597 376.714C530.567 376.714 530.549 376.72 530.525 376.726C530.44 376.738 530.361 376.75 530.276 376.756C530.052 376.786 529.828 376.81 529.604 376.84C529.004 376.913 528.404 376.973 527.804 377.033C523.485 377.441 519.13 377.502 514.799 377.204C513.721 377.129 512.649 377.03 511.577 376.913C511.074 376.858 510.577 376.79 510.075 376.729C509.996 376.716 509.917 376.704 509.839 376.698C509.542 376.655 509.251 376.612 508.96 376.563C506.835 376.231 504.721 375.808 502.632 375.293C500.543 374.785 498.472 374.179 496.431 373.494C495.372 373.14 494.324 372.761 493.283 372.357C492.829 372.18 492.381 372.003 491.933 371.819C491.878 371.795 491.654 371.673 491.467 371.593C491.515 371.63 491.503 371.648 491.315 371.569C491.279 371.557 491.249 371.538 491.212 371.526C491.11 371.483 491.007 371.434 490.904 371.392C486.878 369.62 483.01 367.495 479.354 365.048C478.434 364.432 477.533 363.797 476.643 363.144C476.213 362.827 475.784 362.503 475.36 362.18C475.36 362.18 475.348 362.174 475.342 362.168C475.275 362.113 475.191 362.046 475.154 362.021C474.912 361.832 474.67 361.637 474.434 361.442C472.685 360.026 470.997 358.532 469.382 356.964C468.559 356.172 467.761 355.354 466.974 354.531C465.879 353.378 463.783 353.333 462.692 354.525C461.557 355.76 461.519 357.599 462.686 358.831C469.183 365.68 476.905 371.421 485.392 375.52C493.885 379.624 502.962 382.14 512.332 383.09C521.581 384.028 531.007 383.286 540.035 381.099C544.78 379.949 549.379 378.353 553.871 376.441C556.937 375.135 559.871 373.623 562.648 371.836C562.666 371.891 562.69 371.952 562.708 372C562.696 371.958 562.678 371.903 562.654 371.83C562.726 372.025 562.811 372.214 562.883 372.403C563.07 372.896 563.239 373.396 563.39 373.902C563.547 374.438 563.685 374.98 563.8 375.528C563.848 375.766 563.884 376.004 563.932 376.241C563.944 376.375 563.962 376.515 563.974 376.649C564.022 377.234 564.027 377.825 563.996 378.416C563.99 378.525 563.904 379.061 563.929 379.018C563.929 379.024 563.929 379.037 563.929 379.043C563.892 379.225 563.849 379.408 563.807 379.591C563.648 380.206 563.43 380.802 563.199 381.393C563.199 381.405 563.187 381.417 563.18 381.441C563.144 381.521 563.095 381.624 563.077 381.661C562.925 381.989 562.767 382.306 562.597 382.628C562.318 383.158 562.008 383.675 561.687 384.18C561.511 384.448 561.335 384.716 561.153 384.977C561.086 385.075 560.807 385.446 560.722 385.567C559.957 386.541 559.126 387.466 558.259 388.341C557.337 389.272 556.367 390.16 555.372 391.011C554.905 391.413 554.432 391.802 553.959 392.191C553.705 392.398 553.45 392.598 553.195 392.805C553.074 392.902 552.947 393 552.825 393.097C552.831 393.097 552.837 393.091 552.844 393.085C552.831 393.085 552.825 393.097 552.813 393.103C552.753 393.152 552.662 393.206 552.589 393.249C551.837 393.735 551.14 394.349 550.4 394.854C549.557 395.431 548.703 395.978 547.83 396.507C546.053 397.589 544.223 398.573 542.35 399.466C541.901 399.678 541.453 399.891 541.004 400.091C540.792 400.188 540.58 400.279 540.368 400.377C540.144 400.474 539.234 400.978 539.992 400.547C539.089 401.063 537.974 401.366 537.004 401.73C532.907 403.247 528.684 404.417 524.406 405.276C523.303 405.5 522.201 405.699 521.092 405.881C520.571 405.965 520.044 406.05 519.523 406.128C519.244 406.171 518.965 406.207 518.687 406.249C518.566 406.267 518.45 406.279 518.329 406.297C516.07 406.58 513.798 406.79 511.526 406.921C506.958 407.183 502.373 407.134 497.812 406.781C496.679 406.694 495.541 406.583 494.414 406.46C493.887 406.398 493.354 406.337 492.827 406.269C492.628 406.244 491.701 406.194 492.579 406.238C492.264 406.225 491.943 406.146 491.634 406.103C489.412 405.771 487.207 405.36 485.015 404.876C480.782 403.932 476.616 402.684 472.584 401.083C472.203 400.93 471.385 400.777 471.107 400.478C471.137 400.514 471.785 400.771 471.282 400.551C471.161 400.496 471.04 400.447 470.919 400.392C470.677 400.288 470.435 400.178 470.199 400.068C469.242 399.635 468.298 399.183 467.366 398.712C465.537 397.784 463.752 396.765 462.027 395.654C461.179 395.111 460.35 394.543 459.533 393.957C458.238 393.024 456.105 393.685 455.389 395.042C454.563 396.612 455.094 398.215 456.468 399.209C463.681 404.408 472.103 407.885 480.671 410.089C489.869 412.453 499.475 413.428 508.956 413.124C518.345 412.826 527.803 411.329 536.711 408.289C539.535 407.325 542.287 406.208 544.948 404.926C544.984 404.969 545.044 405.036 545.123 405.121C545.123 405.121 545.123 405.109 545.117 405.109C545.117 405.103 545.105 405.097 545.099 405.085C545.05 405.03 545.002 404.981 544.96 404.926C544.96 404.926 544.966 404.926 544.972 404.926C545.014 404.975 545.062 405.03 545.099 405.091C545.153 405.158 545.214 405.225 545.268 405.286C545.208 405.225 545.165 405.176 545.123 405.128C545.214 405.268 545.304 405.414 545.383 405.566C545.425 405.64 545.455 405.713 545.492 405.792C545.498 405.81 545.504 405.828 545.51 405.841C545.576 406.072 545.618 406.352 545.678 406.614C545.654 406.426 545.727 406.407 545.739 406.627C545.739 406.712 545.751 406.803 545.757 406.889C545.769 406.913 545.775 406.943 545.781 406.968C545.769 406.943 545.763 406.925 545.757 406.901C545.757 406.919 545.757 406.937 545.757 406.956C545.768 407.187 545.774 407.418 545.768 407.65C545.768 407.839 545.749 408.021 545.731 408.21C545.712 408.295 545.682 408.545 545.676 408.582C545.566 409.142 545.414 409.696 545.231 410.238C545.14 410.518 545.031 410.798 544.928 411.072C544.873 411.212 544.848 411.279 544.836 411.315C544.788 411.406 544.733 411.498 544.703 411.559C544.174 412.685 543.549 413.768 542.851 414.796C542.699 415.021 542.542 415.24 542.384 415.46C542.323 415.539 542.262 415.624 542.202 415.709C542.184 415.733 542.165 415.752 542.153 415.764C541.759 416.244 541.358 416.719 540.94 417.181C540.097 418.106 539.193 418.982 538.247 419.803C537.798 420.192 537.343 420.569 536.883 420.94C536.846 420.964 536.749 421.043 536.682 421.098C536.67 421.11 536.658 421.116 536.652 421.122C536.331 421.359 536.016 421.596 535.694 421.827C533.681 423.268 531.566 424.556 529.401 425.747C527.644 426.713 525.856 427.606 524.019 428.408C524.019 428.408 524.019 428.408 524.007 428.408C523.813 428.486 523.625 428.565 523.431 428.644C522.958 428.832 522.486 429.021 522.007 429.203C521.116 429.536 520.219 429.852 519.322 430.149C515.438 431.435 511.445 432.404 507.422 433.13C506.349 433.323 505.277 433.498 504.204 433.655C503.932 433.697 503.659 433.734 503.393 433.77C503.338 433.776 503.277 433.788 503.223 433.794C502.66 433.866 502.096 433.939 501.533 433.999C499.382 434.246 497.231 434.425 495.069 434.544C490.64 434.788 486.2 434.776 481.779 434.496C479.556 434.353 477.333 434.143 475.122 433.853C475.056 433.847 474.995 433.835 474.929 433.829C474.68 433.792 474.432 433.761 474.19 433.724C473.651 433.644 473.106 433.558 472.567 433.466C471.495 433.288 470.429 433.092 469.363 432.871C465.342 432.049 461.376 430.942 457.549 429.457C457.156 429.304 456.768 429.145 456.381 428.986C456.411 428.998 456.429 429.01 456.459 429.023C456.35 428.968 456.229 428.925 456.12 428.876C455.896 428.778 455.672 428.68 455.448 428.577C454.565 428.18 453.693 427.758 452.839 427.306C451.211 426.458 449.625 425.511 448.118 424.462C447.767 424.218 447.422 423.974 447.083 423.717C446.968 423.632 446.853 423.546 446.738 423.455C446.66 423.394 446.581 423.327 446.502 423.266C445.268 422.271 443.409 421.958 442.22 423.26C441.207 424.367 440.895 426.498 442.214 427.566C448.792 432.886 456.753 436.137 464.916 438.109C473.957 440.289 483.369 441.057 492.65 440.741C501.67 440.437 510.776 439.158 519.417 436.502C521.417 435.889 523.399 435.192 525.344 434.409C524.445 436.332 522.874 437.956 520.746 439.366C515.708 442.697 509.612 444.224 503.747 445.263C487.443 448.152 470.108 447.002 453.902 444.032C438.502 441.21 422.213 436.638 409.863 426.542C389.059 409.533 372.235 388.285 357.047 366.216C353.274 360.736 349.592 355.194 345.953 349.629C344.266 347.05 342.591 344.472 340.923 341.881C339.17 339.174 337.581 335.347 334.694 333.802C321.958 327 308.712 321.032 295.775 314.625C269.999 301.849 244.308 288.89 218.92 275.347C168.642 248.529 119.093 219.465 73.6215 184.919C52.671 169.006 32.3596 150.774 19.4328 127.448C7.26735 105.524 2.11136 78.1517 10.8832 54.0997C19.1019 31.5636 39.687 16.0057 62.1503 9.62276C88.522 2.12442 116.906 7.62607 141.418 18.8293C167.214 30.619 189.525 48.5738 210.969 66.8988C233.98 86.5599 256.761 106.501 279.432 126.557C302.418 146.882 325.259 167.383 347.942 188.049C359.147 198.26 370.316 208.507 381.448 218.797C387.147 224.067 392.744 229.471 398.528 234.637C401.105 236.943 405.012 237.058 408.331 237.726C411.977 238.462 415.622 239.204 419.262 239.94C434.565 243.036 449.874 246.132 465.177 249.229C472.469 250.707 479.754 252.178 487.045 253.65C492.447 254.741 497.68 255.668 502.619 258.227C511.832 262.996 519.516 270.388 526.691 277.773C534.579 285.897 541.922 294.543 549.816 302.666C553.107 306.057 556.507 309.369 560.174 312.352C564.942 316.232 570.486 319.918 572.647 326.012C574.916 332.41 572.267 338.509 565.838 340.724ZM569.713 351.406C569.713 351.406 569.713 351.399 569.713 351.381C569.713 351.399 569.713 351.406 569.713 351.406ZM503.054 325.321C503.054 325.321 503.042 325.302 503.036 325.296C502.999 325.248 502.963 325.205 502.927 325.156C502.848 325.053 502.812 324.955 502.842 324.973C502.576 324.583 502.225 324.211 501.959 323.845C501.24 322.846 500.544 321.821 499.879 320.785C498.447 318.566 497.123 316.287 495.872 313.964C494.343 311.124 492.923 308.217 491.582 305.286C493.41 306.75 495.189 308.257 496.919 309.763C505.493 317.218 513.466 325.365 522.319 332.503C524.48 334.242 526.658 335.871 528.879 337.372C528.57 337.427 528.261 337.493 527.946 337.542C527.934 337.542 527.928 337.542 527.922 337.542C527.886 337.542 527.849 337.548 527.801 337.554C527.571 337.578 527.34 337.602 527.116 337.626C526.553 337.68 525.989 337.716 525.426 337.733C524.414 337.768 523.403 337.749 522.397 337.668C522.155 337.65 521.919 337.625 521.677 337.6C521.61 337.594 521.543 337.588 521.477 337.576C521.029 337.502 520.587 337.434 520.138 337.342C519.169 337.14 518.219 336.883 517.28 336.565C516.863 336.424 516.451 336.271 516.039 336.106C515.979 336.082 515.924 336.058 515.864 336.033C515.664 335.942 515.458 335.856 515.258 335.758C514.356 335.331 513.472 334.848 512.625 334.323C511.796 333.811 510.997 333.261 510.222 332.676C510.198 332.657 510.174 332.639 510.156 332.627C510.125 332.602 510.095 332.578 510.053 332.541C509.877 332.401 509.708 332.261 509.539 332.121C509.103 331.761 508.679 331.389 508.268 331.004C506.646 329.516 505.152 327.888 503.761 326.181C503.586 325.961 503.411 325.742 503.235 325.522C503.175 325.449 503.114 325.37 503.06 325.296C503.06 325.303 503.06 325.309 503.072 325.315L503.054 325.321ZM518.869 406.213C518.832 406.213 518.796 406.225 518.766 406.225C518.814 406.219 518.856 406.213 518.869 406.213Z" fill="#231815"/>
</svg>
