<svg width="1600" height="1017" viewBox="0 0 1600 1017" fill="none" xmlns="http://www.w3.org/2000/svg">
<path d="M1404.99 56.0924C1407.19 55.0047 1409.41 53.929 1411.62 52.8533C1410.96 52.3065 1410.41 51.6154 1410.06 50.8462C1408.87 48.2562 1409.61 45.4078 1411.75 43.5569C1413.58 41.9764 1415.86 41.2433 1418.07 40.39C1418.33 40.2938 1418.58 40.1917 1418.84 40.0895C1418.92 40.0534 1419.04 40.0054 1419.1 39.9754C1419.59 39.753 1420.08 39.5126 1420.55 39.2482C1420.84 39.0859 1421.13 38.9117 1421.4 38.7194C1421.46 38.6833 1421.68 38.485 1421.76 38.4249C1422.01 38.1905 1422.25 37.9442 1422.49 37.6918C1422.57 37.5896 1422.63 37.4875 1422.7 37.3793C1422.81 37.193 1422.91 36.9947 1423.02 36.8024C1423.06 36.7423 1423.08 36.7063 1423.1 36.6702C1423.14 36.538 1423.17 36.3997 1423.19 36.3096C1423.2 36.2615 1423.24 36.1594 1423.27 36.0573C1423.27 36.0332 1423.28 35.9671 1423.28 35.8589C1423.28 35.7868 1423.28 35.7207 1423.29 35.6486C1423.29 35.6005 1423.28 35.5585 1423.28 35.5104C1423.26 35.4082 1423.23 35.258 1423.21 35.2099C1423.2 35.1739 1423.2 35.1558 1423.19 35.1318C1423.17 35.0777 1423.14 35.0296 1423.11 34.9756C1423.07 34.9034 1423.03 34.8374 1422.98 34.7713C1422.88 34.6631 1422.75 34.5429 1422.74 34.5309C1422.69 34.4768 1422.64 34.4408 1422.61 34.4107C1422.39 34.2725 1421.95 34.0501 1421.9 34.0201C1421.89 34.0141 1421.88 34.0081 1421.87 34.002C1421.68 33.9359 1421.49 33.8639 1421.29 33.8098C1420.9 33.6896 1420.49 33.5874 1420.08 33.5093C1419.88 33.4672 1419.68 33.4372 1419.48 33.4071C1419.46 33.4071 1419.45 33.4071 1419.43 33.4011C1418.53 33.329 1417.63 33.2629 1416.72 33.2328C1414.65 33.1667 1412.57 33.2208 1410.5 33.3951C1409.87 33.4492 1409.24 33.5153 1408.62 33.5874C1408.56 33.5934 1408.1 33.6595 1408.08 33.6595C1407.9 33.6836 1407.72 33.7136 1407.54 33.7377C1406.56 33.8939 1405.58 34.0741 1404.6 34.2784C1402.57 34.7111 1400.57 35.264 1398.61 35.931C1397.58 36.2796 1396.57 36.6702 1395.56 37.0668C1395.5 37.0908 1395.45 37.1089 1395.42 37.1269C1395.38 37.145 1395.34 37.163 1395.28 37.187C1395.03 37.2952 1394.78 37.4033 1394.53 37.5175C1394.1 37.7158 1393.67 37.9141 1393.24 38.1244C1391.61 38.9237 1390.08 39.8431 1388.59 40.8887C1388.55 40.9188 1388.53 40.9308 1388.5 40.9489C1388.43 41.009 1388.36 41.063 1388.29 41.1231C1388.17 41.2192 1388.05 41.3154 1387.94 41.4175C1387.6 41.712 1387.26 42.0245 1386.94 42.343C1386.62 42.6615 1386.32 42.992 1386.03 43.3406C1385.96 43.4307 1385.78 43.5929 1385.75 43.6891C1385.99 43.3766 1386.01 43.3526 1385.81 43.617C1385.77 43.6771 1385.73 43.7372 1385.69 43.7973C1385.39 44.224 1385.12 44.6746 1384.88 45.1374C1384.8 45.2996 1384.73 45.4678 1384.64 45.6301C1384.64 45.6361 1384.64 45.6421 1384.64 45.6542C1384.51 46.0207 1384.38 46.3752 1384.3 46.7538C1384.29 46.7899 1384.28 46.85 1384.28 46.9101C1384.32 46.8921 1384.34 47.0664 1384.21 47.2647C1384.19 47.6313 1384.17 47.9918 1384.18 48.3584C1384.19 48.5446 1384.2 48.7249 1384.22 48.9112C1384.28 49.1997 1384.33 49.4881 1384.4 49.7765C1384.46 50.0109 1384.76 50.5517 1384.75 50.8041C1384.78 50.8582 1384.8 50.9063 1384.82 50.9604C1384.88 51.0685 1384.94 51.1767 1385 51.2789C1385.1 51.4652 1385.27 51.6635 1385.41 51.8678C1385.41 51.8197 1385.47 51.8738 1385.56 52.1202C1385.56 52.1262 1385.57 52.1262 1385.57 52.1322C1385.69 52.2644 1385.81 52.3906 1385.93 52.5108C1386.01 52.5889 1386.1 52.655 1386.17 52.7332C1386.35 52.8473 1386.53 52.9675 1386.72 53.0757C1386.73 53.0817 1386.74 53.0817 1386.74 53.0877C1387.03 53.1358 1387.08 53.1778 1387 53.1718C1387.16 53.2319 1387.32 53.298 1387.47 53.3341C1387.59 53.3581 1387.69 53.3822 1387.81 53.4002C1387.96 53.3942 1388.11 53.3821 1388.2 53.3821C1388.39 53.3821 1388.58 53.3642 1388.77 53.3461C1388.88 53.3221 1389.22 53.268 1389.27 53.256C1391.33 52.7993 1393.23 51.8197 1395.31 51.4472C1397.71 51.0145 1400.27 51.1166 1402.31 52.6069C1403.61 53.5263 1404.53 54.7222 1404.99 56.0924Z" fill="#555B48"/>
<path d="M776.896 700.587C733.448 716.079 686.895 709.109 642.222 717.083C621.936 720.707 602.377 728.212 585.214 739.684C577.611 744.768 570.129 750.465 564.472 757.718C558.899 764.857 554.305 772.79 549.807 780.626C537.358 802.307 524.747 823.893 512.28 845.563C494.492 876.475 469.955 903.018 441.159 923.966C410.298 946.417 374.471 962.402 336.938 969.493C293.579 977.684 248.756 975.791 205.806 966.098C164.034 956.669 122.537 940.24 86.7576 916.509C71.4862 906.383 57.692 894.617 45.8496 881.222C61.5054 910.95 82.8542 937.59 109.025 958.712C136.343 980.767 168.658 996.138 202.816 1004.05C243.249 1013.43 285.659 1012 326.422 1005.45C364.64 999.317 402.167 987.725 436.397 969.505C464.484 954.56 490.445 935.18 511.289 911.028C539.46 878.386 552.972 836.843 576.632 801.298C587.568 784.868 600.702 769.563 617.174 758.469C635.262 746.288 656.31 741.481 677.791 739.9C700.461 738.236 723.365 739.72 745.909 736.385C765.685 733.458 784.349 726.103 800.719 714.595C816.832 703.268 830.319 688.142 839.568 670.739C847.008 656.743 851.914 641.311 855.229 625.855C859.409 606.355 860.67 586.404 859.019 566.729C858.899 570.581 858.634 574.439 858.25 578.303C856.983 591.043 856.941 604.24 853.836 616.679C848.978 636.143 838.174 653.745 824.993 668.672C811.865 683.545 795.525 693.941 776.896 700.587Z" fill="#4A6242"/>
<path d="M1357.44 79.7017C1357.56 80.2967 1357.59 80.8495 1357.53 81.3903C1359.29 80.3808 1361.06 79.3832 1362.83 78.3917C1359.73 76.7571 1358.63 72.166 1360.48 69.0292C1361.63 67.0821 1363.55 65.748 1365.55 64.7926C1366.43 64.3719 1367.34 64.0113 1368.22 63.5787C1368.62 63.3804 1369.01 63.1701 1369.39 62.9417C1369.59 62.8275 1369.76 62.6953 1369.95 62.5812C1369.98 62.5631 1370 62.5511 1370.03 62.5391C1370.03 62.533 1370.04 62.527 1370.04 62.521C1370.25 62.3287 1370.46 62.1244 1370.67 61.9321C1370.69 61.9081 1370.73 61.884 1370.76 61.86C1370.83 61.7458 1370.9 61.6136 1370.96 61.5175C1371 61.4454 1371.03 61.3673 1371.07 61.2952C1371.1 61.181 1371.13 61.0548 1371.13 61.0608C1371.14 61.0067 1371.15 60.9526 1371.16 60.8985C1371.16 60.7904 1371.16 60.6462 1371.15 60.55C1371.15 60.4899 1371.15 60.4057 1371.15 60.3456C1371.09 60.1353 1371 59.8709 1370.99 59.8288C1370.96 59.7267 1370.67 59.2279 1370.92 59.6005C1371.19 60.0091 1370.82 59.4443 1370.79 59.3902C1370.69 59.2039 1370.57 59.0296 1370.46 58.8493C1370.45 58.8433 1370.45 58.8374 1370.45 58.8313C1370.33 58.7112 1370.23 58.5789 1370.12 58.4647C1369.97 58.3145 1369.82 58.1823 1369.66 58.0441C1369.44 57.9179 1369.23 57.7617 1369 57.6355C1368.94 57.5994 1368.58 57.4431 1368.55 57.4191C1368.24 57.3049 1367.93 57.2028 1367.61 57.1186C1367.3 57.0345 1366.99 56.9744 1366.67 56.9203C1366.61 56.9143 1366.24 56.8663 1366.16 56.8603C1365.91 56.8422 1365.65 56.8242 1365.4 56.8182C1364.46 56.7881 1363.52 56.8242 1362.58 56.9023C1362.07 56.9444 1361.56 57.0045 1361.05 57.0646C1361.04 57.0646 1361.02 57.0706 1361.01 57.0706C1360.89 57.0886 1360.81 57.1007 1360.78 57.1067C1360.63 57.1307 1360.47 57.1547 1360.31 57.1788C1358.44 57.4792 1356.59 57.9059 1354.78 58.4588C1353.79 58.7592 1352.81 59.0957 1351.85 59.4623C1351.69 59.5224 1351.52 59.5885 1351.37 59.6486C1351.32 59.6666 1351.07 59.7687 1350.95 59.8168C1350.62 59.961 1350.28 60.1113 1349.95 60.2616C1348.15 61.0909 1346.41 62.0523 1344.75 63.128C1344.03 63.5907 1343.34 64.0775 1342.67 64.5762C1342.56 64.6544 1342.41 64.7685 1342.36 64.8046C1342.21 64.9308 1342.06 65.051 1341.91 65.1832C1341.58 65.4656 1341.25 65.7481 1340.94 66.0486C1340.31 66.6435 1339.73 67.2804 1339.16 67.9294C1339.14 67.9595 1339.12 67.9776 1339.1 68.0016C1339.09 68.0196 1339.08 68.0376 1339.07 68.0557C1338.94 68.248 1338.8 68.4342 1338.67 68.6265C1338.46 68.945 1338.26 69.2755 1338.08 69.6121C1337.93 69.8825 1337.8 70.1529 1337.66 70.4293C1337.64 70.4774 1337.61 70.5195 1337.58 70.5556C1337.43 70.8861 1337.36 71.3428 1337.28 71.6492C1337.24 71.7995 1337.21 71.9497 1337.18 72.0999C1337.17 72.124 1337.16 72.154 1337.16 72.1781C1337.21 72.3343 1337.11 72.9652 1337.11 73.1215C1337.11 73.1816 1337.15 73.3799 1337.16 73.5602C1337.2 73.6203 1337.23 73.7645 1337.18 73.8666C1337.26 74.1911 1337.33 74.5217 1337.44 74.8401C1337.48 74.9663 1337.54 75.0925 1337.58 75.2248C1337.75 75.5432 1337.91 75.8618 1338.1 76.1622C1338.16 76.2464 1338.21 76.3245 1338.26 76.4086C1338.29 76.4447 1338.3 76.4627 1338.32 76.4868C1338.41 76.5889 1338.5 76.6911 1338.51 76.7031C1338.57 76.7692 1338.88 77.0396 1339.06 77.2139C1339.12 77.2559 1339.18 77.298 1339.19 77.34C1339.29 77.4062 1339.39 77.4723 1339.5 77.5324C1339.57 77.5684 1339.82 77.6706 1339.94 77.7427C1339.94 77.7427 1339.96 77.7487 1339.96 77.7487C1340.13 77.8028 1340.31 77.8388 1340.48 77.8809C1340.66 77.8809 1340.84 77.8869 1341.02 77.8869C1341.05 77.8869 1341.09 77.8809 1341.13 77.8809C1341.59 77.7848 1342.03 77.6526 1342.47 77.5143C1342.5 77.5023 1342.56 77.4843 1342.62 77.4603C1342.81 77.3762 1343 77.286 1343.19 77.1958C1345.11 76.2644 1346.99 75.1286 1349.13 74.7861C1351.55 74.3955 1354.05 74.8703 1355.79 76.7091C1356.55 77.5204 1357.19 78.572 1357.44 79.7017Z" fill="#555B48"/>
<path d="M1467.9 25.8645C1468.29 26.3933 1468.58 26.9943 1468.79 27.6193C1469.61 27.3368 1470.43 27.0664 1471.26 26.8201C1470.88 26.3573 1470.49 25.9006 1470.11 25.4379C1469.32 24.4884 1468.8 22.92 1469.64 21.7963C1471.26 19.6329 1473.4 18.2748 1476 17.5536C1477.15 17.2351 1478.34 17.0729 1479.52 16.9286C1480.14 16.8505 1480.76 16.7905 1481.39 16.7304C1481.74 16.6943 1482.1 16.6523 1482.45 16.6162C1482.52 16.6102 1482.57 16.6042 1482.6 16.6042C1482.63 16.5982 1482.67 16.5922 1482.71 16.5861C1483.32 16.484 1483.93 16.3758 1484.53 16.2136C1484.87 16.1234 1485.2 16.0032 1485.54 15.8951C1485.57 15.889 1485.59 15.8831 1485.61 15.8771C1485.63 15.865 1485.65 15.859 1485.67 15.841C1485.97 15.6727 1486.61 15.4564 1486.8 15.168C1486.49 15.4203 1486.46 15.4384 1486.71 15.234C1486.82 15.1379 1486.92 15.0418 1487.03 14.9396C1487.18 14.7954 1487.32 14.6391 1487.46 14.4889C1487.52 14.3988 1487.59 14.3086 1487.64 14.2125C1487.68 14.1584 1487.74 14.0682 1487.79 13.9781C1487.79 13.9721 1487.8 13.918 1487.85 13.7918C1487.89 13.6656 1487.92 13.5394 1487.95 13.4132C1487.95 13.3952 1487.94 13.3832 1487.94 13.3591C1487.94 13.269 1487.93 13.1789 1487.93 13.0947C1487.93 13.0887 1487.93 13.0887 1487.93 13.0827C1487.9 12.9986 1487.88 12.8784 1487.86 12.7702C1487.84 12.7522 1487.82 12.7041 1487.77 12.5959C1487.69 12.4697 1487.62 12.3436 1487.54 12.2234C1487.53 12.2053 1487.5 12.1573 1487.47 12.1032C1487.44 12.0791 1487.41 12.0371 1487.34 11.959C1487.24 11.8448 1487.14 11.7366 1487.03 11.6345C1486.86 11.4722 1486.7 11.316 1486.53 11.1717C1486.5 11.1477 1486.44 11.0936 1486.38 11.0395C1486.23 10.9013 1486.03 10.7872 1485.86 10.667C1485.11 10.1562 1484.31 9.69947 1483.5 9.27881C1483.02 9.03243 1482.54 8.79203 1482.05 8.56968C1481.88 8.49156 1481.71 8.41347 1481.53 8.33534C1481.53 8.33534 1481.52 8.32933 1481.51 8.32933C1480.66 7.99281 1479.8 7.67429 1478.93 7.40387C1477.98 7.10941 1477.01 6.86303 1476.04 6.65872C1475.59 6.56257 1475.14 6.47844 1474.69 6.40032C1474.48 6.36426 1473.3 6.12992 1474.13 6.3102C1472.31 5.91359 1470.24 5.99771 1468.4 6.07583C1467.48 6.11789 1466.57 6.20203 1465.65 6.30419C1465.64 6.30419 1465.64 6.30419 1465.63 6.30419C1465.61 6.3102 1465.58 6.31619 1465.54 6.3222C1465.31 6.35825 1465.08 6.3943 1464.86 6.43036C1464.41 6.50848 1463.96 6.59264 1463.51 6.68879C1461.71 7.07339 1459.96 7.60219 1458.25 8.28124C1458.15 8.32331 1458.05 8.35937 1457.96 8.40144C1457.94 8.40745 1457.93 8.41344 1457.91 8.41945C1457.7 8.5156 1457.49 8.60576 1457.28 8.7019C1456.87 8.8942 1456.45 9.09853 1456.05 9.30885C1455.24 9.72951 1454.44 10.1922 1453.67 10.685C1453.28 10.9314 1452.9 11.1898 1452.53 11.4542C1452.34 11.5864 1452.15 11.7246 1451.97 11.8628C1451.94 11.8808 1451.93 11.8928 1451.9 11.9109C1451.88 11.9289 1451.86 11.9469 1451.84 11.965C1451.12 12.5659 1450.41 13.1789 1449.75 13.8519C1449.37 14.2425 1449 14.6511 1448.65 15.0718C1448.56 15.18 1448.03 15.7088 1448.55 15.198C1448.39 15.3542 1448.26 15.5826 1448.14 15.7629C1447.67 16.4539 1447.28 17.1811 1446.91 17.9322C1446.86 18.0524 1446.82 18.1666 1446.78 18.2868C1446.7 18.5031 1446.64 18.7195 1446.57 18.9358C1446.47 19.2964 1446.21 19.8973 1446.27 20.2699C1446.32 19.8492 1446.32 19.8131 1446.29 20.1557C1446.28 20.2338 1446.28 20.3119 1446.27 20.384C1446.26 20.5883 1446.25 20.7866 1446.25 20.991C1446.25 21.1953 1446.25 21.3936 1446.26 21.5979C1446.27 21.7181 1446.28 21.8383 1446.3 21.9585C1446.38 22.283 1446.5 22.7277 1446.53 22.7998C1446.59 22.9981 1446.66 23.1844 1446.72 23.3827C1446.73 23.3948 1446.73 23.4007 1446.73 23.4127C1446.73 23.4127 1446.73 23.4188 1446.73 23.4188C1446.92 23.7793 1447.1 24.1459 1447.32 24.4884C1447.34 24.5245 1447.4 24.6386 1447.46 24.7468C1447.49 24.7708 1447.51 24.8069 1447.56 24.861C1447.6 24.9091 1447.64 24.9632 1447.69 25.0173C1447.99 25.3658 1448.32 25.6723 1448.67 25.9787C1448.68 25.9847 1448.68 25.9908 1448.7 25.9968C1448.86 26.0989 1449.02 26.2071 1449.19 26.3033C1449.31 26.3694 1449.45 26.4294 1449.57 26.5015C1449.79 26.5556 1450.41 26.6638 1450.59 26.754C1450.66 26.76 1450.73 26.76 1450.8 26.76C1450.91 26.76 1451.02 26.754 1451.13 26.7479C1450.98 26.7479 1451.49 26.7059 1451.6 26.6758C1451.85 26.6157 1452.09 26.5496 1452.33 26.4655C1452.38 26.4474 1452.69 26.3273 1452.78 26.2973C1452.93 26.2251 1453.09 26.153 1453.25 26.0809C1453.71 25.8526 1454.16 25.6061 1454.61 25.3598C1456.78 24.1639 1458.99 23.0281 1461.51 22.8599C1464.08 22.6796 1466.39 23.7913 1467.9 25.8645Z" fill="#555B48"/>
<path d="M1512.56 160.774C1510.39 161.946 1508.22 163.124 1506.04 164.296C1508.69 167.348 1511.35 170.401 1514 173.454C1514.83 174.415 1515.26 175.948 1514.46 177.096C1513.8 178.051 1513.06 178.958 1512.19 179.728C1508.92 182.606 1504.76 183.772 1501.12 186.049C1500.68 186.326 1500.26 186.62 1499.84 186.921C1499.79 186.963 1499.75 187.005 1499.74 187.011C1499.57 187.155 1499.4 187.299 1499.25 187.444C1498.9 187.768 1498.59 188.117 1498.27 188.465C1498.21 188.549 1498.13 188.639 1498.09 188.694C1497.97 188.868 1497.85 189.048 1497.75 189.228C1497.66 189.397 1497.55 189.739 1497.42 189.913C1497.4 189.956 1497.39 189.998 1497.37 190.04C1497.31 190.244 1497.25 190.448 1497.21 190.653C1497.19 190.713 1497.18 190.779 1497.17 190.839C1497.17 191.169 1497.2 191.53 1497.19 191.867C1497.19 191.909 1497.19 191.969 1497.19 192.035C1497.2 192.095 1497.21 192.161 1497.23 192.221C1497.28 192.413 1497.33 192.606 1497.39 192.798C1497.42 192.876 1497.45 192.948 1497.48 193.026C1497.57 193.195 1497.65 193.375 1497.75 193.543C1497.85 193.717 1497.96 193.892 1498.06 194.066C1498.11 194.126 1498.15 194.186 1498.19 194.246C1498.35 194.366 1498.5 194.631 1498.62 194.763C1498.79 194.943 1498.96 195.124 1499.14 195.298C1499.2 195.364 1499.82 195.881 1500.03 196.073C1500.07 196.103 1500.1 196.127 1500.11 196.139C1500.11 196.139 1500.11 196.145 1500.12 196.145C1500.21 196.211 1500.3 196.271 1500.39 196.337C1500.57 196.464 1500.75 196.584 1500.94 196.704C1501.34 196.962 1501.76 197.203 1502.19 197.431C1502.42 197.551 1502.65 197.672 1502.88 197.78C1502.94 197.81 1503.11 197.888 1503.25 197.948C1503.35 197.99 1503.61 198.098 1503.68 198.122C1503.91 198.212 1504.15 198.296 1504.39 198.375C1505.44 198.723 1506.51 199.012 1507.59 199.246C1508.18 199.372 1508.77 199.486 1509.37 199.582C1509.49 199.601 1509.71 199.637 1509.79 199.649C1510.03 199.679 1510.26 199.703 1510.49 199.727C1512.76 199.961 1515.06 199.955 1517.33 199.727C1517.51 199.709 1517.68 199.691 1517.85 199.673C1517.87 199.673 1517.93 199.667 1517.98 199.655C1518.03 199.649 1518.06 199.643 1518.08 199.643C1518.25 199.619 1518.42 199.588 1518.59 199.564C1519.1 199.48 1519.61 199.384 1520.12 199.282C1521.26 199.042 1522.38 198.741 1523.49 198.387C1524.07 198.2 1524.63 198.002 1525.2 197.786C1525.41 197.702 1525.62 197.617 1525.83 197.533C1525.98 197.467 1526.12 197.407 1526.27 197.341C1527.2 196.92 1528.1 196.452 1528.98 195.947C1529.89 195.43 1530.76 194.871 1531.6 194.27C1531.82 194.114 1532.04 193.958 1532.26 193.796C1532.32 193.747 1532.39 193.699 1532.45 193.651C1532.46 193.645 1532.46 193.645 1532.47 193.633C1532.82 193.339 1533.18 193.05 1533.53 192.75C1535.1 191.392 1536.55 189.895 1537.84 188.273C1537.86 188.249 1537.93 188.159 1537.99 188.087C1537.99 188.075 1538 188.069 1538 188.063C1538.14 187.876 1538.28 187.69 1538.41 187.504C1538.71 187.101 1538.99 186.686 1539.26 186.272C1539.83 185.406 1540.36 184.511 1540.84 183.598C1541.09 183.123 1541.33 182.642 1541.56 182.155C1541.66 181.945 1541.75 181.735 1541.85 181.524C1541.87 181.482 1541.88 181.452 1541.89 181.428C1541.9 181.416 1541.9 181.404 1541.9 181.392C1542.25 180.521 1542.56 179.637 1542.8 178.736C1542.93 178.267 1543.04 177.799 1543.13 177.318C1543.18 177.114 1543.21 176.909 1543.25 176.705C1543.27 176.615 1543.27 176.483 1543.27 176.374C1543.26 176.116 1543.27 176.206 1543.27 176.374C1543.27 176.429 1543.27 176.489 1543.27 176.579C1543.24 175.695 1543.43 174.794 1543.4 173.899C1543.39 173.454 1543.29 172.979 1543.3 172.534C1543.3 172.516 1543.3 172.504 1543.3 172.486C1543.25 172.258 1543.21 172.036 1543.16 171.807C1543.06 171.393 1542.95 170.99 1542.82 170.587C1542.8 170.545 1542.74 170.383 1542.69 170.251C1542.64 170.149 1542.59 170.023 1542.56 169.974C1542.36 169.578 1542.13 169.199 1541.88 168.827C1541.88 168.821 1541.86 168.797 1541.84 168.761C1541.7 168.616 1541.58 168.466 1541.45 168.328C1541.29 168.166 1541.12 168.015 1540.96 167.859C1540.92 167.823 1540.9 167.799 1540.88 167.775C1540.49 167.517 1540.1 167.288 1539.7 167.066C1539.67 167.048 1539.64 167.036 1539.62 167.024C1539.52 166.988 1539.43 166.952 1539.34 166.922C1539.12 166.844 1538.89 166.778 1538.67 166.717C1538.4 166.645 1538.13 166.609 1537.87 166.543C1537.84 166.537 1537.83 166.531 1537.81 166.531C1537.78 166.531 1537.75 166.531 1537.73 166.525C1537.18 166.477 1536.62 166.465 1536.07 166.495C1535.82 166.507 1535.59 166.537 1535.35 166.549C1535.33 166.549 1535.31 166.549 1535.3 166.549C1535.22 166.567 1535.15 166.579 1535.07 166.591C1534.56 166.687 1534.05 166.808 1533.55 166.958C1533.28 167.036 1533.02 167.126 1532.76 167.222C1532.67 167.258 1532.52 167.318 1532.43 167.354C1531.41 167.817 1530.43 168.352 1529.5 168.959C1528.98 169.289 1528.49 169.632 1528.01 169.993C1527.9 170.071 1527.8 170.149 1527.69 170.227C1527.68 170.233 1527.63 170.275 1527.58 170.311C1527.53 170.347 1527.48 170.383 1527.48 170.389C1527.38 170.473 1527.27 170.551 1527.17 170.636C1526.26 171.369 1525.36 172.132 1524.47 172.895C1522.98 174.175 1520.85 174.013 1519.76 172.288C1517.45 168.628 1515.14 164.969 1512.82 161.309C1512.71 161.135 1512.62 160.954 1512.56 160.774Z" fill="#555B48"/>
<path d="M1568.36 125.181C1568.55 125.079 1568.74 124.989 1568.95 124.923C1569.08 124.881 1569.22 124.851 1569.35 124.833C1569.18 123.643 1569.66 122.291 1570.78 121.774C1572.69 120.891 1574.31 119.653 1575.61 117.988C1582.07 109.701 1578.59 97.7185 1575.46 88.8127C1572.32 79.8708 1567.68 71.4337 1561.95 63.898C1549.96 48.1355 1532.82 36.4293 1513.51 31.8202C1503.4 29.4104 1492.73 28.9117 1482.46 30.5342C1479.83 30.9488 1477.22 31.4957 1474.64 32.1628C1473.31 32.5113 1471.98 32.8898 1470.66 33.3045C1470.55 33.3405 1469.95 33.4968 1469.79 33.5328C1469.71 33.5689 1469.63 33.605 1469.55 33.641C1467.32 34.5244 1465.16 35.564 1462.95 36.4955C1441.28 45.6357 1419.88 55.1725 1398.92 65.845C1378.24 76.3734 1357.99 87.725 1338.17 99.8038C1337.06 103.8 1335.6 107.682 1333.85 111.444C1327.59 124.881 1317.22 136.503 1304.48 144.093C1306.23 146.028 1307.98 147.963 1309.73 149.898C1327.88 169.975 1346.04 190.058 1364.19 210.135C1368.08 208.242 1372.12 206.638 1376.26 205.37C1384.26 202.918 1392.69 201.674 1401.06 201.692C1405.33 201.698 1409.58 202.071 1413.8 202.714C1414.85 202.876 1415.89 203.056 1416.93 203.26C1417.4 203.351 1417.86 203.423 1418.31 203.543C1418.45 203.579 1418.54 203.603 1418.6 203.627C1419.17 203.693 1419.75 203.741 1420.33 203.789C1430.73 198.165 1441.13 192.546 1451.54 186.921C1470.55 176.651 1489.56 166.381 1508.56 156.111C1527.57 145.841 1546.58 135.571 1565.58 125.301C1566.46 124.815 1567.5 124.791 1568.36 125.181Z" fill="#5D6B34"/>
<path d="M1593.84 138.955C1593.84 138.931 1593.82 138.817 1593.81 138.702C1593.81 138.66 1593.79 138.618 1593.78 138.546C1593.72 138.18 1593.63 137.819 1593.52 137.464C1593.49 137.38 1593.42 137.23 1593.4 137.128C1593.39 137.11 1593.38 137.098 1593.37 137.08C1593.36 137.044 1593.28 136.918 1593.21 136.797C1593.17 136.767 1593.13 136.737 1593.11 136.701C1593.03 136.713 1592.86 136.701 1592.95 136.659C1592.86 136.683 1592.77 136.695 1592.68 136.725C1592.63 136.737 1592.2 136.9 1592.18 136.9C1590.39 137.687 1588.66 138.702 1586.92 139.598C1583.21 141.509 1579.5 143.426 1575.78 145.337C1574.04 146.238 1571.96 145.469 1571.37 143.54C1570.11 139.369 1568.85 135.205 1567.58 131.034C1566.26 131.75 1564.94 132.459 1563.62 133.174C1563.48 133.252 1563.34 133.33 1563.2 133.402C1564.76 136.918 1566.33 140.433 1567.89 143.948C1568.55 145.433 1568.33 147.176 1566.82 148.059C1561.59 151.112 1556.36 154.164 1551.13 157.217C1551.46 157.578 1551.78 157.938 1552.12 158.281C1552.71 158.876 1553.34 159.447 1553.98 159.981C1554.14 160.114 1554.3 160.246 1554.47 160.378C1554.47 160.384 1554.47 160.384 1554.48 160.39C1554.49 160.402 1554.5 160.408 1554.52 160.42C1554.83 160.642 1555.14 160.871 1555.46 161.093C1556.83 162.025 1558.27 162.83 1559.77 163.515C1559.83 163.545 1560.37 163.767 1560.31 163.749C1560.36 163.767 1560.4 163.785 1560.41 163.791C1560.8 163.948 1561.2 164.092 1561.59 164.23C1562.39 164.506 1563.2 164.747 1564.01 164.951C1564.73 165.131 1565.45 165.282 1566.18 165.408C1566.35 165.438 1566.52 165.468 1566.69 165.492C1566.76 165.504 1567.44 165.558 1566.92 165.528C1566.4 165.498 1567.09 165.546 1567.15 165.552C1567.36 165.576 1567.57 165.594 1567.77 165.612C1569.24 165.738 1570.71 165.75 1572.18 165.642C1572.55 165.612 1572.93 165.57 1573.32 165.534C1573.47 165.51 1573.62 165.486 1573.77 165.462C1574.5 165.342 1575.21 165.185 1575.93 165.005C1576.64 164.819 1577.35 164.603 1578.04 164.356C1578.37 164.242 1578.69 164.116 1579 163.99C1579.01 163.99 1579.01 163.984 1579.02 163.984C1579.21 163.894 1579.41 163.809 1579.6 163.713C1580.95 163.07 1582.24 162.307 1583.46 161.448C1583.63 161.322 1583.8 161.195 1583.98 161.069C1583.99 161.063 1583.99 161.057 1584 161.051C1584.26 160.841 1584.53 160.624 1584.79 160.408C1585.36 159.921 1585.9 159.411 1586.43 158.882C1586.96 158.353 1587.47 157.8 1587.96 157.229C1588.15 157.001 1588.36 156.772 1588.54 156.532C1588.56 156.502 1588.59 156.466 1588.62 156.418C1588.75 156.244 1588.88 156.075 1589 155.901C1589.88 154.681 1590.65 153.389 1591.33 152.049C1591.51 151.701 1591.68 151.346 1591.84 150.985C1591.9 150.865 1591.96 150.733 1592.02 150.607C1592.03 150.577 1592.03 150.547 1592.05 150.523C1592.33 149.826 1592.58 149.123 1592.8 148.407C1593.03 147.692 1593.22 146.971 1593.39 146.238C1593.54 145.553 1593.79 144.742 1593.79 144.033C1593.77 144.159 1593.75 144.285 1593.73 144.405C1593.75 144.261 1593.77 144.123 1593.78 143.979C1593.8 143.804 1593.82 143.624 1593.84 143.45C1593.87 143.095 1593.89 142.741 1593.91 142.386C1593.94 141.641 1593.94 140.89 1593.91 140.139C1593.9 139.736 1593.87 139.345 1593.84 138.955Z" fill="#555B48"/>
<path d="M1298.46 146.382C1293.21 149.17 1287.96 151.958 1282.72 154.753C1228.22 183.724 1173.72 212.707 1119.23 241.696C1057.96 274.29 996.696 306.885 935.43 339.485C872.099 373.186 808.767 406.886 745.435 440.581C684.746 472.875 624.056 505.163 563.361 537.445C524.015 558.375 484.662 579.3 445.309 600.218L445.315 600.224L406.449 620.885L462.749 689.89L500.126 670.263L500.132 670.359C583.473 626.762 666.664 582.882 749.843 538.983C838.073 492.423 926.29 445.821 1014.62 399.453C1062.84 374.141 1111.12 348.956 1159.39 323.747C1197.09 304.054 1234.8 284.374 1272.5 264.675C1302.59 248.955 1332.66 233.216 1362.74 217.484C1360.81 215.351 1358.88 213.217 1356.95 211.078C1337.46 189.517 1317.96 167.949 1298.46 146.382Z" fill="#76854D"/>
<path d="M265.307 680.768C265.307 730.141 316.76 770.307 380.007 770.307C443.255 770.307 494.708 730.141 494.708 680.768C494.708 680.51 494.708 680.245 494.702 679.987C484.668 685.233 474.633 690.473 464.592 695.707L461.199 697.486L397.171 619.01L431.509 600.754C415.607 594.51 397.939 591.229 380.001 591.229C316.76 591.229 265.307 631.395 265.307 680.768Z" fill="#323A30"/>
<path d="M229.605 734.942C228.926 734.047 228.247 733.158 227.563 732.274C227.521 732.22 227.491 732.178 227.467 732.148C227.443 732.118 227.413 732.076 227.377 732.034C227.214 731.824 227.046 731.607 226.884 731.397C226.608 731.042 226.332 730.688 226.055 730.333C224.734 728.639 223.395 726.95 222.05 725.267C219.359 721.908 216.627 718.579 213.853 715.292C208.478 708.916 202.941 702.678 197.266 696.579C196.948 696.699 196.618 696.771 196.281 696.795C195.008 696.879 193.735 696.963 192.468 697.084C191.831 697.144 191.201 697.21 190.564 697.288C190.552 697.288 190.504 697.294 190.456 697.3C190.348 697.318 190.192 697.342 190.144 697.348C189.874 697.39 189.603 697.432 189.339 697.48C188.09 697.697 186.859 697.979 185.646 698.352C185.051 698.538 184.457 698.748 183.874 698.983C183.802 699.019 183.64 699.091 183.55 699.133C183.316 699.247 183.082 699.361 182.853 699.481C182.391 699.728 181.941 699.992 181.508 700.281C181.292 700.425 181.076 700.575 180.866 700.725C180.86 700.725 180.854 700.731 180.854 700.737C180.788 700.785 180.709 700.851 180.679 700.875C180.475 701.044 178.44 702.847 178.566 703.003C178.788 702.714 178.83 702.654 178.698 702.829C178.656 702.889 178.608 702.949 178.566 703.009C178.5 703.099 178.439 703.189 178.379 703.279C178.235 703.49 178.097 703.706 177.971 703.928C177.839 704.145 177.719 704.367 177.605 704.595C177.569 704.667 177.521 704.806 177.473 704.938C177.479 704.962 177.443 705.082 177.359 705.16C177.359 705.166 177.353 705.172 177.353 705.178C177.317 705.28 177.28 705.382 177.244 705.485C177.166 705.725 177.1 705.971 177.04 706.218C176.992 706.428 176.956 706.638 176.908 706.849C176.902 706.927 176.89 706.999 176.89 707.077C176.848 707.66 176.866 708.237 176.908 708.814C176.914 708.88 176.914 708.922 176.914 708.964C176.926 709.018 176.944 709.078 176.95 709.114C177.004 709.397 177.064 709.679 177.136 709.956C177.28 710.521 177.473 711.061 177.671 711.608C177.683 711.65 177.713 711.716 177.737 711.77C177.761 711.819 177.773 711.849 177.773 711.855C177.785 711.879 177.797 711.903 177.809 711.927C177.935 712.197 178.061 712.461 178.199 712.726C178.728 713.753 179.334 714.745 179.983 715.706C181.424 717.858 183.04 719.895 184.595 721.962C187.928 726.391 191.267 730.826 194.6 735.255C201.272 744.119 207.943 752.976 214.609 761.84C221.275 770.704 227.953 779.562 234.619 788.425C240.654 796.442 246.69 804.458 252.725 812.475C259.024 808.298 265.324 804.128 271.623 799.951C267.468 792.314 263.132 784.778 258.598 777.362C249.644 762.742 239.964 748.584 229.605 734.942Z" fill="#76854D"/>
<path d="M720.399 561.314C647.183 599.936 573.954 638.534 500.606 676.898C500.672 678.19 500.714 679.482 500.714 680.768C500.714 706.427 488.061 730.507 465.09 748.571C442.33 766.467 412.118 776.316 380.008 776.316C347.897 776.316 317.679 766.461 294.925 748.571C271.955 730.513 259.301 706.433 259.301 680.768C259.301 655.102 271.955 631.028 294.925 612.964C317.685 595.068 347.897 585.219 380.008 585.219C400.456 585.219 420.597 589.336 438.373 597.112C486.151 571.71 533.929 546.303 581.707 520.889C642.973 488.295 704.239 455.7 765.505 423.099C769.036 421.218 772.561 419.343 776.092 417.463C763.229 407.782 748.564 400.606 733.304 395.565C701.795 385.15 666.165 382.134 633.635 389.465C598.996 397.277 565.547 416.321 540.247 441.091C513.349 467.43 496.972 504.988 460.677 520.372C424.591 535.672 384.415 529.501 347.693 520.198C317.571 512.572 287.658 503.432 256.797 499.189C219.973 494.13 182.806 501.413 150.468 519.621C125.432 533.719 100.059 549.848 80.1579 570.869C78.7707 572.335 77.4255 573.843 76.1344 575.4C76.0803 575.466 76.0023 575.556 75.9362 575.64C75.5639 576.115 75.1976 576.59 74.8312 577.059C71.7145 581.073 68.6638 585.135 65.6972 589.257C53.4885 606.192 42.5288 624.063 33.3768 642.837C15.3309 679.842 4.59949 720.651 6.14885 762.008C7.63215 801.585 20.2493 841.397 45.6036 872.225C71.7025 903.96 108.617 925.239 146.12 940.767C186.361 957.431 229.563 967.497 273.174 968.555C313.835 969.546 354.587 962.677 391.736 945.809C426.104 930.203 457.139 907.211 481.719 878.523C499.453 857.821 512.046 833.783 525.66 810.335C532.41 798.707 539.112 787.055 545.862 775.427C550.071 768.173 554.425 760.962 559.56 754.316C564.91 747.387 571.66 741.907 578.764 736.841C594.798 725.411 613.277 717.394 632.434 712.954C654.371 707.864 677.173 707.467 699.573 706.427C740.168 704.54 786.031 700.544 816.015 669.548C830.091 655 841.838 637.374 847.339 617.736C850.852 605.182 850.87 591.859 852.179 578.933C853.23 568.531 853.512 558.183 852.317 547.769C850.371 530.841 845.477 514.267 840.09 498.132C800.185 519.207 760.298 540.263 720.399 561.314ZM277.083 803.514C269.24 808.712 261.391 813.91 253.548 819.108C252.071 820.088 250.372 819.271 249.441 818.033C248.6 816.915 247.759 815.797 246.919 814.68C240.037 805.539 233.154 796.399 226.278 787.259C219.426 778.161 212.574 769.057 205.728 759.959C198.882 750.86 192.024 741.756 185.178 732.658C181.857 728.247 178.392 723.909 175.234 719.378C172.219 715.051 169.913 709.871 171.276 704.516C172.447 699.913 176.14 696.103 180.326 694.042C185.298 691.59 190.841 691.146 196.288 690.779C196.786 690.749 197.249 690.863 197.651 691.086C198.75 690.635 200.149 690.851 200.966 691.723C207.572 698.802 213.986 706.067 220.183 713.512C231.305 726.871 241.766 740.789 251.489 755.199C261.121 769.471 270.027 784.23 278.17 799.404C278.963 800.9 278.47 802.595 277.083 803.514Z" fill="#FCF4D7"/>
<path d="M1453.42 192.726C1451.34 193.85 1449.26 194.973 1447.18 196.097C1447.36 196.247 1447.54 196.404 1447.72 196.56C1449.79 198.399 1451.4 200.796 1451.78 203.585C1452.12 206.181 1451.33 208.957 1449.28 210.7C1447.64 212.094 1445.67 212.839 1443.61 213.362C1442.69 213.59 1441.76 213.789 1440.85 214.035C1440.38 214.161 1439.91 214.293 1439.46 214.45C1439.28 214.51 1439.12 214.582 1438.94 214.636C1438.91 214.648 1438.88 214.66 1438.86 214.678C1438.47 214.864 1438.1 215.093 1437.74 215.327C1437.67 215.399 1437.52 215.507 1437.48 215.543C1437.3 215.706 1437.13 215.874 1436.98 216.054C1436.92 216.126 1436.86 216.192 1436.8 216.264C1436.68 216.457 1436.54 216.643 1436.43 216.841C1436.32 217.016 1436.22 217.196 1436.13 217.382C1436.13 217.388 1436.09 217.454 1436.05 217.526C1435.88 218.013 1435.71 218.494 1435.6 218.999C1435.57 219.143 1435.39 219.864 1435.51 219.419C1435.62 218.993 1435.49 219.684 1435.48 219.852C1435.45 220.339 1435.47 220.826 1435.5 221.312C1435.5 221.324 1435.5 221.33 1435.5 221.342C1435.51 221.372 1435.51 221.402 1435.52 221.438C1435.56 221.679 1435.61 221.913 1435.68 222.148C1435.76 222.436 1435.85 222.718 1435.95 222.995C1435.96 223.025 1436.01 223.139 1436.04 223.235C1436.28 223.674 1436.49 224.119 1436.76 224.545C1436.92 224.792 1437.09 225.032 1437.26 225.272C1437.27 225.284 1437.27 225.284 1437.27 225.29C1437.33 225.351 1437.39 225.405 1437.41 225.441C1437.73 225.807 1438.07 226.15 1438.41 226.48C1438.63 226.685 1438.86 226.865 1439.09 227.069C1439.09 227.075 1439.09 227.075 1439.1 227.081C1439.16 227.123 1439.21 227.165 1439.27 227.213C1439.7 227.52 1440.14 227.796 1440.59 228.061C1440.69 228.115 1441.36 228.481 1441.73 228.662C1441.73 228.662 1441.73 228.662 1441.74 228.662C1441.76 228.668 1441.82 228.692 1441.94 228.734C1442.06 228.782 1442.19 228.83 1442.32 228.878C1442.62 228.986 1442.92 229.088 1443.22 229.178C1443.87 229.377 1444.53 229.533 1445.19 229.659C1445.44 229.707 1445.69 229.743 1445.94 229.785C1445.99 229.785 1446.41 229.839 1446.54 229.852C1447.81 229.966 1449.09 229.978 1450.36 229.912C1451.04 229.876 1451.72 229.815 1452.4 229.737C1452.5 229.725 1452.6 229.713 1452.69 229.701C1452.7 229.701 1452.7 229.701 1452.71 229.701C1452.97 229.659 1453.23 229.623 1453.49 229.575C1454.54 229.401 1455.58 229.178 1456.6 228.914C1457.67 228.638 1458.72 228.319 1459.76 227.953C1460.25 227.778 1460.75 227.592 1461.25 227.394C1461.31 227.37 1461.4 227.334 1461.47 227.304C1461.72 227.213 1461.96 227.093 1462.2 226.985C1464.17 226.096 1466.07 225.038 1467.86 223.842C1468.34 223.53 1468.81 223.199 1469.26 222.869C1469.44 222.736 1469.77 222.574 1469.9 222.394C1469.89 222.406 1469.47 222.73 1469.74 222.514C1469.83 222.442 1469.92 222.376 1470.01 222.304C1470.87 221.619 1471.71 220.898 1472.51 220.146C1473.3 219.395 1474.07 218.608 1474.81 217.791C1475.17 217.394 1475.51 216.992 1475.85 216.583C1476.02 216.379 1476.18 216.168 1476.35 215.964C1476.35 215.958 1476.35 215.958 1476.36 215.952C1476.41 215.892 1476.46 215.826 1476.5 215.76C1477.78 214.047 1478.97 212.226 1479.84 210.267C1479.87 210.201 1479.9 210.129 1479.93 210.057C1479.94 210.045 1479.94 210.039 1479.95 210.027C1479.96 209.985 1479.97 209.949 1479.98 209.931C1480.07 209.684 1480.16 209.432 1480.25 209.179C1480.41 208.681 1480.56 208.17 1480.68 207.659C1480.76 207.371 1480.82 207.076 1480.87 206.782C1480.89 206.674 1480.91 206.565 1480.92 206.451C1480.99 206.103 1480.89 206.704 1480.89 206.704C1481.06 206.331 1480.98 205.592 1480.98 205.189C1480.98 204.907 1480.95 204.624 1480.94 204.342C1480.94 204.336 1480.94 204.33 1480.94 204.324C1480.93 204.294 1480.92 204.252 1480.91 204.21C1480.83 203.777 1480.7 203.356 1480.56 202.942C1480.52 202.858 1480.48 202.767 1480.43 202.683C1480.32 202.467 1480.19 202.257 1480.05 202.052C1480.03 202.022 1479.98 201.95 1479.93 201.896C1479.76 201.716 1479.6 201.536 1479.42 201.367C1479.34 201.295 1479.2 201.205 1479.11 201.115C1478.94 201.007 1478.77 200.893 1478.59 200.796C1478.49 200.736 1477.81 200.352 1478.2 200.58C1478.56 200.79 1478.01 200.508 1477.88 200.466C1477.62 200.376 1477.34 200.298 1477.07 200.231C1476.91 200.195 1476.53 200.183 1476.37 200.099C1476.31 200.093 1476.25 200.087 1476.18 200.081C1475.93 200.063 1475.68 200.051 1475.43 200.051C1475.14 200.051 1474.85 200.057 1474.57 200.081C1474.43 200.093 1473.66 200.226 1474.1 200.117C1474.56 200.009 1473.75 200.189 1473.65 200.213C1473.44 200.262 1473.23 200.31 1473.03 200.364C1472.73 200.448 1472.43 200.544 1472.13 200.646C1471.97 200.7 1471.81 200.766 1471.65 200.826C1471.63 200.832 1471.6 200.844 1471.57 200.856C1471.48 200.899 1471.35 200.959 1471.31 200.977C1471.2 201.031 1471.08 201.085 1470.96 201.145C1470.69 201.277 1470.43 201.415 1470.17 201.56C1469.12 202.142 1468.12 202.815 1467.15 203.525C1466.97 203.651 1466.8 203.783 1466.63 203.915C1466.62 203.921 1466.59 203.945 1466.55 203.975C1466.48 204.035 1466.35 204.138 1466.32 204.162C1466.22 204.24 1466.12 204.324 1466.01 204.402C1465.54 204.781 1465.08 205.159 1464.61 205.544C1463.11 206.764 1460.98 206.716 1459.89 204.937C1457.85 201.566 1455.81 198.2 1453.76 194.829C1453.35 194.168 1453.26 193.423 1453.42 192.726Z" fill="#555B48"/>
<path d="M251.477 755.199C241.754 740.789 231.293 726.871 220.171 713.513C213.974 706.067 207.566 698.802 200.954 691.723C200.137 690.851 198.738 690.635 197.639 691.086C197.237 690.863 196.774 690.743 196.276 690.779C190.829 691.14 185.286 691.591 180.314 694.042C176.128 696.104 172.435 699.914 171.264 704.517C169.901 709.871 172.213 715.051 175.221 719.378C178.38 723.909 181.845 728.248 185.166 732.658C192.018 741.757 198.87 750.861 205.716 759.959C212.562 769.057 219.42 778.161 226.266 787.259C233.148 796.399 240.03 805.54 246.907 814.68C247.747 815.798 248.588 816.915 249.429 818.033C250.36 819.271 252.059 820.094 253.536 819.109C261.379 813.911 269.228 808.713 277.071 803.514C278.458 802.595 278.951 800.9 278.146 799.404C270.015 784.23 261.109 769.472 251.477 755.199ZM176.873 708.801C176.873 708.813 176.873 708.825 176.873 708.837C176.873 708.831 176.873 708.813 176.873 708.801ZM252.714 812.462C246.678 804.446 240.643 796.429 234.608 788.413C227.936 779.549 221.264 770.691 214.598 761.828C207.932 752.964 201.254 744.106 194.589 735.242C191.256 730.813 187.917 726.379 184.584 721.95C183.028 719.883 181.419 717.845 179.972 715.694C179.329 714.733 178.717 713.747 178.188 712.713C178.056 712.449 177.924 712.185 177.798 711.914C177.786 711.89 177.774 711.866 177.762 711.842C177.768 711.854 177.756 711.824 177.738 711.782C177.708 711.71 177.672 711.644 177.642 711.572C177.684 711.662 177.708 711.716 177.726 711.758C177.702 711.704 177.672 711.632 177.66 711.596C177.462 711.049 177.269 710.508 177.125 709.943C177.053 709.667 176.993 709.384 176.939 709.102C176.933 709.066 176.915 709.012 176.903 708.951C176.903 708.909 176.897 708.867 176.897 708.801C176.855 708.218 176.837 707.648 176.879 707.065C176.885 706.987 176.891 706.914 176.897 706.836C176.945 706.626 176.975 706.416 177.029 706.205C177.089 705.959 177.155 705.713 177.233 705.472C177.269 705.37 177.299 705.268 177.341 705.166C177.341 705.16 177.347 705.154 177.347 705.148C177.335 705.16 177.329 705.166 177.317 705.178C177.329 705.166 177.341 705.142 177.353 705.13C177.419 704.955 177.455 704.907 177.461 704.931C177.516 704.799 177.558 704.661 177.594 704.589C177.708 704.36 177.834 704.138 177.96 703.922C178.092 703.699 178.224 703.489 178.368 703.273C178.428 703.183 178.494 703.092 178.554 703.002C178.596 702.942 178.639 702.882 178.687 702.822C178.819 702.648 178.771 702.702 178.554 702.996C178.428 702.84 180.464 701.037 180.668 700.869C180.698 700.845 180.776 700.779 180.842 700.731C180.848 700.725 180.854 700.725 180.854 700.719C181.071 700.569 181.281 700.418 181.497 700.274C181.935 699.986 182.38 699.721 182.842 699.475C183.07 699.355 183.305 699.234 183.539 699.126C183.629 699.084 183.797 699.006 183.863 698.976C184.44 698.736 185.034 698.531 185.635 698.345C186.842 697.966 188.079 697.69 189.328 697.474C189.598 697.426 189.862 697.384 190.133 697.342C190.175 697.336 190.337 697.311 190.445 697.293C190.493 697.287 190.541 697.281 190.553 697.281C191.19 697.203 191.82 697.137 192.457 697.077C193.73 696.957 195.003 696.873 196.27 696.789C196.606 696.765 196.937 696.693 197.255 696.572C202.936 702.678 208.467 708.909 213.841 715.285C216.616 718.578 219.348 721.902 222.039 725.261C223.384 726.944 224.717 728.632 226.044 730.327C226.32 730.681 226.597 731.036 226.873 731.39C227.035 731.601 227.203 731.817 227.365 732.027C227.401 732.076 227.431 732.112 227.455 732.142C227.479 732.178 227.509 732.214 227.552 732.268C228.236 733.157 228.915 734.046 229.593 734.936C239.952 748.577 249.633 762.735 258.575 777.344C263.115 784.759 267.451 792.295 271.6 799.933C265.313 804.115 259.013 808.286 252.714 812.462Z" fill="#231815"/>
<path d="M1594.47 130.8C1591.54 130.139 1588.9 131.827 1586.4 133.107C1582.97 134.88 1579.53 136.653 1576.09 138.425C1574.97 134.712 1573.84 130.998 1572.72 127.284C1573.08 127.23 1573.45 127.128 1573.8 126.96C1579.4 124.364 1583.17 118.667 1584.49 112.754C1586.08 105.693 1584.66 98.3612 1582.64 91.5346C1579.21 79.9365 1573.53 69.1017 1566.13 59.5589C1550.44 39.3255 1527.06 25.9247 1501.43 23.8695C1494.72 23.3286 1487.99 23.6412 1481.33 24.6567C1480.14 24.837 1478.93 25.0473 1477.74 25.2756C1477.67 25.1855 1477.62 25.0894 1477.54 25.0053C1477.19 24.5786 1476.83 24.1459 1476.48 23.7192C1476.49 23.7132 1476.49 23.7072 1476.51 23.7072C1476.68 23.6411 1476.93 23.551 1476.96 23.5389C1477.42 23.3827 1477.89 23.2566 1478.36 23.1544C1478.78 23.0643 1479.2 22.9921 1479.62 22.926C1479.72 22.914 1479.82 22.902 1479.92 22.89C1480.28 22.8479 1480.63 22.8119 1480.99 22.7758C1482.28 22.6436 1483.57 22.5114 1484.84 22.283C1487.21 21.8624 1489.44 20.9009 1491.21 19.2483C1492.91 17.6679 1494.11 15.2822 1493.94 12.9205C1493.58 8.07096 1489.12 5.19847 1485.1 3.3536C1481.18 1.5508 1477.06 0.493163 1472.76 0.126594C1464.69 -0.55847 1456.14 1.54479 1449.49 6.24409C1445.81 8.85214 1442.66 12.1693 1441.06 16.454C1439.49 20.6846 1440.31 25.2396 1443.06 28.7671C1445.81 32.2946 1450.44 33.6707 1454.62 31.9761C1455.82 31.4893 1456.95 30.9064 1458.08 30.2815C1458.53 30.0291 1458.99 29.7767 1459.46 29.5423C1459.56 29.4943 1459.8 29.386 1459.88 29.344C1460.12 29.2478 1460.37 29.1577 1460.62 29.0796C1460.92 28.9895 1461.21 28.9173 1461.52 28.8512C1461.53 28.8452 1461.57 28.8452 1461.61 28.8392C1461.67 28.8392 1461.74 28.8332 1461.75 28.8332C1461.95 28.8392 1462.14 28.8392 1462.33 28.8452C1462.35 28.8512 1462.36 28.8573 1462.38 28.8633C1462.44 28.8753 1462.51 28.8933 1462.57 28.9173C1462.62 28.9474 1462.68 28.9835 1462.73 29.0135C1462.73 29.0135 1462.74 29.0194 1462.74 29.0194C1462.79 29.0856 1462.87 29.1577 1462.93 29.2058C1462.94 29.2118 1462.95 29.2178 1462.95 29.2178C1462.95 29.2178 1462.95 29.2178 1462.95 29.2238C1463.02 29.2959 1463.03 29.338 1463.01 29.338C1463.03 29.368 1463.04 29.3921 1463.06 29.4221C1462.94 29.6144 1462.86 29.8247 1462.8 30.0411C1459.9 31.279 1457.41 32.3006 1454.15 33.6647C1447.33 36.5192 1440.55 39.4517 1433.8 42.4804C1428.59 44.818 1423.41 47.2278 1418.25 49.6736C1418.19 49.5474 1418.13 49.4211 1418.06 49.307C1417.51 48.4476 1416.73 47.9969 1415.87 47.9008L1415.88 47.8948C1415.89 47.8888 1415.89 47.8828 1415.91 47.8767C1416.03 47.7986 1416.15 47.7145 1416.27 47.6364C1416.65 47.4021 1417.05 47.2158 1417.46 47.0235C1417.47 47.0175 1417.48 47.0114 1417.49 47.0054C1417.51 46.9994 1417.53 46.9934 1417.55 46.9814C1417.86 46.8672 1418.18 46.741 1418.49 46.6208C1420.44 45.8817 1422.46 45.1786 1424.22 44.0308C1426.25 42.7088 1427.79 40.9661 1428.7 38.7066C1429.56 36.5612 1429.46 34.1515 1428.39 32.0963C1427.41 30.2034 1425.59 29.0135 1423.66 28.2563C1421.89 27.5652 1419.95 27.3669 1418.07 27.2527C1415.91 27.1265 1413.73 27.1326 1411.57 27.2768C1407.16 27.5592 1402.77 28.3284 1398.55 29.6204C1394.59 30.8343 1390.59 32.4268 1387.08 34.6382C1383.59 36.8377 1380.6 39.7341 1379.02 43.6101C1377.65 46.9874 1378.02 50.9415 1379.74 54.1265C1380.63 55.791 1382.04 57.3235 1383.71 58.2309C1386.02 59.4928 1388.62 59.577 1391.15 58.958C1392.31 58.6756 1393.42 58.2369 1394.54 57.8583C1395.06 57.684 1395.58 57.5158 1396.12 57.3835C1396.38 57.3174 1396.65 57.2633 1396.92 57.2093C1396.94 57.2032 1396.95 57.2032 1396.97 57.2032C1397.13 57.1852 1397.3 57.1792 1397.46 57.1732C1397.69 57.1672 1397.9 57.1792 1398.12 57.1972C1398.23 57.2153 1398.37 57.2333 1398.48 57.2633C1398.54 57.2934 1398.6 57.3174 1398.65 57.3475C1398.75 57.3955 1398.85 57.4556 1398.94 57.5157C1398.99 57.5518 1399.03 57.5758 1399.06 57.5939C1399.09 57.6299 1399.13 57.666 1399.17 57.7081C1399.19 57.7321 1399.2 57.7561 1399.23 57.7921C1399.27 57.8522 1399.3 57.9124 1399.33 57.9725C1399.34 57.9905 1399.34 58.0145 1399.35 58.0325C1399.35 58.0746 1399.34 58.1107 1399.34 58.1407C1399.31 58.3931 1399.31 58.6455 1399.33 58.9039C1388.86 64.1741 1378.51 69.6546 1368.25 75.3334C1367.95 74.0895 1366.95 73.122 1365.64 72.9958C1365.61 72.9237 1365.59 72.8516 1365.57 72.7795C1365.56 72.7434 1365.55 72.7133 1365.55 72.6893C1365.55 72.5871 1365.55 72.485 1365.55 72.3828C1365.57 72.3047 1365.6 72.1905 1365.62 72.1064C1365.64 72.0824 1365.65 72.0583 1365.66 72.0403C1365.7 71.9802 1365.74 71.9141 1365.78 71.854C1365.82 71.7999 1365.84 71.7699 1365.86 71.7399C1365.92 71.6798 1365.98 71.6257 1366 71.6077C1366.15 71.4514 1366.31 71.3131 1366.47 71.1629C1366.57 71.0908 1366.67 71.0247 1366.77 70.9586C1368.16 70.0452 1369.74 69.4864 1371.23 68.7532C1373.08 67.8398 1374.73 66.6079 1375.89 64.8952C1378.3 61.3677 1376.96 56.41 1373.87 53.7599C1370.51 50.8874 1366.02 50.5089 1361.79 50.9476C1353.7 51.7889 1345.75 54.6854 1339.25 59.631C1336.02 62.0949 1333.22 65.0514 1331.8 68.9335C1330.55 72.3528 1330.97 76.3911 1333.05 79.4138C1334.31 81.2466 1335.96 82.6768 1338.07 83.428C1340.48 84.2813 1342.97 83.7706 1345.24 82.791C1346.25 82.3584 1347.21 81.8295 1348.19 81.3488C1348.34 81.2767 1348.5 81.2046 1348.65 81.1324C1348.61 81.1625 1349.3 80.886 1349.38 80.862C1349.64 80.7779 1349.91 80.7238 1350.17 80.6517C1350.23 80.6336 1350.27 80.6217 1350.3 80.6096C1350.33 80.6096 1350.37 80.6157 1350.43 80.6157C1350.65 80.6217 1350.86 80.6156 1351.08 80.6276C1351.25 80.6577 1351.49 80.6998 1351.22 80.6577C1351.22 80.6577 1351.22 80.6577 1351.22 80.6517C1351.22 80.6517 1351.22 80.6517 1351.22 80.6577C1351.21 80.6577 1351.19 80.6517 1351.17 80.6457C1350.75 80.5796 1351.2 80.6998 1351.34 80.7599C1351.4 80.814 1351.46 80.868 1351.51 80.9281C1351.52 80.9281 1351.52 80.9341 1351.52 80.9341C1351.52 80.9401 1351.52 80.9401 1351.52 80.9461C1351.54 80.9641 1351.55 80.9822 1351.55 81.0002C1351.22 82.196 1351.44 83.5242 1352.47 84.2994C1347.36 87.262 1342.28 90.2606 1337.23 93.3253C1335.65 94.2808 1333.32 95.1823 1332.69 97.0452C1332.22 98.4634 1331.9 99.9297 1331.43 101.354C1330.55 104.028 1329.51 106.642 1328.29 109.178C1323.26 119.664 1315.66 129.039 1306.18 135.811C1304.18 137.236 1302.1 138.546 1299.96 139.747C1299.18 139.537 1298.3 139.657 1297.59 140.036C1244.24 168.394 1190.89 196.764 1137.56 225.134C1076.86 257.416 1016.17 289.71 955.481 321.999C897.608 352.79 839.735 383.588 781.857 414.386C754.148 392.782 718.927 382.386 684.199 380.091C667.948 379.015 651.47 379.754 635.478 382.933C617.294 386.557 599.536 393.936 583.172 402.536C567.546 410.75 552.995 420.978 540.042 432.979C526.38 445.635 515.282 460.285 504.118 475.11C491.838 491.408 477.875 506.461 458.826 514.676C440.691 522.5 420.423 524.495 400.857 523.419C357.199 521.016 316.261 502.777 273.311 496.083C265.835 494.917 258.514 493.253 250.954 492.507C234.391 490.879 217.6 491.594 201.224 494.557C178.8 498.619 158.676 507.705 139.147 519.207C123.72 528.293 108.755 538.25 94.8043 549.488C87.604 555.287 80.5718 561.434 74.3564 568.297C67.6725 575.671 61.9615 584.03 56.2985 592.178C32.1873 626.9 13.2165 665.853 4.73709 707.461C-3.23192 746.564 -1.45433 788.059 12.4179 825.659C16.8738 837.732 22.5788 849.017 29.3587 859.516C29.3708 859.828 29.4488 860.159 29.593 860.513C56.2504 924.885 106.875 977.359 172.795 1001.41C210.922 1015.33 251.374 1018.52 291.615 1015.51C333.064 1012.42 374.218 1003.53 412.604 987.394C444.09 974.156 473.756 956.122 498.75 932.721C510.394 921.82 520.945 909.742 529.953 896.563C543.255 877.105 553.205 855.658 564.123 834.829C574.254 815.503 585.424 796.478 600.527 780.565C615.847 764.418 634.499 753.265 656.394 748.74C679.328 744.004 702.965 745.464 726.212 744.239C747.404 743.121 768.002 739.311 787.105 729.738C804.292 721.127 819.678 708.669 831.652 693.616C842.474 680.011 850.077 664.525 855.469 648.059C868.182 609.239 869.335 566.386 857.979 527.109C854.809 516.136 850.617 505.487 845.657 495.212C892.558 470.465 939.465 445.737 986.396 421.062C1039.72 393.035 1093.11 365.134 1146.51 337.244C1188.03 315.563 1229.54 293.881 1271.06 272.199C1302.35 255.86 1333.63 239.484 1364.91 223.127C1366.3 222.4 1367.7 221.667 1369.1 220.94C1370.89 220.002 1370.94 217.586 1369.7 216.222C1369.26 215.741 1368.83 215.261 1368.4 214.78C1379.55 209.642 1391.9 207.256 1404.24 207.767C1407.59 207.905 1410.69 208.224 1413.78 208.765C1416.1 209.167 1418.37 209.702 1420.73 209.822C1422.39 209.906 1424.12 208.566 1425.54 207.797C1427.26 206.866 1428.99 205.934 1430.7 205.003C1434.09 203.176 1437.47 201.343 1440.86 199.516C1441.05 199.414 1441.24 199.312 1441.43 199.204C1441.45 199.216 1441.46 199.234 1441.48 199.252C1441.76 199.45 1442.03 199.648 1442.3 199.853C1442.4 199.925 1442.5 200.003 1442.59 200.075C1442.59 200.075 1442.59 200.075 1442.6 200.081C1443.09 200.49 1443.58 200.886 1444.04 201.331C1444.28 201.566 1444.51 201.806 1444.73 202.064C1444.8 202.148 1444.88 202.232 1444.95 202.317C1444.95 202.329 1444.95 202.335 1444.97 202.347C1445.1 202.587 1445.27 202.809 1445.4 203.056C1445.43 203.104 1445.51 203.236 1445.57 203.344C1445.58 203.368 1445.58 203.386 1445.6 203.416C1445.7 203.717 1445.78 204.017 1445.86 204.324C1445.86 204.33 1445.86 204.336 1445.87 204.342C1445.88 204.426 1445.89 204.528 1445.89 204.57C1445.9 204.732 1445.92 204.949 1445.91 205.141C1445.9 205.183 1445.87 205.231 1445.86 205.261C1445.85 205.291 1445.81 205.411 1445.78 205.52C1445.73 205.628 1445.63 205.826 1445.59 205.892C1445.58 205.916 1445.54 205.958 1445.51 206C1445.4 206.115 1445.3 206.235 1445.18 206.343C1445.17 206.355 1445.15 206.367 1445.13 206.379C1445.24 206.307 1445.29 206.295 1445.09 206.415C1445.06 206.433 1445.04 206.451 1445.02 206.469C1444.98 206.499 1444.95 206.529 1444.92 206.565C1444.95 206.535 1444.98 206.505 1445.02 206.469C1445.03 206.457 1445.04 206.445 1445.06 206.433C1445.05 206.433 1445.05 206.439 1445.04 206.439C1444.87 206.541 1444.7 206.649 1444.52 206.746C1444.39 206.818 1443.79 207.046 1444.24 206.896C1444.74 206.733 1444.04 206.968 1443.93 207.01C1443.66 207.106 1443.4 207.19 1443.13 207.268C1442.21 207.545 1441.26 207.755 1440.32 207.977C1438.26 208.47 1436.11 209.077 1434.4 210.363C1430.22 213.494 1428.46 219.185 1430.02 224.173C1431.62 229.287 1435.92 232.97 1440.86 234.719C1446.12 236.582 1452.09 236.155 1457.43 234.893C1462.06 233.806 1466.54 231.865 1470.52 229.281C1474.67 226.588 1478.27 223.241 1481.29 219.329C1484.28 215.447 1486.7 210.934 1486.98 205.952C1487.12 203.519 1486.56 200.856 1485.14 198.849C1483.54 196.614 1481.27 195.033 1478.58 194.42C1473.19 193.189 1468.07 195.382 1463.81 198.579C1463.64 198.711 1463.47 198.843 1463.3 198.975C1461.85 196.584 1460.4 194.198 1458.95 191.806C1458.61 191.241 1458.07 190.803 1457.46 190.556C1465.53 186.194 1473.6 181.831 1481.67 177.474C1488 174.055 1494.32 170.635 1500.65 167.216C1503.06 169.992 1505.47 172.769 1507.88 175.545C1507.85 175.575 1507.82 175.605 1507.79 175.629C1507.78 175.641 1507.56 175.809 1507.47 175.876C1507.36 175.954 1507.25 176.038 1507.13 176.116C1506.9 176.266 1506.68 176.41 1506.45 176.549C1505.96 176.855 1505.46 177.138 1504.95 177.402C1502.98 178.436 1500.9 179.247 1498.97 180.341C1494.82 182.69 1490.83 186.674 1491.16 191.83C1491.48 196.788 1495.21 200.61 1499.45 202.767C1503.98 205.075 1509.32 205.97 1514.36 205.904C1524.39 205.772 1534.09 201.469 1540.81 194.006C1543.99 190.478 1546.53 186.374 1548.11 181.891C1549.51 177.901 1549.99 173.147 1548.64 169.073C1547.94 166.994 1546.81 164.993 1545.13 163.544C1542.98 161.688 1540.43 160.726 1537.61 160.498C1532.13 160.059 1527.26 162.944 1523.13 166.219C1523.11 166.237 1523.09 166.255 1523.06 166.273C1521.38 163.605 1519.69 160.936 1518.01 158.268C1517.94 158.16 1517.86 158.052 1517.77 157.956C1519.4 157.078 1521.02 156.201 1522.64 155.324C1534.41 148.966 1546.17 142.614 1557.93 136.256C1559.11 138.912 1560.3 141.568 1561.48 144.224C1556.05 147.391 1550.62 150.564 1545.19 153.731C1543.84 154.518 1543.23 156.477 1544.12 157.842C1551.63 169.374 1567.49 174.992 1580.44 169.836C1587.04 167.21 1592.52 162.319 1595.97 156.111C1597.64 153.124 1598.88 149.837 1599.46 146.466C1600.05 143.071 1600.37 139.116 1599.28 135.781C1598.53 133.474 1596.95 131.358 1594.47 130.8ZM1593.81 138.618C1593.79 138.528 1593.78 138.443 1593.78 138.443C1593.78 138.437 1593.79 138.522 1593.81 138.618ZM1487.81 13.9541C1487.83 13.912 1487.87 13.8219 1487.94 13.6476C1487.94 13.7257 1487.88 13.8459 1487.81 13.9541ZM1487.85 12.7041C1487.83 12.65 1487.8 12.5779 1487.75 12.4517C1487.8 12.5178 1487.83 12.608 1487.85 12.7041ZM1487.42 12.001C1487.39 11.959 1487.35 11.9109 1487.3 11.8448C1487.31 11.8448 1487.36 11.9229 1487.42 12.001ZM1446.24 21.5859C1446.25 21.6941 1446.27 21.8083 1446.28 21.9164C1446.24 21.7422 1446.21 21.5979 1446.24 21.5859ZM1447.46 24.7349C1447.49 24.7769 1447.55 24.849 1447.64 24.9752C1447.6 24.9632 1447.53 24.849 1447.46 24.7349ZM1462.83 29.0856C1462.86 29.1036 1462.88 29.1216 1462.91 29.1397C1462.92 29.1457 1462.92 29.1517 1462.92 29.1637C1462.89 29.1397 1462.86 29.1157 1462.83 29.0856ZM1462.94 29.1757C1462.94 29.1697 1462.94 29.1637 1462.93 29.1577C1462.96 29.1697 1462.97 29.1817 1462.97 29.1817C1462.96 29.1877 1462.96 29.1817 1462.94 29.1757ZM1461.49 22.8479C1458.97 23.0162 1456.76 24.1459 1454.59 25.3478C1454.14 25.5941 1453.69 25.8406 1453.23 26.0689C1453.07 26.147 1452.92 26.2131 1452.76 26.2852C1452.67 26.3153 1452.36 26.4355 1452.31 26.4535C1452.07 26.5316 1451.83 26.6037 1451.58 26.6638C1451.47 26.6879 1450.97 26.7359 1451.11 26.7359C1451 26.742 1450.89 26.748 1450.79 26.748C1450.71 26.748 1450.64 26.742 1450.57 26.742C1450.4 26.6458 1449.78 26.5436 1449.55 26.4895C1449.44 26.4114 1449.29 26.3574 1449.17 26.2913C1449 26.1951 1448.85 26.0809 1448.68 25.9848C1448.67 25.9788 1448.65 25.9727 1448.65 25.9667C1448.31 25.6603 1447.97 25.3538 1447.67 25.0053C1447.63 24.9512 1447.59 24.9031 1447.54 24.849C1447.5 24.7949 1447.47 24.7589 1447.45 24.7349C1447.38 24.6267 1447.33 24.5125 1447.3 24.4764C1447.09 24.1279 1446.91 23.7673 1446.71 23.4067C1446.71 23.4007 1446.71 23.4007 1446.71 23.4007C1446.7 23.3887 1446.7 23.3827 1446.7 23.3707C1446.64 23.1784 1446.56 22.9861 1446.51 22.7878C1446.49 22.7217 1446.36 22.271 1446.28 21.9465C1446.27 21.8263 1446.26 21.7061 1446.24 21.5859C1446.23 21.3816 1446.23 21.1833 1446.23 20.979C1446.23 20.7747 1446.24 20.5764 1446.25 20.3721C1446.26 20.294 1446.26 20.2158 1446.27 20.1437C1446.31 19.8012 1446.31 19.8372 1446.25 20.2579C1446.2 19.8853 1446.45 19.2844 1446.55 18.9238C1446.62 18.7075 1446.68 18.4912 1446.76 18.2748C1446.8 18.1546 1446.85 18.0404 1446.89 17.9202C1447.26 17.1691 1447.66 16.4419 1448.12 15.7509C1448.24 15.5706 1448.37 15.3422 1448.53 15.186C1448.02 15.6968 1448.54 15.174 1448.64 15.0598C1448.98 14.6392 1449.35 14.2305 1449.73 13.8399C1450.39 13.1669 1451.1 12.5539 1451.82 11.953C1451.84 11.9289 1451.87 11.9169 1451.88 11.8989C1451.9 11.8869 1451.92 11.8748 1451.95 11.8508C1452.14 11.7126 1452.32 11.5744 1452.51 11.4422C1452.88 11.1778 1453.27 10.9194 1453.65 10.673C1454.42 10.1802 1455.22 9.7175 1456.03 9.29684C1456.44 9.08652 1456.85 8.88219 1457.26 8.68989C1457.47 8.59375 1457.68 8.50362 1457.89 8.40747C1457.91 8.40146 1457.92 8.39544 1457.94 8.38943C1458.03 8.34736 1458.14 8.3113 1458.23 8.26923C1459.94 7.59018 1461.7 7.06138 1463.49 6.67678C1463.94 6.58063 1464.39 6.4905 1464.84 6.41839C1465.07 6.38233 1465.3 6.34628 1465.52 6.31022C1465.56 6.30421 1465.58 6.29819 1465.61 6.29218C1465.62 6.29218 1465.62 6.29218 1465.64 6.29218C1466.55 6.19002 1467.46 6.09987 1468.38 6.06382C1470.22 5.9857 1472.3 5.90158 1474.11 6.29819C1473.28 6.11791 1474.46 6.3583 1474.67 6.38835C1475.12 6.46647 1475.57 6.55059 1476.03 6.64674C1477 6.85106 1477.96 7.09744 1478.91 7.39189C1479.78 7.66231 1480.64 7.9808 1481.5 8.31732C1481.5 8.32333 1481.51 8.32333 1481.51 8.32333C1481.69 8.40146 1481.86 8.47959 1482.04 8.55771C1482.52 8.78005 1483 9.01441 1483.48 9.2668C1484.29 9.69347 1485.09 10.1442 1485.84 10.655C1486.01 10.7691 1486.21 10.8893 1486.37 11.0275C1486.43 11.0876 1486.48 11.1357 1486.51 11.1597C1486.68 11.31 1486.85 11.4662 1487.01 11.6225C1487.12 11.7306 1487.22 11.8388 1487.32 11.947C1487.39 12.0311 1487.43 12.0732 1487.45 12.0912C1487.48 12.1453 1487.51 12.1933 1487.53 12.2114C1487.6 12.3315 1487.68 12.4578 1487.75 12.584C1487.8 12.6921 1487.83 12.7402 1487.84 12.7582C1487.86 12.8724 1487.88 12.9866 1487.91 13.0707C1487.91 13.0767 1487.91 13.0767 1487.91 13.0827C1487.92 13.1729 1487.92 13.263 1487.92 13.3471C1487.92 13.3712 1487.93 13.3832 1487.93 13.4012C1487.9 13.5274 1487.87 13.6536 1487.83 13.7798C1487.78 13.906 1487.77 13.9601 1487.77 13.9661C1487.71 14.0562 1487.65 14.1464 1487.62 14.2005C1487.57 14.2966 1487.5 14.3867 1487.44 14.4769C1487.3 14.6271 1487.16 14.7834 1487.01 14.9276C1486.91 15.0297 1486.8 15.1259 1486.69 15.222C1486.44 15.4324 1486.47 15.4083 1486.78 15.1559C1486.59 15.4444 1485.95 15.6607 1485.65 15.829C1485.63 15.841 1485.61 15.853 1485.59 15.865C1485.57 15.8711 1485.55 15.8771 1485.53 15.8831C1485.19 15.9913 1484.86 16.1114 1484.51 16.2016C1483.91 16.3638 1483.3 16.466 1482.69 16.5741C1482.65 16.5801 1482.61 16.5862 1482.58 16.5922C1482.54 16.5982 1482.49 16.5982 1482.43 16.6042C1482.08 16.6403 1481.72 16.6823 1481.37 16.7184C1480.75 16.7845 1480.13 16.8446 1479.5 16.9167C1478.32 17.0609 1477.13 17.2171 1475.98 17.5416C1473.38 18.2688 1471.24 19.6209 1469.62 21.7843C1468.78 22.908 1469.31 24.4764 1470.09 25.4259C1470.48 25.8886 1470.86 26.3453 1471.24 26.8081C1470.41 27.0544 1469.59 27.3188 1468.77 27.6073C1468.57 26.9823 1468.27 26.3814 1467.88 25.8526C1466.39 23.7914 1464.08 22.6797 1461.49 22.8479ZM1463.13 29.5423C1463.29 29.7887 1463.22 29.6805 1463.13 29.5423V29.5423ZM1463.13 29.6384C1463.13 29.6264 1463.12 29.6204 1463.12 29.6084C1463.12 29.6024 1463.12 29.5964 1463.12 29.5904C1463.13 29.6084 1463.13 29.6204 1463.13 29.6384ZM1463.07 29.4341C1463.09 29.4822 1463.1 29.5242 1463.11 29.5543C1463.11 29.5603 1463.11 29.5663 1463.11 29.5723C1463.09 29.5122 1463.08 29.4642 1463.07 29.4341ZM1463.07 29.4101C1463.07 29.4041 1463.07 29.4041 1463.07 29.4161C1463.07 29.4161 1463.07 29.4221 1463.07 29.4221C1463.07 29.4161 1463.07 29.4161 1463.07 29.4101ZM1463.04 29.314C1463.04 29.32 1463.04 29.344 1463.05 29.3741C1463.04 29.35 1463.04 29.326 1463.04 29.314ZM1463.07 29.4161C1463.07 29.4221 1463.07 29.4221 1463.07 29.4221C1463.07 29.4221 1463.07 29.4221 1463.07 29.4161ZM1423.06 36.8136C1423.06 36.8076 1423.06 36.7956 1423.07 36.7895C1423.06 36.7956 1423.06 36.8016 1423.06 36.8136ZM1423.29 36.0143C1423.3 35.9542 1423.32 35.8461 1423.33 35.6838C1423.36 35.7439 1423.33 35.8821 1423.29 36.0143ZM1423.14 34.9387C1423.12 34.9147 1423.09 34.8846 1423.08 34.8606C1423.12 34.9026 1423.14 34.9387 1423.14 34.9387ZM1422.75 34.506C1422.75 34.506 1422.72 34.4759 1422.67 34.4399C1422.72 34.4699 1422.75 34.5 1422.75 34.506ZM1387.42 53.3393C1387.56 53.3573 1387.69 53.3753 1387.83 53.3933C1387.66 53.3933 1387.5 53.3874 1387.42 53.3393ZM1398.54 57.2934C1398.62 57.3174 1398.68 57.3354 1398.69 57.3595C1398.64 57.3354 1398.59 57.3174 1398.54 57.2934ZM1398.86 57.4557C1398.88 57.4617 1398.94 57.5038 1399 57.5578C1398.96 57.5278 1398.92 57.4977 1398.86 57.4557ZM1399.23 57.7802C1399.26 57.8162 1399.29 57.8462 1399.3 57.8703C1399.3 57.8763 1399.31 57.8823 1399.31 57.8883C1399.28 57.8462 1399.25 57.8102 1399.23 57.7802ZM1395.33 51.4343C1393.25 51.8069 1391.35 52.7864 1389.3 53.2431C1389.24 53.2551 1388.9 53.3092 1388.79 53.3333C1388.6 53.3513 1388.41 53.3693 1388.22 53.3693C1388.13 53.3693 1387.98 53.3813 1387.83 53.3873C1387.72 53.3693 1387.6 53.3453 1387.5 53.3212C1387.35 53.2852 1387.18 53.2191 1387.02 53.159C1386.98 53.153 1386.89 53.1349 1386.8 53.0869C1386.75 53.0748 1386.7 53.0569 1386.65 53.0508C1386.7 53.0569 1386.73 53.0628 1386.77 53.0688C1386.76 53.0628 1386.75 53.0628 1386.74 53.0568C1386.55 52.9546 1386.38 52.8345 1386.2 52.7143C1386.12 52.6362 1386.04 52.5701 1385.96 52.4919C1385.83 52.3717 1385.71 52.2456 1385.59 52.1133C1385.59 52.1073 1385.59 52.1073 1385.59 52.1013C1385.59 52.1254 1385.6 52.1434 1385.61 52.1674C1385.6 52.1374 1385.58 52.1074 1385.56 52.0773C1385.47 51.9692 1385.44 51.885 1385.43 51.849C1385.29 51.6507 1385.12 51.4463 1385.02 51.26C1384.96 51.1518 1384.9 51.0497 1384.84 50.9416C1384.82 50.8935 1384.79 50.8394 1384.77 50.7853C1384.78 50.5389 1384.49 49.998 1384.42 49.7577C1384.34 49.4692 1384.29 49.1808 1384.23 48.8924C1384.22 48.7061 1384.2 48.5258 1384.2 48.3395C1384.19 47.9729 1384.2 47.6124 1384.23 47.2458C1384.22 47.2578 1384.22 47.2638 1384.21 47.2758C1384.22 47.2638 1384.22 47.2458 1384.23 47.2278C1384.23 47.1917 1384.23 47.1556 1384.23 47.1256C1384.25 46.9633 1384.27 46.8973 1384.29 46.8913C1384.3 46.8312 1384.31 46.7711 1384.32 46.735C1384.41 46.3564 1384.53 46.0018 1384.65 45.6353C1384.65 45.6293 1384.66 45.6233 1384.66 45.6113C1384.74 45.449 1384.82 45.2807 1384.9 45.1185C1385.14 44.6558 1385.41 44.2111 1385.71 43.7784C1385.75 43.7183 1385.79 43.6582 1385.83 43.5981C1386.03 43.3337 1386.01 43.3577 1385.77 43.6702C1385.8 43.5741 1385.98 43.4118 1386.05 43.3217C1386.34 42.9792 1386.64 42.6486 1386.96 42.3241C1387.28 42.0056 1387.62 41.6932 1387.96 41.3987C1388.07 41.2966 1388.19 41.2004 1388.31 41.1043C1388.38 41.0442 1388.45 40.9901 1388.52 40.93C1388.55 40.912 1388.56 40.8939 1388.61 40.8699C1390.09 39.8243 1391.63 38.9049 1393.26 38.1056C1393.69 37.8953 1394.12 37.697 1394.55 37.4987C1394.8 37.3845 1395.04 37.2763 1395.3 37.1681C1395.35 37.1441 1395.4 37.1261 1395.43 37.1081C1395.47 37.09 1395.52 37.072 1395.58 37.048C1396.59 36.6454 1397.6 36.2607 1398.62 35.9122C1400.59 35.2452 1402.59 34.6923 1404.62 34.2596C1405.6 34.0493 1406.57 33.869 1407.55 33.7188C1407.73 33.6887 1407.91 33.6647 1408.09 33.6407C1408.12 33.6407 1408.57 33.5746 1408.63 33.5686C1409.26 33.4904 1409.89 33.4303 1410.52 33.3762C1412.59 33.2019 1414.67 33.1419 1416.74 33.214C1417.65 33.2441 1418.55 33.3101 1419.45 33.3822C1419.47 33.3822 1419.48 33.3822 1419.5 33.3882C1419.7 33.4243 1419.9 33.4544 1420.1 33.4904C1420.51 33.5686 1420.91 33.6707 1421.31 33.7909C1421.5 33.851 1421.7 33.9231 1421.89 33.9832C1421.9 33.9892 1421.91 33.9952 1421.92 34.0012C1421.97 34.0313 1422.4 34.2536 1422.63 34.3918C1422.67 34.4219 1422.7 34.4579 1422.76 34.512C1422.78 34.524 1422.9 34.6442 1423 34.7524C1423.04 34.8185 1423.09 34.8846 1423.13 34.9567C1423.16 35.0047 1423.18 35.0588 1423.21 35.1129C1423.22 35.143 1423.22 35.155 1423.23 35.191C1423.24 35.2391 1423.27 35.3894 1423.3 35.4915C1423.3 35.5396 1423.3 35.5816 1423.3 35.6297C1423.3 35.7018 1423.3 35.768 1423.3 35.8401C1423.29 35.9483 1423.29 36.0143 1423.29 36.0384C1423.26 36.1405 1423.22 36.2427 1423.21 36.2908C1423.18 36.3809 1423.15 36.5252 1423.12 36.6513C1423.1 36.6814 1423.08 36.7234 1423.04 36.7835C1422.93 36.9758 1422.84 37.1681 1422.72 37.3604C1422.65 37.4686 1422.58 37.5707 1422.51 37.6729C1422.28 37.9313 1422.03 38.1717 1421.78 38.4061C1421.7 38.4662 1421.47 38.6585 1421.42 38.7005C1421.14 38.8868 1420.86 39.0611 1420.57 39.2294C1420.1 39.4998 1419.62 39.7341 1419.12 39.9565C1419.06 39.9805 1418.94 40.0346 1418.85 40.0706C1418.6 40.1728 1418.34 40.2749 1418.09 40.3711C1415.88 41.2244 1413.59 41.9576 1411.77 43.538C1409.62 45.3949 1408.89 48.2373 1410.08 50.8273C1410.43 51.6025 1410.98 52.2936 1411.64 52.8344C1409.42 53.9041 1407.21 54.9798 1405.01 56.0735C1404.55 54.7034 1403.62 53.5075 1402.35 52.5761C1400.29 51.1038 1397.73 51.0016 1395.33 51.4343ZM1414.45 48.0571C1414.28 48.1111 1414.12 48.1652 1413.96 48.2374C1414.09 48.1773 1414.22 48.1232 1414.36 48.0631C1414.39 48.0631 1414.42 48.0571 1414.45 48.0571ZM1365.71 71.9502C1365.72 71.9201 1365.76 71.8661 1365.81 71.812C1365.78 71.848 1365.75 71.8901 1365.71 71.9502ZM1370.99 61.4519C1371 61.4218 1371.02 61.3918 1371.03 61.3677C1371.02 61.4158 1371 61.4519 1370.99 61.4519ZM1371.14 61.0492C1371.14 61.0252 1371.14 61.0072 1371.15 60.9831C1371.14 61.0192 1371.14 61.0492 1371.14 61.0492ZM1338.11 76.2529C1338.15 76.3009 1338.17 76.3249 1338.2 76.361C1338.14 76.3009 1338.11 76.2589 1338.11 76.2529ZM1351.62 80.85C1351.62 80.8259 1351.63 80.8019 1351.63 80.7659C1351.66 80.7118 1351.7 80.6036 1351.76 80.4414C1351.7 80.5796 1351.66 80.7178 1351.62 80.85ZM1349.11 74.7685C1346.97 75.111 1345.09 76.2468 1343.16 77.1783C1342.98 77.2684 1342.79 77.3586 1342.59 77.4427C1342.54 77.4667 1342.48 77.4847 1342.45 77.4968C1342.01 77.635 1341.57 77.7732 1341.11 77.8633C1341.07 77.8693 1341.03 77.8693 1341 77.8693C1340.82 77.8693 1340.64 77.8633 1340.46 77.8633C1340.28 77.8153 1340.11 77.7852 1339.94 77.7311C1339.93 77.7311 1339.92 77.7251 1339.92 77.7251C1339.81 77.653 1339.54 77.5509 1339.48 77.5148C1339.37 77.4547 1339.27 77.3886 1339.16 77.3225C1339.16 77.3285 1339.17 77.3345 1339.17 77.3405C1339.17 77.3345 1339.16 77.3225 1339.15 77.3105C1338.8 77.0762 1338.92 77.1122 1339.04 77.1903C1338.86 77.016 1338.55 76.7456 1338.49 76.6795C1338.47 76.6675 1338.38 76.5653 1338.29 76.4632C1338.28 76.4391 1338.26 76.4211 1338.24 76.3851C1338.19 76.3069 1338.13 76.2228 1338.08 76.1387C1337.89 75.8322 1337.72 75.5137 1337.56 75.2012C1337.51 75.075 1337.46 74.9428 1337.42 74.8166C1337.32 74.4981 1337.24 74.1676 1337.16 73.8431C1337.15 73.8551 1337.15 73.8731 1337.14 73.8791C1337.15 73.8671 1337.15 73.8491 1337.16 73.8251C1337.15 73.8071 1337.15 73.783 1337.14 73.765C1337.07 73.5126 1337.1 73.4826 1337.14 73.5366C1337.12 73.3564 1337.09 73.1581 1337.09 73.098C1337.08 72.9417 1337.18 72.3167 1337.14 72.1545C1337.15 72.1304 1337.15 72.1004 1337.15 72.0763C1337.18 71.9261 1337.22 71.7759 1337.26 71.6256C1337.33 71.3131 1337.41 70.8625 1337.56 70.532C1337.59 70.4959 1337.62 70.4539 1337.64 70.4058C1337.77 70.1294 1337.9 69.8589 1338.05 69.5885C1338.24 69.2519 1338.44 68.9275 1338.65 68.603C1338.77 68.4107 1338.91 68.2244 1339.04 68.0321C1339.06 68.008 1339.07 67.996 1339.08 67.978C1339.1 67.96 1339.12 67.9359 1339.14 67.9059C1339.71 67.2569 1340.28 66.6199 1340.91 66.025C1341.23 65.7305 1341.55 65.442 1341.89 65.1596C1342.04 65.0334 1342.19 64.9072 1342.34 64.781C1342.38 64.7449 1342.54 64.6308 1342.64 64.5526C1343.33 64.0539 1344.02 63.5612 1344.73 63.1044C1346.39 62.0288 1348.13 61.0673 1349.93 60.238C1350.26 60.0817 1350.59 59.9375 1350.93 59.7933C1351.05 59.7452 1351.3 59.643 1351.34 59.625C1351.51 59.5589 1351.66 59.4989 1351.82 59.4388C1352.79 59.0662 1353.77 58.7296 1354.75 58.4352C1356.57 57.8883 1358.42 57.4557 1360.29 57.1552C1360.44 57.1312 1360.6 57.1071 1360.76 57.0831C1360.69 57.0951 1360.87 57.065 1360.98 57.047C1361.01 57.041 1361.03 57.041 1361.05 57.035C1361.02 57.041 1361.01 57.041 1360.99 57.047C1361 57.047 1361.02 57.041 1361.02 57.041C1361.53 56.9809 1362.05 56.9269 1362.56 56.8788C1363.5 56.8007 1364.44 56.7586 1365.38 56.7946C1365.64 56.8007 1365.89 56.8186 1366.14 56.8367C1366.22 56.8427 1366.58 56.8968 1366.64 56.8968C1366.96 56.9508 1367.28 57.017 1367.59 57.0951C1367.91 57.1792 1368.22 57.2814 1368.52 57.3956C1368.56 57.4196 1368.91 57.5759 1368.98 57.6119C1369.2 57.7381 1369.41 57.8883 1369.64 58.0205C1369.79 58.1587 1369.95 58.297 1370.09 58.4412C1370.21 58.5614 1370.31 58.6876 1370.42 58.8078C1370.43 58.8138 1370.43 58.8198 1370.43 58.8258C1370.54 59.0061 1370.66 59.1803 1370.77 59.3666C1370.8 59.4207 1371.17 59.9856 1370.9 59.577C1370.65 59.1984 1370.94 59.7032 1370.97 59.8053C1370.98 59.8474 1371.07 60.1058 1371.12 60.3221C1371.12 60.238 1371.13 60.214 1371.13 60.3402C1371.17 60.4784 1371.19 60.5925 1371.17 60.6045C1371.15 60.6166 1371.14 60.5805 1371.13 60.5264C1371.13 60.6226 1371.14 60.7668 1371.14 60.8749C1371.12 60.929 1371.12 60.9831 1371.11 61.0372C1371.11 61.0312 1371.08 61.1634 1371.05 61.2716C1371.01 61.3437 1370.97 61.4218 1370.93 61.4939C1370.88 61.5961 1370.81 61.7223 1370.73 61.8365C1370.7 61.8605 1370.67 61.8906 1370.64 61.9086C1370.43 62.1009 1370.23 62.3052 1370.02 62.4975C1370.01 62.5035 1370.01 62.5095 1370 62.5155C1369.98 62.5276 1369.96 62.5395 1369.93 62.5576C1369.74 62.6717 1369.56 62.8039 1369.37 62.9181C1368.99 63.1465 1368.6 63.3568 1368.19 63.5551C1367.32 63.9878 1366.41 64.3484 1365.53 64.769C1363.53 65.7245 1361.61 67.0586 1360.46 69.0056C1358.61 72.1424 1359.7 76.7336 1362.81 78.3682C1361.04 79.3657 1359.27 80.3633 1357.51 81.3668C1357.57 80.826 1357.54 80.2671 1357.41 79.6782C1357.17 78.5484 1356.53 77.4968 1355.74 76.6675C1354.02 74.8527 1351.52 74.3839 1349.11 74.7685ZM858.244 578.315C858.628 574.451 858.892 570.593 859.012 566.741C860.658 586.415 859.403 606.366 855.223 625.867C851.908 641.329 847.002 656.755 839.561 670.75C830.307 688.153 816.825 703.273 800.713 714.606C784.343 726.114 765.678 733.47 745.903 736.396C723.359 739.737 700.455 738.247 677.785 739.912C656.304 741.486 635.256 746.3 617.168 758.481C600.701 769.574 587.562 784.874 576.626 801.309C552.965 836.854 539.453 878.397 511.283 911.039C490.438 935.191 464.471 954.571 436.391 969.516C402.161 987.737 364.634 999.329 326.416 1005.46C285.652 1012.01 243.243 1013.44 202.809 1004.06C168.651 996.15 136.331 980.778 109.019 958.724C82.8538 937.595 61.505 910.961 45.8433 881.233C57.6857 894.622 71.4798 906.388 86.7512 916.52C122.531 940.251 164.027 956.68 205.8 966.109C248.75 975.802 293.573 977.695 336.931 969.504C374.464 962.413 410.292 946.434 441.153 923.978C469.948 903.029 494.492 876.48 512.273 845.574C524.74 823.904 537.352 802.319 549.8 780.637C554.304 772.795 558.893 764.869 564.465 757.729C570.122 750.476 577.611 744.779 585.208 739.695C602.371 728.224 621.93 720.718 642.216 717.094C686.889 709.12 733.442 716.091 776.89 700.599C795.519 693.958 811.853 683.562 824.981 668.695C838.162 653.762 848.966 636.167 853.824 616.702C856.935 604.251 856.977 591.054 858.244 578.315ZM852.31 547.787C853.506 558.195 853.229 568.543 852.172 578.952C850.863 591.878 850.845 605.2 847.332 617.754C841.831 637.392 830.085 655.018 816.009 669.567C786.018 700.557 740.162 704.559 699.566 706.446C677.167 707.485 654.364 707.876 632.427 712.972C613.27 717.419 594.792 725.429 578.758 736.859C571.654 741.925 564.904 747.399 559.553 754.334C554.424 760.98 550.065 768.192 545.855 775.445C539.105 787.073 532.409 798.725 525.653 810.353C512.033 833.802 499.446 857.839 481.713 878.541C457.133 907.23 426.098 930.221 391.729 945.828C354.581 962.696 313.829 969.564 273.167 968.573C229.557 967.509 186.355 957.45 146.113 940.786C108.61 925.258 71.696 903.978 45.5971 872.243C20.2428 841.415 7.62565 801.604 6.14234 762.026C4.59298 720.67 15.3244 679.854 33.3703 642.855C42.5284 624.082 53.482 606.21 65.6907 589.276C68.6633 585.153 71.708 581.091 74.8248 577.077C75.1911 576.608 75.5574 576.127 75.9297 575.659C75.9958 575.574 76.0738 575.478 76.1279 575.418C77.419 573.862 78.7582 572.353 80.1514 570.887C100.053 549.866 125.425 533.737 150.461 519.64C182.8 501.431 219.972 494.148 256.791 499.208C287.646 503.444 317.564 512.585 347.687 520.216C384.409 529.519 424.584 535.69 460.67 520.391C496.966 505.007 513.342 467.448 540.24 441.109C565.54 416.333 598.984 397.289 633.628 389.483C666.159 382.152 701.788 385.169 733.298 395.583C748.557 400.625 763.222 407.8 776.086 417.481C772.554 419.362 769.029 421.237 765.498 423.118C704.232 455.718 642.966 488.313 581.701 520.907C533.929 546.321 486.151 571.728 438.366 597.13C420.591 589.354 400.449 585.237 380.001 585.237C347.891 585.237 317.672 595.093 294.918 612.982C271.948 631.041 259.295 655.12 259.295 680.786C259.295 706.452 271.948 730.525 294.918 748.589C317.678 766.485 347.891 776.334 380.001 776.334C412.111 776.334 442.33 766.479 465.084 748.589C488.054 730.531 500.707 706.452 500.707 680.786C500.707 679.5 500.665 678.208 500.599 676.916C573.948 638.552 647.182 599.954 720.393 561.332C760.292 540.282 800.179 519.225 840.078 498.174C845.471 514.285 850.365 530.859 852.31 547.787ZM431.514 600.753L397.176 619.01L461.205 697.486L464.598 695.707C474.638 690.473 484.673 685.227 494.708 679.987C494.708 680.245 494.714 680.509 494.714 680.768C494.714 730.141 443.261 770.307 380.013 770.307C316.766 770.307 265.312 730.141 265.312 680.768C265.312 631.395 316.766 591.229 380.013 591.229C397.939 591.229 415.612 594.51 431.514 600.753ZM1272.51 264.676C1234.81 284.374 1197.1 304.055 1159.4 323.747C1111.13 348.956 1062.85 374.148 1014.63 399.453C926.296 445.821 838.084 492.417 749.854 538.984C666.675 582.882 583.478 626.756 500.143 670.36L500.137 670.264L462.76 689.89L406.46 620.885L445.327 600.225L445.321 600.219C484.673 579.294 524.026 558.376 563.372 537.445C624.068 505.163 684.757 472.869 745.447 440.581C808.778 406.88 872.11 373.186 935.442 339.486C996.707 306.885 1057.97 274.29 1119.24 241.696C1173.73 212.707 1228.23 183.724 1282.73 154.753C1287.98 151.964 1293.22 149.17 1298.47 146.382C1317.97 167.949 1337.47 189.517 1356.98 211.084C1358.9 213.218 1360.84 215.351 1362.77 217.49C1332.67 233.217 1302.59 248.955 1272.51 264.676ZM1436.01 217.586C1435.98 217.676 1435.95 217.761 1435.95 217.755C1435.94 217.737 1435.98 217.658 1436.01 217.586ZM1436.08 223.361C1436.1 223.385 1436.1 223.403 1436.1 223.409C1436.1 223.409 1436.1 223.385 1436.08 223.361ZM1437.13 225.11C1437.13 225.116 1437.18 225.182 1437.23 225.254C1437.19 225.2 1437.15 225.146 1437.13 225.11ZM1479.85 210.255C1479.89 210.159 1479.92 210.093 1479.94 210.039C1479.92 210.123 1479.88 210.237 1479.85 210.255ZM1476.51 200.117C1477 200.159 1476.55 200.135 1476.39 200.105C1476.43 200.111 1476.47 200.117 1476.51 200.117ZM1459.88 204.949C1460.96 206.733 1463.1 206.782 1464.6 205.556C1465.07 205.171 1465.53 204.793 1466 204.414C1466.1 204.336 1466.21 204.252 1466.31 204.174C1466.34 204.15 1466.46 204.053 1466.54 203.987C1466.58 203.957 1466.61 203.933 1466.62 203.927C1466.8 203.795 1466.96 203.669 1467.14 203.537C1468.1 202.821 1469.11 202.154 1470.16 201.571C1470.42 201.427 1470.69 201.289 1470.95 201.157C1471.06 201.103 1471.18 201.043 1471.3 200.989C1471.33 200.971 1471.47 200.91 1471.56 200.868C1471.6 200.856 1471.63 200.844 1471.64 200.838C1471.8 200.778 1471.95 200.718 1472.12 200.658C1472.41 200.556 1472.71 200.46 1473.02 200.376C1473.23 200.322 1473.43 200.267 1473.64 200.225C1473.74 200.207 1474.55 200.021 1474.09 200.129C1473.65 200.237 1474.42 200.099 1474.55 200.093C1474.84 200.075 1475.13 200.063 1475.42 200.063C1475.67 200.063 1475.92 200.075 1476.17 200.093C1476.24 200.099 1476.3 200.105 1476.36 200.111C1476.52 200.195 1476.9 200.207 1477.06 200.243C1477.33 200.31 1477.6 200.388 1477.87 200.478C1477.99 200.52 1478.55 200.802 1478.19 200.592C1477.8 200.364 1478.48 200.748 1478.58 200.808C1478.76 200.904 1478.93 201.019 1479.09 201.127C1479.19 201.217 1479.33 201.307 1479.41 201.379C1479.59 201.547 1479.75 201.734 1479.92 201.908C1479.96 201.968 1480.02 202.034 1480.04 202.064C1480.18 202.269 1480.31 202.479 1480.42 202.695C1480.47 202.779 1480.51 202.87 1480.55 202.954C1480.69 203.368 1480.82 203.789 1480.9 204.222C1480.91 204.27 1480.92 204.306 1480.93 204.336C1480.93 204.342 1480.93 204.348 1480.93 204.354C1480.94 204.636 1480.96 204.919 1480.97 205.201C1480.97 205.604 1481.05 206.343 1480.88 206.715C1480.88 206.715 1480.99 206.115 1480.91 206.463C1480.89 206.571 1480.88 206.679 1480.86 206.794C1480.81 207.088 1480.75 207.376 1480.67 207.671C1480.55 208.182 1480.4 208.693 1480.23 209.191C1480.15 209.444 1480.06 209.69 1479.96 209.943C1479.96 209.961 1479.95 209.997 1479.93 210.039C1479.93 210.051 1479.93 210.051 1479.92 210.069C1479.89 210.141 1479.86 210.207 1479.83 210.279C1478.96 212.238 1477.77 214.059 1476.49 215.772C1476.45 215.838 1476.4 215.898 1476.35 215.964C1476.34 215.97 1476.34 215.97 1476.34 215.976C1476.17 216.18 1476.01 216.39 1475.84 216.595C1475.5 217.003 1475.15 217.406 1474.8 217.803C1474.07 218.62 1473.3 219.407 1472.49 220.158C1471.7 220.91 1470.86 221.631 1470 222.316C1469.91 222.388 1469.82 222.454 1469.73 222.526C1469.46 222.736 1469.88 222.418 1469.89 222.406C1469.76 222.586 1469.43 222.748 1469.25 222.881C1468.79 223.217 1468.33 223.542 1467.85 223.854C1466.05 225.05 1464.16 226.102 1462.19 226.997C1461.95 227.105 1461.71 227.225 1461.46 227.316C1461.38 227.346 1461.3 227.376 1461.23 227.406C1460.74 227.604 1460.24 227.79 1459.74 227.965C1458.71 228.331 1457.66 228.65 1456.59 228.926C1455.57 229.19 1454.53 229.413 1453.48 229.587C1453.22 229.629 1452.96 229.665 1452.69 229.713C1452.69 229.713 1452.69 229.713 1452.68 229.713C1452.59 229.725 1452.48 229.737 1452.39 229.749C1451.71 229.827 1451.03 229.887 1450.35 229.924C1449.07 229.99 1447.8 229.978 1446.53 229.863C1446.4 229.851 1445.97 229.797 1445.93 229.797C1445.68 229.761 1445.43 229.719 1445.18 229.671C1444.52 229.545 1443.86 229.383 1443.21 229.19C1442.91 229.1 1442.61 228.998 1442.31 228.89C1442.19 228.842 1442.06 228.794 1441.93 228.746C1441.81 228.704 1441.75 228.68 1441.73 228.674C1441.78 228.692 1441.98 228.77 1441.98 228.776C1441.98 228.788 1441.87 228.746 1441.73 228.674C1441.35 228.493 1440.68 228.127 1440.59 228.073C1440.13 227.814 1439.69 227.532 1439.27 227.225C1439.21 227.183 1439.15 227.141 1439.09 227.093C1439.09 227.087 1439.09 227.087 1439.08 227.081C1438.86 226.883 1438.62 226.697 1438.41 226.492C1438.05 226.162 1437.72 225.819 1437.41 225.453C1437.38 225.417 1437.32 225.362 1437.27 225.302C1437.26 225.296 1437.26 225.29 1437.26 225.284C1437.09 225.044 1436.91 224.804 1436.76 224.557C1436.49 224.137 1436.27 223.692 1436.04 223.247C1435.99 223.145 1435.95 223.037 1435.94 223.007C1435.84 222.73 1435.75 222.448 1435.68 222.159C1435.62 221.925 1435.56 221.691 1435.51 221.45C1435.51 221.414 1435.5 221.384 1435.5 221.354C1435.5 221.342 1435.5 221.336 1435.5 221.324C1435.47 220.837 1435.45 220.357 1435.47 219.864C1435.48 219.696 1435.61 219.005 1435.5 219.431C1435.39 219.876 1435.56 219.155 1435.59 219.011C1435.71 218.506 1435.87 218.025 1436.04 217.538C1436.08 217.466 1436.12 217.4 1436.13 217.394C1436.22 217.208 1436.32 217.028 1436.42 216.853C1436.54 216.655 1436.67 216.469 1436.79 216.276C1436.85 216.204 1436.91 216.132 1436.97 216.066C1437.14 215.892 1437.3 215.717 1437.47 215.555C1437.51 215.513 1437.66 215.405 1437.74 215.339C1438.1 215.098 1438.46 214.876 1438.85 214.69C1438.88 214.678 1438.91 214.666 1438.94 214.648C1439.11 214.594 1439.28 214.522 1439.45 214.462C1439.92 214.305 1440.38 214.173 1440.85 214.047C1441.76 213.806 1442.68 213.608 1443.6 213.374C1445.67 212.851 1447.64 212.112 1449.28 210.712C1451.33 208.969 1452.12 206.199 1451.77 203.597C1451.4 200.814 1449.79 198.411 1447.72 196.572C1447.54 196.415 1447.36 196.259 1447.17 196.109C1449.25 194.985 1451.33 193.862 1453.42 192.738C1453.26 193.435 1453.34 194.18 1453.75 194.847C1455.8 198.206 1457.84 201.577 1459.88 204.949ZM1499.99 186.801C1499.99 186.801 1499.93 186.849 1499.87 186.897C1499.93 186.843 1499.99 186.795 1499.99 186.801ZM1525.9 197.491C1525.9 197.491 1525.9 197.497 1525.89 197.497C1526.01 197.449 1526.13 197.401 1525.9 197.491ZM1541.75 168.646C1541.73 168.622 1541.71 168.598 1541.72 168.598C1541.71 168.598 1541.73 168.616 1541.75 168.646ZM1538.08 166.561C1538.08 166.561 1537.99 166.543 1537.91 166.531C1537.98 166.531 1538.04 166.537 1538.08 166.561ZM1519.76 172.282C1520.85 174.013 1522.97 174.169 1524.47 172.889C1525.36 172.126 1526.25 171.363 1527.17 170.629C1527.27 170.545 1527.37 170.467 1527.47 170.383C1527.48 170.377 1527.53 170.341 1527.57 170.305C1527.62 170.269 1527.68 170.227 1527.69 170.221C1527.79 170.143 1527.9 170.065 1528 169.986C1528.49 169.626 1528.99 169.283 1529.49 168.953C1530.43 168.346 1531.41 167.811 1532.42 167.348C1532.5 167.312 1532.66 167.252 1532.76 167.216C1533.02 167.12 1533.29 167.036 1533.55 166.952C1534.05 166.801 1534.55 166.675 1535.07 166.585C1535.14 166.573 1535.21 166.555 1535.29 166.543C1535.31 166.543 1535.32 166.543 1535.35 166.543C1535.59 166.531 1535.82 166.501 1536.06 166.489C1536.61 166.465 1537.17 166.471 1537.72 166.519C1537.75 166.519 1537.77 166.519 1537.81 166.525C1537.83 166.531 1537.84 166.531 1537.86 166.537C1538.13 166.603 1538.4 166.645 1538.66 166.711C1538.89 166.771 1539.11 166.838 1539.33 166.916C1539.43 166.946 1539.52 166.988 1539.62 167.018C1539.64 167.03 1539.66 167.048 1539.69 167.06C1540.1 167.282 1540.49 167.511 1540.87 167.769C1540.89 167.793 1540.91 167.811 1540.95 167.853C1541.12 168.009 1541.28 168.16 1541.44 168.322C1541.57 168.46 1541.7 168.616 1541.83 168.755C1541.85 168.785 1541.87 168.815 1541.88 168.821C1542.13 169.193 1542.35 169.566 1542.56 169.968C1542.58 170.01 1542.64 170.143 1542.68 170.245C1542.73 170.377 1542.8 170.539 1542.81 170.581C1542.95 170.984 1543.06 171.387 1543.15 171.801C1543.21 172.024 1543.25 172.252 1543.29 172.48C1543.29 172.492 1543.3 172.51 1543.3 172.528C1543.28 172.973 1543.39 173.448 1543.4 173.893C1543.42 174.788 1543.24 175.689 1543.27 176.573C1543.26 176.489 1543.26 176.422 1543.26 176.368C1543.26 176.477 1543.25 176.609 1543.24 176.699C1543.21 176.903 1543.17 177.107 1543.13 177.312C1543.03 177.787 1542.92 178.261 1542.8 178.73C1542.55 179.637 1542.24 180.515 1541.9 181.386C1541.89 181.398 1541.89 181.41 1541.89 181.422C1541.87 181.446 1541.86 181.476 1541.84 181.518C1541.75 181.729 1541.66 181.939 1541.55 182.149C1541.33 182.636 1541.09 183.117 1540.83 183.592C1540.35 184.505 1539.82 185.4 1539.25 186.266C1538.98 186.68 1538.7 187.095 1538.41 187.498C1538.28 187.684 1538.14 187.87 1538 188.056C1537.99 188.062 1537.99 188.075 1537.98 188.081C1537.93 188.147 1537.86 188.243 1537.84 188.267C1536.54 189.883 1535.1 191.386 1533.53 192.744C1533.18 193.044 1532.82 193.333 1532.46 193.627C1532.45 193.633 1532.45 193.633 1532.44 193.645C1532.38 193.693 1532.31 193.741 1532.25 193.789C1532.04 193.952 1531.82 194.108 1531.6 194.264C1530.75 194.865 1529.88 195.424 1528.98 195.941C1528.1 196.446 1527.19 196.914 1526.27 197.335C1526.12 197.401 1525.97 197.461 1525.83 197.527C1525.62 197.611 1525.41 197.702 1525.19 197.78C1524.63 197.996 1524.06 198.2 1523.48 198.381C1522.38 198.741 1521.25 199.036 1520.11 199.276C1519.61 199.384 1519.09 199.48 1518.58 199.558C1518.42 199.588 1518.24 199.612 1518.07 199.636C1518.06 199.636 1518.03 199.643 1517.98 199.649C1517.92 199.655 1517.86 199.661 1517.85 199.667C1517.67 199.685 1517.5 199.703 1517.33 199.721C1515.05 199.949 1512.76 199.949 1510.48 199.721C1510.25 199.697 1510.02 199.667 1509.79 199.643C1509.71 199.63 1509.49 199.6 1509.36 199.576C1508.77 199.48 1508.17 199.366 1507.58 199.24C1506.5 199.005 1505.43 198.717 1504.38 198.369C1504.14 198.29 1503.91 198.206 1503.67 198.116C1503.61 198.092 1503.34 197.984 1503.24 197.942C1503.1 197.882 1502.93 197.804 1502.87 197.774C1502.64 197.659 1502.41 197.545 1502.18 197.425C1501.76 197.197 1501.34 196.956 1500.94 196.698C1500.75 196.578 1500.56 196.458 1500.38 196.331C1500.29 196.271 1500.2 196.205 1500.11 196.139C1500.11 196.139 1500.11 196.133 1500.1 196.133C1500.1 196.139 1500.11 196.145 1500.11 196.145C1500.11 196.145 1500.09 196.133 1500.09 196.127C1499.73 195.869 1499.91 195.971 1500.03 196.067C1499.81 195.869 1499.21 195.358 1499.13 195.292C1498.95 195.117 1498.79 194.943 1498.62 194.757C1498.5 194.625 1498.34 194.354 1498.18 194.24C1498.14 194.18 1498.1 194.12 1498.06 194.06C1497.94 193.892 1497.84 193.717 1497.74 193.537C1497.64 193.369 1497.57 193.188 1497.47 193.02C1497.44 192.942 1497.42 192.87 1497.39 192.792C1497.33 192.606 1497.27 192.413 1497.22 192.215C1497.21 192.155 1497.19 192.089 1497.18 192.029C1497.18 192.059 1497.18 192.089 1497.18 192.125C1497.18 192.089 1497.18 192.053 1497.18 192.017C1497.18 191.987 1497.17 191.951 1497.16 191.921C1497.1 191.71 1497.18 191.614 1497.19 191.854C1497.19 191.518 1497.16 191.151 1497.16 190.827C1497.18 190.767 1497.19 190.701 1497.2 190.641C1497.25 190.436 1497.3 190.226 1497.37 190.028C1497.38 189.986 1497.4 189.943 1497.41 189.901C1497.54 189.733 1497.65 189.391 1497.75 189.216C1497.85 189.036 1497.96 188.856 1498.08 188.681C1498.12 188.627 1498.2 188.537 1498.26 188.453C1498.59 188.111 1498.89 187.756 1499.24 187.432C1499.4 187.281 1499.57 187.137 1499.73 186.999C1499.74 186.993 1499.79 186.951 1499.84 186.909C1500.26 186.608 1500.68 186.308 1501.12 186.037C1504.75 183.76 1508.92 182.6 1512.19 179.716C1513.07 178.946 1513.8 178.039 1514.46 177.083C1515.25 175.936 1514.82 174.403 1513.99 173.442C1511.34 170.389 1508.69 167.336 1506.04 164.284C1508.21 163.112 1510.38 161.934 1512.56 160.762C1512.62 160.942 1512.71 161.123 1512.81 161.297C1515.13 164.963 1517.44 168.622 1519.76 172.282ZM1508.56 156.105C1489.56 166.375 1470.55 176.645 1451.54 186.915C1441.13 192.539 1430.73 198.158 1420.33 203.783C1419.75 203.735 1419.17 203.687 1418.6 203.621C1418.54 203.603 1418.45 203.573 1418.31 203.537C1417.86 203.416 1417.39 203.344 1416.93 203.254C1415.89 203.05 1414.85 202.869 1413.8 202.707C1409.58 202.064 1405.32 201.692 1401.06 201.686C1392.69 201.674 1384.26 202.912 1376.26 205.363C1372.12 206.631 1368.09 208.242 1364.19 210.129C1346.03 190.052 1327.88 169.968 1309.73 149.891C1307.98 147.956 1306.23 146.021 1304.48 144.086C1317.22 136.496 1327.6 124.874 1333.85 111.437C1335.6 107.676 1337.06 103.794 1338.17 99.7974C1357.99 87.7186 1378.24 76.367 1398.92 65.8386C1419.88 55.1661 1441.28 45.6293 1462.95 36.4891C1465.16 35.5576 1467.32 34.512 1469.55 33.6346C1469.63 33.6046 1469.71 33.5625 1469.79 33.5264C1469.95 33.4964 1470.55 33.3342 1470.66 33.2982C1471.98 32.8835 1473.3 32.5049 1474.64 32.1564C1477.22 31.4893 1479.83 30.9424 1482.46 30.5278C1492.73 28.8993 1503.4 29.398 1513.51 31.8138C1532.82 36.423 1549.96 48.1291 1561.95 63.8916C1567.68 71.4273 1572.32 79.8645 1575.46 88.8064C1578.59 97.7122 1582.07 109.695 1575.61 117.982C1574.31 119.646 1572.69 120.884 1570.78 121.768C1569.66 122.284 1569.18 123.636 1569.35 124.826C1569.22 124.844 1569.08 124.874 1568.95 124.916C1568.74 124.983 1568.54 125.073 1568.36 125.175C1567.5 124.784 1566.46 124.808 1565.58 125.289C1546.58 135.565 1527.57 145.835 1508.56 156.105ZM1593.91 142.374C1593.9 142.728 1593.87 143.083 1593.84 143.437C1593.82 143.617 1593.81 143.792 1593.79 143.966C1593.77 144.11 1593.76 144.248 1593.74 144.393C1593.76 144.267 1593.78 144.14 1593.79 144.02C1593.8 144.729 1593.54 145.54 1593.39 146.226C1593.23 146.953 1593.03 147.68 1592.81 148.395C1592.59 149.11 1592.34 149.813 1592.05 150.51C1592.04 150.534 1592.04 150.564 1592.02 150.594C1591.97 150.727 1591.9 150.853 1591.85 150.973C1591.69 151.333 1591.52 151.688 1591.34 152.037C1590.66 153.377 1589.88 154.663 1589.01 155.889C1588.88 156.063 1588.76 156.237 1588.63 156.405C1588.59 156.453 1588.56 156.489 1588.55 156.52C1588.36 156.76 1588.16 156.994 1587.96 157.217C1587.48 157.788 1586.97 158.34 1586.44 158.869C1585.91 159.398 1585.36 159.909 1584.79 160.396C1584.53 160.618 1584.27 160.828 1584.01 161.039C1583.99 161.045 1583.99 161.051 1583.98 161.057C1583.81 161.183 1583.64 161.309 1583.47 161.435C1582.25 162.301 1580.96 163.064 1579.6 163.701C1579.41 163.791 1579.21 163.881 1579.02 163.971C1579.02 163.971 1579.01 163.977 1579.01 163.977C1578.69 164.103 1578.37 164.23 1578.05 164.344C1577.35 164.59 1576.65 164.812 1575.93 164.993C1575.23 165.179 1574.51 165.329 1573.78 165.449C1573.63 165.473 1573.47 165.497 1573.32 165.521C1572.94 165.558 1572.57 165.606 1572.18 165.63C1570.72 165.738 1569.25 165.726 1567.78 165.6C1567.57 165.582 1567.36 165.564 1567.16 165.54C1567.1 165.534 1566.4 165.485 1566.93 165.515C1567.44 165.546 1566.77 165.491 1566.7 165.479C1566.52 165.455 1566.35 165.425 1566.18 165.395C1565.46 165.269 1564.74 165.119 1564.02 164.939C1563.2 164.734 1562.39 164.494 1561.6 164.218C1561.2 164.079 1560.81 163.935 1560.42 163.779C1560.41 163.773 1560.36 163.761 1560.32 163.737C1560.38 163.761 1559.84 163.532 1559.77 163.502C1558.27 162.823 1556.83 162.012 1555.47 161.081C1555.15 160.864 1554.84 160.636 1554.53 160.408C1554.51 160.396 1554.5 160.39 1554.48 160.378C1554.48 160.372 1554.48 160.372 1554.47 160.366C1554.31 160.233 1554.15 160.101 1553.99 159.969C1553.34 159.434 1552.72 158.863 1552.13 158.268C1551.79 157.926 1551.46 157.571 1551.14 157.205C1556.37 154.152 1561.59 151.099 1566.83 148.046C1568.34 147.163 1568.57 145.42 1567.9 143.936C1566.33 140.421 1564.77 136.905 1563.2 133.39C1563.35 133.311 1563.49 133.233 1563.63 133.161C1564.95 132.446 1566.27 131.737 1567.59 131.022C1568.85 135.192 1570.11 139.357 1571.38 143.527C1571.96 145.456 1574.04 146.226 1575.79 145.324C1579.5 143.413 1583.21 141.496 1586.93 139.585C1588.67 138.69 1590.4 137.674 1592.19 136.887C1592.21 136.893 1592.64 136.731 1592.69 136.713C1592.77 136.689 1592.87 136.671 1592.95 136.647C1592.86 136.689 1593.03 136.701 1593.12 136.689C1593.1 136.671 1593.1 136.659 1593.09 136.647C1593.1 136.647 1593.1 136.647 1593.11 136.653C1593.1 136.647 1593.09 136.641 1593.09 136.635V136.629H1593.08C1593.08 136.629 1593.07 136.629 1593.07 136.623H1593.08L1593.09 136.629V136.623C1593.09 136.623 1593.09 136.623 1593.09 136.623C1593.09 136.623 1593.09 136.623 1593.09 136.623V136.617C1593.08 136.617 1593.07 136.617 1593.07 136.617C1593.07 136.617 1593.07 136.617 1593.07 136.617C1593.06 136.617 1593.04 136.611 1593.03 136.611C1592.99 136.599 1592.95 136.593 1592.89 136.581C1592.91 136.581 1592.98 136.593 1593.06 136.605C1592.97 136.532 1592.93 136.484 1593.07 136.605C1593.07 136.605 1593.09 136.605 1593.09 136.611C1593.09 136.599 1593.09 136.587 1593.1 136.581C1593.1 136.581 1593.1 136.593 1593.12 136.611H1593.11C1593.12 136.611 1593.12 136.611 1593.12 136.611C1593.12 136.611 1593.12 136.611 1593.13 136.611C1593.31 136.635 1593.5 136.665 1593.16 136.623C1593.15 136.623 1593.14 136.623 1593.13 136.617C1593.14 136.623 1593.14 136.629 1593.15 136.641C1593.13 136.635 1593.12 136.629 1593.11 136.629C1593.12 136.635 1593.13 136.641 1593.13 136.653C1593.14 136.653 1593.15 136.659 1593.15 136.659C1593.16 136.665 1593.16 136.671 1593.16 136.683C1593.16 136.683 1593.16 136.677 1593.15 136.677C1593.16 136.683 1593.16 136.683 1593.16 136.689C1593.42 136.911 1593.33 136.881 1593.23 136.797C1593.3 136.911 1593.38 137.043 1593.4 137.079C1593.4 137.097 1593.42 137.109 1593.42 137.127C1593.44 137.224 1593.52 137.38 1593.54 137.464C1593.65 137.818 1593.74 138.179 1593.81 138.546C1593.82 138.612 1593.83 138.66 1593.84 138.702C1593.85 138.816 1593.85 138.93 1593.86 138.954C1593.9 139.345 1593.92 139.735 1593.94 140.132C1593.95 140.877 1593.95 141.628 1593.91 142.374ZM1593.26 136.749C1593.24 136.761 1593.19 136.731 1593.15 136.695C1593.16 136.689 1593.16 136.683 1593.15 136.677C1593.24 136.707 1593.3 136.731 1593.26 136.749Z" fill="#231815"/>
</svg>
