<svg width="233" height="288" viewBox="0 0 233 288" fill="none" xmlns="http://www.w3.org/2000/svg">
<g clip-path="url(#clip0_745_5)">
<path d="M91.9624 282.256C96.3243 276.373 100.788 270.417 106.244 265.49C111.62 260.635 117.917 257.099 124.481 254.107C137.168 248.325 147.986 240.695 158.833 232.008C167.615 224.972 176.846 218.654 185.838 211.915C190.134 208.698 194.511 205.206 197.895 200.996C200.068 198.286 202.112 195.236 204.14 192.388C207.242 188.041 209.451 182.548 211.538 177.614C214.132 171.484 216.284 165.166 218.088 158.761C221.711 145.9 223.856 132.662 224.899 119.351C226.044 104.73 225.943 90.0425 225.254 75.4062C224.573 60.8423 223.82 46.0829 221.921 31.6204C220.979 24.411 214.828 -1.98512 203.336 10.2094C194.591 19.4984 192.866 33.7941 192.583 45.9597C192.576 46.3437 192.511 46.6987 192.417 47.0175C194.634 56.5239 195.706 66.3418 196.54 76.0003C199.764 113.555 195.772 151.674 185.113 187.816C183.794 192.287 176.802 190.374 178.128 185.889C183.389 168.057 187.062 149.776 188.903 131.278C190.526 114.953 190.816 98.5055 189.75 82.1375C188.837 68.0301 187.381 53.5749 182.983 40.0689C179.324 28.8163 172.18 15.3393 160.21 11.1658C157.224 10.1224 153.623 9.68046 151.16 12.0715C148.631 14.5278 147.573 18.8825 146.675 22.1576C144.566 29.8452 144.378 37.9097 145.972 45.7061C146.117 46.4089 146.073 47.0465 145.892 47.6117C150.805 63.0378 153.826 79.4058 156.391 95.3391C159.224 112.932 160.876 130.778 160.26 148.61C159.963 157.246 159.116 165.869 157.681 174.39C156.92 178.926 155.978 183.425 154.841 187.881C154.297 190.011 153.71 192.127 153.08 194.236C152.826 195.083 152.565 195.924 152.297 196.764C152.189 197.112 152.066 197.46 151.957 197.808C151.971 197.837 151.993 197.859 152 197.88C153.297 200.663 152.138 204.445 148.551 204.459C144.921 204.474 143.682 200.699 144.385 197.706C145.414 193.323 147.095 189.062 148.175 184.679C149.327 180.005 150.269 175.274 151.015 170.521C156.442 135.857 151.167 100.273 143.255 66.4288C140.284 53.7271 137.654 36.6634 126.329 28.3816C124.112 26.7658 119.518 23.9038 116.721 25.5268C114.134 27.0267 113.156 32.8522 112.41 35.5186C110.033 44.0903 109.432 53.1474 110.664 61.9654C110.743 62.5306 110.707 63.0595 110.577 63.5377C113.62 68.8778 115.975 74.5947 117.641 80.2029C123.561 100.129 123.546 121.945 124.532 142.552C125.568 164.115 125.561 185.707 122.293 207.09C121.59 211.691 114.605 209.727 115.308 205.162C118.402 184.925 118.293 164.369 117.359 143.965C116.453 124.38 116.46 103.766 111.388 84.7242C107.686 70.8269 100.208 56.9731 87.4483 49.4956C84.1805 47.5827 80.7533 45.9742 77.942 49.3652C76.0146 51.691 75.2104 54.7704 74.7032 57.676C73.4859 64.7115 74.4496 71.9717 75.9929 78.8696C79.1085 92.7741 84.7892 106.316 85.079 120.735C85.1804 125.641 85.55 132.821 80.9055 135.589C76.8117 138.031 72.7033 140.255 68.4863 142.48C48.8505 152.805 28.3017 165.441 17.9186 185.86C5.27486 210.712 4.78215 240.304 11.738 266.852C11.8612 267.316 11.8902 267.758 11.854 268.164L92.8319 286.749C91.39 285.807 90.6437 284.039 91.9697 282.249L91.9624 282.256Z" fill="#F5B997"/>
<path d="M231.891 64.7765C231.377 56.7627 230.747 48.7635 230.073 40.7642C229.471 33.6344 228.819 26.4032 226.877 19.4908C225.037 12.9335 222.023 5.68777 215.958 1.97072C210.227 -1.55069 203.611 -0.123285 198.923 4.36905C191.989 11.0134 188.504 20.3313 186.801 29.9174C181.541 18.0707 171.035 4.18066 157.022 3.13728C147.573 2.43445 143.023 9.78159 140.414 17.7736C139.081 21.8457 138.262 26.0337 137.907 30.2579C133.582 23.8962 127.705 18.8387 119.887 18.0417C109.939 17.0345 107.055 27.0481 105.07 34.859C103.563 40.7642 102.86 46.7564 102.867 52.7703C98.4763 47.8722 93.2594 43.8291 87.1803 41.2786C79.6085 38.105 72.986 41.9453 69.7326 49.0605C66.3634 56.4222 66.5011 65.2257 67.5879 73.08C70.1529 91.7015 80.6809 110.316 77.116 129.415C58.7482 140.226 39.0616 149.058 24.1282 164.753C11.0642 178.483 3.99965 196.974 1.27526 215.53C-1.21726 232.522 0.0652323 249.774 4.14456 266.403C4.3402 267.2 4.53583 267.997 4.73871 268.786C5.79658 272.829 11.5279 271.706 11.8395 268.171C11.8757 267.765 11.8395 267.33 11.7236 266.859C4.76769 240.311 5.2604 210.727 17.9041 185.867C28.2872 165.448 48.836 152.812 68.4719 142.487C72.6961 140.269 76.7972 138.045 80.891 135.596C85.5355 132.828 85.166 125.648 85.0645 120.742C84.7747 106.323 79.0941 92.7811 75.9784 78.8766C74.4351 71.9787 73.4642 64.7185 74.6887 57.6829C75.1959 54.7774 76.0002 51.6907 77.9275 49.3721C80.7389 45.9811 84.1661 47.5897 87.4339 49.5025C100.201 56.9801 107.671 70.8339 111.374 84.7311C116.446 103.773 116.438 124.394 117.344 143.972C118.286 164.376 118.388 184.932 115.294 205.169C114.598 209.734 121.576 211.698 122.278 207.097C125.546 185.707 125.554 164.122 124.517 142.559C123.532 121.945 123.546 100.135 117.627 80.2098C115.96 74.6016 113.605 68.8848 110.562 63.5447C110.693 63.0665 110.729 62.5375 110.649 61.9724C109.417 53.1544 110.011 44.0972 112.395 35.5256C113.134 32.8519 114.12 27.0336 116.707 25.5337C119.503 23.9107 124.104 26.7655 126.314 28.3885C137.639 36.6704 140.27 53.7413 143.24 66.4357C151.153 100.28 156.427 135.864 151 170.527C150.254 175.281 149.312 180.012 148.16 184.686C147.08 189.069 145.399 193.337 144.371 197.713C143.668 200.706 144.9 204.481 148.537 204.466C152.124 204.452 153.283 200.67 151.986 197.887C151.971 197.858 151.95 197.837 151.942 197.815C152.058 197.467 152.174 197.119 152.283 196.771C152.551 195.931 152.812 195.09 153.065 194.243C153.696 192.141 154.29 190.018 154.826 187.888C155.964 183.432 156.906 178.932 157.666 174.397C159.101 165.868 159.949 157.253 160.246 148.616C160.869 130.785 159.217 112.939 156.377 95.3461C153.812 79.4128 150.783 63.052 145.878 47.6186C146.059 47.0535 146.102 46.4158 145.957 45.713C144.363 37.9166 144.552 29.8522 146.66 22.1645C147.559 18.8967 148.624 14.5348 151.145 12.0785C153.609 9.68739 157.21 10.1294 160.195 11.1728C172.158 15.3463 179.302 28.8233 182.968 40.0759C187.367 53.5818 188.823 68.037 189.736 82.1444C190.794 98.5124 190.511 114.967 188.888 131.285C187.048 149.79 183.374 168.071 178.114 185.896C176.795 190.381 183.78 192.294 185.099 187.823C195.757 151.681 199.749 113.562 196.525 76.0073C195.699 66.3488 194.62 56.5308 192.402 47.0245C192.504 46.7057 192.562 46.3506 192.569 45.9666C192.852 33.8011 194.576 19.5053 203.322 10.2163C214.806 -1.97818 220.958 24.4179 221.907 31.6274C223.798 46.0898 224.552 60.8493 225.24 75.4131C225.928 90.0495 226.022 104.744 224.885 119.358C223.849 132.669 221.697 145.907 218.074 158.768C216.27 165.173 214.125 171.491 211.524 177.621C209.437 182.555 207.227 188.04 204.126 192.395C202.097 195.243 200.061 198.293 197.88 201.003C194.496 205.213 190.127 208.705 185.823 211.922C176.824 218.661 167.6 224.979 158.819 232.014C147.979 240.695 137.154 248.332 124.467 254.114C117.902 257.106 111.606 260.642 106.229 265.497C100.766 270.424 96.3099 276.38 91.948 282.263C90.6148 284.06 91.3683 285.821 92.8102 286.763C93.6362 287.306 94.6941 287.582 95.723 287.43C96.6432 287.299 97.5344 286.828 98.2082 285.915C102.425 280.227 106.809 274.503 112.207 269.866C117.764 265.091 124.452 262.084 131.053 259.055C143.008 253.578 153.29 245.673 163.492 237.499C173.172 229.747 183.541 222.972 193.257 215.284C200.3 209.705 205.698 203.046 210.633 195.735C214.538 189.953 217.233 182.91 219.784 176.44C222.443 169.701 224.609 162.775 226.377 155.746C229.942 141.537 231.833 126.901 232.587 112.279C233.413 96.4474 232.899 80.5793 231.891 64.7692V64.7765Z" fill="#231815"/>
</g>
<defs>
<clipPath id="clip0_745_5">
<rect width="233" height="287.466" fill="white"/>
</clipPath>
</defs>
</svg>
