<svg width="233" height="317" viewBox="0 0 233 317" fill="none" xmlns="http://www.w3.org/2000/svg">
<g clip-path="url(#clip0_742_11)">
<path d="M26.335 292.619C39.1917 307.019 52.9625 322.408 67.2892 309.474C74.3684 303.077 72.0209 304.059 78.8149 297.361C82.4057 293.821 85.9965 290.267 89.4556 286.603C92.732 283.137 95.3867 279.099 98.4729 275.464C104.66 268.173 111.951 262.618 120.544 258.426C129.006 254.293 137.211 250.417 144.927 244.928C152.35 239.644 159.261 233.679 166.471 228.117C173.083 223.017 180.111 218.488 186.722 213.38C190.108 210.764 193.421 207.972 196.302 204.792C198.13 202.777 199.381 200.439 201.034 198.307C205.59 192.4 208.786 185.863 211.653 178.946C219.302 160.508 223.266 140.627 224.816 120.775C226.572 98.3362 225.431 75.7876 223.712 53.3855C222.922 43.0675 222.644 32.3758 219.946 22.3362C217.796 14.3486 211.821 2.0007 202.292 10.0103C195.154 16.0047 193.296 26.7624 192.631 35.5489C191.848 45.9182 192.024 56.3974 191.826 66.7886C191.41 89.4472 190.993 112.098 190.576 134.757C190.547 136.384 189.654 137.454 188.506 137.952C191.585 150.007 193.969 162.252 195.615 174.622C196.236 179.29 188.916 179.231 188.301 174.622C185.895 156.5 181.785 138.597 176.14 121.215C171.152 105.87 164.928 90.9495 157.535 76.6157C150.741 63.4544 143.274 50.0146 133.364 38.9198C125.181 29.7596 112.353 19.383 99.1311 21.2004C96.0814 21.6181 93.1123 22.8932 92.0445 25.9783C90.8671 29.4079 91.5911 33.922 92.1762 37.4102C93.5218 45.4125 96.7616 52.7993 101.464 59.3726C101.954 60.0541 102.151 60.7356 102.137 61.3658C111.022 72.2994 119.403 83.7313 127.141 95.4636C136.421 109.534 144.641 124.3 151.128 139.879C154.426 147.808 157.249 155.935 159.443 164.238C160.592 168.591 161.572 172.988 162.361 177.421C162.72 179.444 163.041 181.474 163.327 183.511C163.429 184.244 163.524 184.977 163.619 185.709C163.634 185.819 163.648 185.929 163.663 186.039C163.875 186.164 164.073 186.31 164.263 186.464C166.793 188.575 165.923 193.052 162.661 193.858C158.931 194.774 157.037 191.213 156.606 188.172C155.26 178.711 153.483 169.456 150.719 160.296C141.08 128.36 122.687 99.6919 102.4 73.5525C97.4856 67.2137 92.5638 60.7796 87.0569 54.9391C81.784 49.3477 75.5751 43.9029 67.9035 42.1442C65.2195 41.5286 59.4786 40.7518 57.4894 43.4339C55.5222 46.0867 57.4163 52.8799 57.9867 55.8111C59.6907 64.5169 63.0914 72.6292 67.9328 80.0379C68.7445 81.2837 68.6787 82.5001 68.1229 83.4601C81.2282 99.7139 89.4191 119.859 98.0853 138.685C107.344 158.779 115.82 179.327 120.903 200.923C121.985 205.517 114.928 207.459 113.853 202.872C108.602 180.543 99.7088 159.387 90.0553 138.663C82.0181 121.42 74.5439 102.726 62.3747 87.9083C56.9117 81.2544 50.3956 75.4432 42.7459 71.4347C37.8973 68.8918 23.0952 62.2012 20.1334 69.8445C17.6761 76.1906 21.2304 84.6106 24.141 90.2313C27.4905 96.7021 31.9077 102.55 36.3468 108.288C45.0642 119.566 54.4544 131.159 56.8386 145.647C57.1311 147.427 56.2608 148.812 55.0468 149.582C54.9956 150.63 54.4618 151.641 53.2331 152.301C34.9646 162.076 21.1499 178.909 13.8952 198.255C5.28749 221.214 5.7336 246.474 11.8767 269.968" fill="#F5B997"/>
<path d="M0.160902 227.641C0.160902 227.641 0.226721 227.604 0.255974 227.589C-0.709374 242.451 1.0458 257.547 4.7975 271.895C5.98956 276.453 13.0468 274.519 11.8475 269.946C5.70434 246.452 5.26555 221.192 13.8659 198.233C21.1207 178.879 34.9354 162.054 53.2039 152.278C54.4325 151.619 54.9664 150.607 55.0176 149.559C56.2389 148.79 57.1091 147.405 56.8093 145.624C54.4252 131.129 45.035 119.543 36.3176 108.265C31.8784 102.52 27.4612 96.6796 24.1118 90.2089C21.2011 84.5955 17.6469 76.1682 20.1041 69.822C23.066 62.1788 37.868 68.8694 42.7167 71.4122C50.3663 75.4207 56.8824 81.2319 62.3454 87.8858C74.5147 102.711 81.9888 121.397 90.0261 138.64C99.6869 159.372 108.58 180.521 113.823 202.849C114.898 207.437 121.956 205.495 120.873 200.9C115.798 179.304 107.315 158.756 98.056 138.662C89.3898 119.844 81.1917 99.6988 68.0936 83.4377C68.6494 82.4777 68.7153 81.2612 67.9035 80.0154C63.0621 72.5994 59.6688 64.4871 57.9575 55.7887C57.3797 52.8574 55.4929 46.0642 57.4602 43.4115C59.4494 40.7294 65.1903 41.5061 67.8742 42.1217C75.5458 43.8805 81.7548 49.3253 87.0276 54.9166C92.5345 60.7571 97.4563 67.1912 102.371 73.53C122.658 99.6768 141.051 128.344 150.689 160.273C153.454 169.433 155.231 178.696 156.577 188.149C157.008 191.198 158.902 194.752 162.632 193.836C165.894 193.037 166.771 188.552 164.234 186.442C164.043 186.281 163.839 186.141 163.634 186.017C163.619 185.907 163.605 185.797 163.59 185.687C163.495 184.954 163.4 184.221 163.297 183.489C163.012 181.451 162.69 179.421 162.332 177.399C161.542 172.965 160.562 168.568 159.414 164.216C157.22 155.913 154.405 147.786 151.099 139.857C144.612 124.277 136.392 109.511 127.112 95.4411C119.374 83.7088 110.993 72.2769 102.108 61.3434C102.122 60.7132 101.925 60.039 101.435 59.3501C96.7396 52.7695 93.4925 45.3901 92.1469 37.3877C91.5618 33.8996 90.8305 29.3854 92.0153 25.9559C93.0757 22.8707 96.0448 21.5956 99.1018 21.1779C112.324 19.3606 125.152 29.7445 133.335 38.8973C143.245 49.9921 150.719 63.4319 157.505 76.5932C164.906 90.927 171.123 105.847 176.11 121.192C181.763 138.574 185.873 156.477 188.272 174.6C188.886 179.209 196.207 179.268 195.585 174.6C193.947 162.23 191.563 149.984 188.477 137.93C189.625 137.424 190.517 136.361 190.547 134.735C190.963 112.076 191.38 89.4248 191.797 66.7662C191.987 56.3749 191.819 45.8957 192.602 35.5264C193.267 26.74 195.117 15.9823 202.262 9.98789C211.792 1.98558 217.766 14.3335 219.917 22.3138C222.615 32.3533 222.893 43.0451 223.683 53.3631C225.402 75.7651 226.542 98.3138 224.787 120.752C223.237 140.604 219.273 160.478 211.623 178.923C208.749 185.841 205.561 192.385 201.005 198.291C199.359 200.431 198.101 202.762 196.273 204.777C193.391 207.957 190.079 210.749 186.693 213.365C180.089 218.473 173.061 222.994 166.449 228.102C159.239 233.664 152.328 239.629 144.905 244.913C137.189 250.402 128.991 254.278 120.522 258.411C111.937 262.603 104.645 268.158 98.4509 275.449C95.3647 279.091 92.71 283.122 89.4337 286.588C85.9745 290.252 82.3764 293.806 78.7929 297.346C71.9989 304.044 65.0513 310.595 57.9721 316.985L80.3872 306.029C83.9926 302.527 87.5615 298.987 91.0792 295.396C94.787 291.622 97.9317 287.709 101.223 283.569C107.695 275.427 114.847 269.316 124.215 264.735C133.028 260.434 141.519 256.359 149.512 250.578C157.103 245.089 164.204 238.955 171.642 233.269C183.789 223.991 197.706 216.304 206.175 203.472C207.44 201.552 209.122 199.904 210.402 197.991C213.218 193.799 215.302 188.743 217.298 184.126C221.365 174.731 224.553 165 226.901 155.033C231.866 133.98 233.271 112.237 232.92 90.6559C232.737 79.4072 232.086 68.1659 231.259 56.9465C230.484 46.46 230.045 35.7756 228.1 25.4209C226.513 16.9643 223.383 6.28718 215.324 1.75108C207.25 -2.79236 198.43 2.08817 193.479 8.82272C187.826 16.5099 185.983 26.205 185.281 35.5264C184.462 46.372 184.652 57.3422 184.455 68.2172C184.133 85.6508 183.811 103.084 183.489 120.518C178.012 103.326 171.049 86.6181 162.61 70.5988C154.814 55.8033 146.067 40.5315 133.847 28.9091C124.113 19.661 108.324 10.1344 94.3701 14.7805C84.8336 17.9609 83.5026 26.9598 84.585 35.8855C84.9214 38.6335 85.448 41.3376 86.15 43.9831C78.1128 37.1093 68.2765 32.0016 57.9502 34.9768C48.0919 37.8201 49.167 47.6031 50.5492 55.8473C51.3756 60.7864 52.7505 65.623 54.6007 70.2764C51.9972 68.3271 49.2547 66.5757 46.3879 65.0661C39.2356 61.3067 28.2511 56.9538 20.1699 59.951C11.9864 62.9849 11.3282 73.083 12.8128 80.3818C14.3559 87.9811 18.0125 95.0381 22.2835 101.436C31.8492 115.777 45.876 128.506 49.4449 145.961C29.7942 156.492 15.2189 174.548 7.20356 195.214C4.23438 202.871 2.24518 210.815 1.11894 218.883" fill="#231815"/>
</g>
<defs>
<clipPath id="clip0_742_11">
<rect width="233" height="317" fill="white"/>
</clipPath>
</defs>
</svg>
